<?xml version="1.0" encoding="utf-8" standalone="no"?>
<!DOCTYPE svg PUBLIC "-//W3C//DTD SVG 1.1//EN"
  "http://www.w3.org/Graphics/SVG/1.1/DTD/svg11.dtd">
<svg xmlns:xlink="http://www.w3.org/1999/xlink" width="460.8pt" height="345.6pt" viewBox="0 0 460.8 345.6" xmlns="http://www.w3.org/2000/svg" version="1.1">
 <metadata>
  <rdf:RDF xmlns:dc="http://purl.org/dc/elements/1.1/" xmlns:cc="http://creativecommons.org/ns#" xmlns:rdf="http://www.w3.org/1999/02/22-rdf-syntax-ns#">
   <cc:Work>
    <dc:type rdf:resource="http://purl.org/dc/dcmitype/StillImage"/>
    <dc:date>2025-05-08T22:44:13.911967</dc:date>
    <dc:format>image/svg+xml</dc:format>
    <dc:creator>
     <cc:Agent>
      <dc:title>Matplotlib v3.10.1, https://matplotlib.org/</dc:title>
     </cc:Agent>
    </dc:creator>
   </cc:Work>
  </rdf:RDF>
 </metadata>
 <defs>
  <style type="text/css">*{stroke-linejoin: round; stroke-linecap: butt}</style>
 </defs>
 <g id="figure_1">
  <g id="patch_1">
   <path d="M 0 345.6 
L 460.8 345.6 
L 460.8 0 
L 0 0 
z
" style="fill: #ffffff"/>
  </g>
  <g id="axes_1">
   <g id="patch_2">
    <path d="M 57.17 303.64 
L 450 303.64 
L 450 26.88 
L 57.17 26.88 
z
" style="fill: #ffffff"/>
   </g>
   <g id="patch_3">
    <path d="M 75.025909 303.64 
L 83.006204 303.64 
L 83.006204 183.43595 
L 75.025909 183.43595 
z
" clip-path="url(#peecf9bfa08)" style="fill: #1f77b4"/>
   </g>
   <g id="patch_4">
    <path d="M 85.001277 303.64 
L 92.981572 303.64 
L 92.981572 192.807425 
L 85.001277 192.807425 
z
" clip-path="url(#peecf9bfa08)" style="fill: #1f77b4"/>
   </g>
   <g id="patch_5">
    <path d="M 94.976646 303.64 
L 102.95694 303.64 
L 102.95694 189.893704 
L 94.976646 189.893704 
z
" clip-path="url(#peecf9bfa08)" style="fill: #1f77b4"/>
   </g>
   <g id="patch_6">
    <path d="M 104.952014 303.64 
L 112.932308 303.64 
L 112.932308 201.334201 
L 104.952014 201.334201 
z
" clip-path="url(#peecf9bfa08)" style="fill: #1f77b4"/>
   </g>
   <g id="patch_7">
    <path d="M 114.927382 303.64 
L 122.907676 303.64 
L 122.907676 218.335653 
L 114.927382 218.335653 
z
" clip-path="url(#peecf9bfa08)" style="fill: #1f77b4"/>
   </g>
   <g id="patch_8">
    <path d="M 124.90275 303.64 
L 132.883045 303.64 
L 132.883045 229.847567 
L 124.90275 229.847567 
z
" clip-path="url(#peecf9bfa08)" style="fill: #1f77b4"/>
   </g>
   <g id="patch_9">
    <path d="M 134.878118 303.64 
L 142.858413 303.64 
L 142.858413 224.759383 
L 134.878118 224.759383 
z
" clip-path="url(#peecf9bfa08)" style="fill: #1f77b4"/>
   </g>
   <g id="patch_10">
    <path d="M 144.853487 303.64 
L 152.833781 303.64 
L 152.833781 209.42327 
L 144.853487 209.42327 
z
" clip-path="url(#peecf9bfa08)" style="fill: #1f77b4"/>
   </g>
   <g id="patch_11">
    <path d="M 154.828855 303.64 
L 162.809149 303.64 
L 162.809149 206.91647 
L 154.828855 206.91647 
z
" clip-path="url(#peecf9bfa08)" style="fill: #1f77b4"/>
   </g>
   <g id="patch_12">
    <path d="M 164.804223 303.64 
L 172.784518 303.64 
L 172.784518 220.289657 
L 164.804223 220.289657 
z
" clip-path="url(#peecf9bfa08)" style="fill: #1f77b4"/>
   </g>
   <g id="patch_13">
    <path d="M 174.779591 303.64 
L 182.759886 303.64 
L 182.759886 219.870428 
L 174.779591 219.870428 
z
" clip-path="url(#peecf9bfa08)" style="fill: #1f77b4"/>
   </g>
   <g id="patch_14">
    <path d="M 184.754959 303.64 
L 192.735254 303.64 
L 192.735254 219.137594 
L 184.754959 219.137594 
z
" clip-path="url(#peecf9bfa08)" style="fill: #1f77b4"/>
   </g>
   <g id="patch_15">
    <path d="M 194.730328 303.64 
L 202.710622 303.64 
L 202.710622 222.748618 
L 194.730328 222.748618 
z
" clip-path="url(#peecf9bfa08)" style="fill: #1f77b4"/>
   </g>
   <g id="patch_16">
    <path d="M 204.705696 303.64 
L 212.68599 303.64 
L 212.68599 195.580074 
L 204.705696 195.580074 
z
" clip-path="url(#peecf9bfa08)" style="fill: #1f77b4"/>
   </g>
   <g id="patch_17">
    <path d="M 214.681064 303.64 
L 222.661359 303.64 
L 222.661359 200.169681 
L 214.681064 200.169681 
z
" clip-path="url(#peecf9bfa08)" style="fill: #1f77b4"/>
   </g>
   <g id="patch_18">
    <path d="M 224.656432 303.64 
L 232.636727 303.64 
L 232.636727 209.631593 
L 224.656432 209.631593 
z
" clip-path="url(#peecf9bfa08)" style="fill: #1f77b4"/>
   </g>
   <g id="patch_19">
    <path d="M 234.6318 303.64 
L 242.612095 303.64 
L 242.612095 205.627943 
L 234.6318 205.627943 
z
" clip-path="url(#peecf9bfa08)" style="fill: #1f77b4"/>
   </g>
   <g id="patch_20">
    <path d="M 244.607169 303.64 
L 252.587463 303.64 
L 252.587463 197.758752 
L 244.607169 197.758752 
z
" clip-path="url(#peecf9bfa08)" style="fill: #1f77b4"/>
   </g>
   <g id="patch_21">
    <path d="M 254.582537 303.64 
L 262.562831 303.64 
L 262.562831 196.135657 
L 254.582537 196.135657 
z
" clip-path="url(#peecf9bfa08)" style="fill: #1f77b4"/>
   </g>
   <g id="patch_22">
    <path d="M 264.557905 303.64 
L 272.5382 303.64 
L 272.5382 206.974472 
L 264.557905 206.974472 
z
" clip-path="url(#peecf9bfa08)" style="fill: #1f77b4"/>
   </g>
   <g id="patch_23">
    <path d="M 274.533273 303.64 
L 282.513568 303.64 
L 282.513568 186.089184 
L 274.533273 186.089184 
z
" clip-path="url(#peecf9bfa08)" style="fill: #1f77b4"/>
   </g>
   <g id="patch_24">
    <path d="M 284.508641 303.64 
L 292.488936 303.64 
L 292.488936 189.756852 
L 284.508641 189.756852 
z
" clip-path="url(#peecf9bfa08)" style="fill: #1f77b4"/>
   </g>
   <g id="patch_25">
    <path d="M 294.48401 303.64 
L 302.464304 303.64 
L 302.464304 204.187932 
L 294.48401 204.187932 
z
" clip-path="url(#peecf9bfa08)" style="fill: #1f77b4"/>
   </g>
   <g id="patch_26">
    <path d="M 304.459378 303.64 
L 312.439672 303.64 
L 312.439672 206.219982 
L 304.459378 206.219982 
z
" clip-path="url(#peecf9bfa08)" style="fill: #1f77b4"/>
   </g>
   <g id="patch_27">
    <path d="M 314.434746 303.64 
L 322.415041 303.64 
L 322.415041 206.7342 
L 314.434746 206.7342 
z
" clip-path="url(#peecf9bfa08)" style="fill: #1f77b4"/>
   </g>
   <g id="patch_28">
    <path d="M 324.410114 303.64 
L 332.390409 303.64 
L 332.390409 201.36221 
L 324.410114 201.36221 
z
" clip-path="url(#peecf9bfa08)" style="fill: #1f77b4"/>
   </g>
   <g id="patch_29">
    <path d="M 334.385482 303.64 
L 342.365777 303.64 
L 342.365777 197.573409 
L 334.385482 197.573409 
z
" clip-path="url(#peecf9bfa08)" style="fill: #1f77b4"/>
   </g>
   <g id="patch_30">
    <path d="M 344.360851 303.64 
L 352.341145 303.64 
L 352.341145 200.344651 
L 344.360851 200.344651 
z
" clip-path="url(#peecf9bfa08)" style="fill: #1f77b4"/>
   </g>
   <g id="patch_31">
    <path d="M 354.336219 303.64 
L 362.316513 303.64 
L 362.316513 205.935954 
L 354.336219 205.935954 
z
" clip-path="url(#peecf9bfa08)" style="fill: #1f77b4"/>
   </g>
   <g id="patch_32">
    <path d="M 364.311587 303.64 
L 372.291882 303.64 
L 372.291882 207.345752 
L 364.311587 207.345752 
z
" clip-path="url(#peecf9bfa08)" style="fill: #1f77b4"/>
   </g>
   <g id="patch_33">
    <path d="M 374.286955 303.64 
L 382.26725 303.64 
L 382.26725 202.367523 
L 374.286955 202.367523 
z
" clip-path="url(#peecf9bfa08)" style="fill: #1f77b4"/>
   </g>
   <g id="patch_34">
    <path d="M 384.262324 303.64 
L 392.242618 303.64 
L 392.242618 199.93692 
L 384.262324 199.93692 
z
" clip-path="url(#peecf9bfa08)" style="fill: #1f77b4"/>
   </g>
   <g id="patch_35">
    <path d="M 394.237692 303.64 
L 402.217986 303.64 
L 402.217986 207.752175 
L 394.237692 207.752175 
z
" clip-path="url(#peecf9bfa08)" style="fill: #1f77b4"/>
   </g>
   <g id="patch_36">
    <path d="M 404.21306 303.64 
L 412.193354 303.64 
L 412.193354 199.603371 
L 404.21306 199.603371 
z
" clip-path="url(#peecf9bfa08)" style="fill: #1f77b4"/>
   </g>
   <g id="patch_37">
    <path d="M 414.188428 303.64 
L 422.168723 303.64 
L 422.168723 204.559328 
L 414.188428 204.559328 
z
" clip-path="url(#peecf9bfa08)" style="fill: #1f77b4"/>
   </g>
   <g id="patch_38">
    <path d="M 424.163796 303.64 
L 432.144091 303.64 
L 432.144091 203.616802 
L 424.163796 203.616802 
z
" clip-path="url(#peecf9bfa08)" style="fill: #1f77b4"/>
   </g>
   <g id="patch_39">
    <path d="M 75.025909 183.43595 
L 83.006204 183.43595 
L 83.006204 182.909103 
L 75.025909 182.909103 
z
" clip-path="url(#peecf9bfa08)" style="fill: #0000ff"/>
   </g>
   <g id="patch_40">
    <path d="M 85.001277 192.807425 
L 92.981572 192.807425 
L 92.981572 191.872427 
L 85.001277 191.872427 
z
" clip-path="url(#peecf9bfa08)" style="fill: #0000ff"/>
   </g>
   <g id="patch_41">
    <path d="M 94.976646 189.893704 
L 102.95694 189.893704 
L 102.95694 189.036082 
L 94.976646 189.036082 
z
" clip-path="url(#peecf9bfa08)" style="fill: #0000ff"/>
   </g>
   <g id="patch_42">
    <path d="M 104.952014 201.334201 
L 112.932308 201.334201 
L 112.932308 200.57842 
L 104.952014 200.57842 
z
" clip-path="url(#peecf9bfa08)" style="fill: #0000ff"/>
   </g>
   <g id="patch_43">
    <path d="M 114.927382 218.335653 
L 122.907676 218.335653 
L 122.907676 217.799429 
L 114.927382 217.799429 
z
" clip-path="url(#peecf9bfa08)" style="fill: #0000ff"/>
   </g>
   <g id="patch_44">
    <path d="M 124.90275 229.847567 
L 132.883045 229.847567 
L 132.883045 229.642743 
L 124.90275 229.642743 
z
" clip-path="url(#peecf9bfa08)" style="fill: #0000ff"/>
   </g>
   <g id="patch_45">
    <path d="M 134.878118 224.759383 
L 142.858413 224.759383 
L 142.858413 224.289585 
L 134.878118 224.289585 
z
" clip-path="url(#peecf9bfa08)" style="fill: #0000ff"/>
   </g>
   <g id="patch_46">
    <path d="M 144.853487 209.42327 
L 152.833781 209.42327 
L 152.833781 208.076353 
L 144.853487 208.076353 
z
" clip-path="url(#peecf9bfa08)" style="fill: #0000ff"/>
   </g>
   <g id="patch_47">
    <path d="M 154.828855 206.91647 
L 162.809149 206.91647 
L 162.809149 206.041351 
L 154.828855 206.041351 
z
" clip-path="url(#peecf9bfa08)" style="fill: #0000ff"/>
   </g>
   <g id="patch_48">
    <path d="M 164.804223 220.289657 
L 172.784518 220.289657 
L 172.784518 218.779818 
L 164.804223 218.779818 
z
" clip-path="url(#peecf9bfa08)" style="fill: #0000ff"/>
   </g>
   <g id="patch_49">
    <path d="M 174.779591 219.870428 
L 182.759886 219.870428 
L 182.759886 218.204313 
L 174.779591 218.204313 
z
" clip-path="url(#peecf9bfa08)" style="fill: #0000ff"/>
   </g>
   <g id="patch_50">
    <path d="M 184.754959 219.137594 
L 192.735254 219.137594 
L 192.735254 217.532057 
L 184.754959 217.532057 
z
" clip-path="url(#peecf9bfa08)" style="fill: #0000ff"/>
   </g>
   <g id="patch_51">
    <path d="M 194.730328 222.748618 
L 202.710622 222.748618 
L 202.710622 215.507644 
L 194.730328 215.507644 
z
" clip-path="url(#peecf9bfa08)" style="fill: #0000ff"/>
   </g>
   <g id="patch_52">
    <path d="M 204.705696 195.580074 
L 212.68599 195.580074 
L 212.68599 193.521034 
L 204.705696 193.521034 
z
" clip-path="url(#peecf9bfa08)" style="fill: #0000ff"/>
   </g>
   <g id="patch_53">
    <path d="M 214.681064 200.169681 
L 222.661359 200.169681 
L 222.661359 196.139262 
L 214.681064 196.139262 
z
" clip-path="url(#peecf9bfa08)" style="fill: #0000ff"/>
   </g>
   <g id="patch_54">
    <path d="M 224.656432 209.631593 
L 232.636727 209.631593 
L 232.636727 200.860337 
L 224.656432 200.860337 
z
" clip-path="url(#peecf9bfa08)" style="fill: #0000ff"/>
   </g>
   <g id="patch_55">
    <path d="M 234.6318 205.627943 
L 242.612095 205.627943 
L 242.612095 167.098096 
L 234.6318 167.098096 
z
" clip-path="url(#peecf9bfa08)" style="fill: #0000ff"/>
   </g>
   <g id="patch_56">
    <path d="M 244.607169 197.758752 
L 252.587463 197.758752 
L 252.587463 185.190281 
L 244.607169 185.190281 
z
" clip-path="url(#peecf9bfa08)" style="fill: #0000ff"/>
   </g>
   <g id="patch_57">
    <path d="M 254.582537 196.135657 
L 262.562831 196.135657 
L 262.562831 183.682458 
L 254.582537 183.682458 
z
" clip-path="url(#peecf9bfa08)" style="fill: #0000ff"/>
   </g>
   <g id="patch_58">
    <path d="M 264.557905 206.974472 
L 272.5382 206.974472 
L 272.5382 190.122843 
L 264.557905 190.122843 
z
" clip-path="url(#peecf9bfa08)" style="fill: #0000ff"/>
   </g>
   <g id="patch_59">
    <path d="M 274.533273 186.089184 
L 282.513568 186.089184 
L 282.513568 185.504844 
L 274.533273 185.504844 
z
" clip-path="url(#peecf9bfa08)" style="fill: #0000ff"/>
   </g>
   <g id="patch_60">
    <path d="M 284.508641 189.756852 
L 292.488936 189.756852 
L 292.488936 188.664381 
L 284.508641 188.664381 
z
" clip-path="url(#peecf9bfa08)" style="fill: #0000ff"/>
   </g>
   <g id="patch_61">
    <path d="M 294.48401 204.187932 
L 302.464304 204.187932 
L 302.464304 193.749453 
L 294.48401 193.749453 
z
" clip-path="url(#peecf9bfa08)" style="fill: #0000ff"/>
   </g>
   <g id="patch_62">
    <path d="M 304.459378 206.219982 
L 312.439672 206.219982 
L 312.439672 201.58792 
L 304.459378 201.58792 
z
" clip-path="url(#peecf9bfa08)" style="fill: #0000ff"/>
   </g>
   <g id="patch_63">
    <path d="M 314.434746 206.7342 
L 322.415041 206.7342 
L 322.415041 204.372029 
L 314.434746 204.372029 
z
" clip-path="url(#peecf9bfa08)" style="fill: #0000ff"/>
   </g>
   <g id="patch_64">
    <path d="M 324.410114 201.36221 
L 332.390409 201.36221 
L 332.390409 199.676211 
L 324.410114 199.676211 
z
" clip-path="url(#peecf9bfa08)" style="fill: #0000ff"/>
   </g>
   <g id="patch_65">
    <path d="M 334.385482 197.573409 
L 342.365777 197.573409 
L 342.365777 196.632251 
L 334.385482 196.632251 
z
" clip-path="url(#peecf9bfa08)" style="fill: #0000ff"/>
   </g>
   <g id="patch_66">
    <path d="M 344.360851 200.344651 
L 352.341145 200.344651 
L 352.341145 199.760311 
L 344.360851 199.760311 
z
" clip-path="url(#peecf9bfa08)" style="fill: #0000ff"/>
   </g>
   <g id="patch_67">
    <path d="M 354.336219 205.935954 
L 362.316513 205.935954 
L 362.316513 200.67845 
L 354.336219 200.67845 
z
" clip-path="url(#peecf9bfa08)" style="fill: #0000ff"/>
   </g>
   <g id="patch_68">
    <path d="M 364.311587 207.345752 
L 372.291882 207.345752 
L 372.291882 204.946526 
L 364.311587 204.946526 
z
" clip-path="url(#peecf9bfa08)" style="fill: #0000ff"/>
   </g>
   <g id="patch_69">
    <path d="M 374.286955 202.367523 
L 382.26725 202.367523 
L 382.26725 201.286573 
L 374.286955 201.286573 
z
" clip-path="url(#peecf9bfa08)" style="fill: #0000ff"/>
   </g>
   <g id="patch_70">
    <path d="M 384.262324 199.93692 
L 392.242618 199.93692 
L 392.242618 198.912859 
L 384.262324 198.912859 
z
" clip-path="url(#peecf9bfa08)" style="fill: #0000ff"/>
   </g>
   <g id="patch_71">
    <path d="M 394.237692 207.752175 
L 402.217986 207.752175 
L 402.217986 196.545431 
L 394.237692 196.545431 
z
" clip-path="url(#peecf9bfa08)" style="fill: #0000ff"/>
   </g>
   <g id="patch_72">
    <path d="M 404.21306 199.603371 
L 412.193354 199.603371 
L 412.193354 194.853671 
L 404.21306 194.853671 
z
" clip-path="url(#peecf9bfa08)" style="fill: #0000ff"/>
   </g>
   <g id="patch_73">
    <path d="M 414.188428 204.559328 
L 422.168723 204.559328 
L 422.168723 201.938252 
L 414.188428 201.938252 
z
" clip-path="url(#peecf9bfa08)" style="fill: #0000ff"/>
   </g>
   <g id="patch_74">
    <path d="M 424.163796 203.616802 
L 432.144091 203.616802 
L 432.144091 201.566734 
L 424.163796 201.566734 
z
" clip-path="url(#peecf9bfa08)" style="fill: #0000ff"/>
   </g>
   <g id="patch_75">
    <path d="M 75.025909 182.909103 
L 83.006204 182.909103 
L 83.006204 179.612022 
L 75.025909 179.612022 
z
" clip-path="url(#peecf9bfa08)" style="fill: #bfbf00"/>
   </g>
   <g id="patch_76">
    <path d="M 85.001277 191.872427 
L 92.981572 191.872427 
L 92.981572 187.24961 
L 85.001277 187.24961 
z
" clip-path="url(#peecf9bfa08)" style="fill: #bfbf00"/>
   </g>
   <g id="patch_77">
    <path d="M 94.976646 189.036082 
L 102.95694 189.036082 
L 102.95694 184.692917 
L 94.976646 184.692917 
z
" clip-path="url(#peecf9bfa08)" style="fill: #bfbf00"/>
   </g>
   <g id="patch_78">
    <path d="M 104.952014 200.57842 
L 112.932308 200.57842 
L 112.932308 196.861938 
L 104.952014 196.861938 
z
" clip-path="url(#peecf9bfa08)" style="fill: #bfbf00"/>
   </g>
   <g id="patch_79">
    <path d="M 114.927382 217.799429 
L 122.907676 217.799429 
L 122.907676 214.369257 
L 114.927382 214.369257 
z
" clip-path="url(#peecf9bfa08)" style="fill: #bfbf00"/>
   </g>
   <g id="patch_80">
    <path d="M 124.90275 229.642743 
L 132.883045 229.642743 
L 132.883045 227.491266 
L 124.90275 227.491266 
z
" clip-path="url(#peecf9bfa08)" style="fill: #bfbf00"/>
   </g>
   <g id="patch_81">
    <path d="M 134.878118 224.289585 
L 142.858413 224.289585 
L 142.858413 221.449917 
L 134.878118 221.449917 
z
" clip-path="url(#peecf9bfa08)" style="fill: #bfbf00"/>
   </g>
   <g id="patch_82">
    <path d="M 144.853487 208.076353 
L 152.833781 208.076353 
L 152.833781 203.469321 
L 144.853487 203.469321 
z
" clip-path="url(#peecf9bfa08)" style="fill: #bfbf00"/>
   </g>
   <g id="patch_83">
    <path d="M 154.828855 206.041351 
L 162.809149 206.041351 
L 162.809149 202.116484 
L 154.828855 202.116484 
z
" clip-path="url(#peecf9bfa08)" style="fill: #bfbf00"/>
   </g>
   <g id="patch_84">
    <path d="M 164.804223 218.779818 
L 172.784518 218.779818 
L 172.784518 213.698247 
L 164.804223 213.698247 
z
" clip-path="url(#peecf9bfa08)" style="fill: #bfbf00"/>
   </g>
   <g id="patch_85">
    <path d="M 174.779591 218.204313 
L 182.759886 218.204313 
L 182.759886 212.699614 
L 174.779591 212.699614 
z
" clip-path="url(#peecf9bfa08)" style="fill: #bfbf00"/>
   </g>
   <g id="patch_86">
    <path d="M 184.754959 217.532057 
L 192.735254 217.532057 
L 192.735254 211.984432 
L 184.754959 211.984432 
z
" clip-path="url(#peecf9bfa08)" style="fill: #bfbf00"/>
   </g>
   <g id="patch_87">
    <path d="M 194.730328 215.507644 
L 202.710622 215.507644 
L 202.710622 191.496029 
L 194.730328 191.496029 
z
" clip-path="url(#peecf9bfa08)" style="fill: #bfbf00"/>
   </g>
   <g id="patch_88">
    <path d="M 204.705696 193.521034 
L 212.68599 193.521034 
L 212.68599 186.295275 
L 204.705696 186.295275 
z
" clip-path="url(#peecf9bfa08)" style="fill: #bfbf00"/>
   </g>
   <g id="patch_89">
    <path d="M 214.681064 196.139262 
L 222.661359 196.139262 
L 222.661359 180.763248 
L 214.681064 180.763248 
z
" clip-path="url(#peecf9bfa08)" style="fill: #bfbf00"/>
   </g>
   <g id="patch_90">
    <path d="M 224.656432 200.860337 
L 232.636727 200.860337 
L 232.636727 167.944541 
L 224.656432 167.944541 
z
" clip-path="url(#peecf9bfa08)" style="fill: #bfbf00"/>
   </g>
   <g id="patch_91">
    <path d="M 234.6318 167.098096 
L 242.612095 167.098096 
L 242.612095 48.656536 
L 234.6318 48.656536 
z
" clip-path="url(#peecf9bfa08)" style="fill: #bfbf00"/>
   </g>
   <g id="patch_92">
    <path d="M 244.607169 185.190281 
L 252.587463 185.190281 
L 252.587463 140.190096 
L 244.607169 140.190096 
z
" clip-path="url(#peecf9bfa08)" style="fill: #bfbf00"/>
   </g>
   <g id="patch_93">
    <path d="M 254.582537 183.682458 
L 262.562831 183.682458 
L 262.562831 137.010764 
L 254.582537 137.010764 
z
" clip-path="url(#peecf9bfa08)" style="fill: #bfbf00"/>
   </g>
   <g id="patch_94">
    <path d="M 264.557905 190.122843 
L 272.5382 190.122843 
L 272.5382 130.399198 
L 264.557905 130.399198 
z
" clip-path="url(#peecf9bfa08)" style="fill: #bfbf00"/>
   </g>
   <g id="patch_95">
    <path d="M 274.533273 185.504844 
L 282.513568 185.504844 
L 282.513568 182.026501 
L 274.533273 182.026501 
z
" clip-path="url(#peecf9bfa08)" style="fill: #bfbf00"/>
   </g>
   <g id="patch_96">
    <path d="M 284.508641 188.664381 
L 292.488936 188.664381 
L 292.488936 183.899921 
L 284.508641 183.899921 
z
" clip-path="url(#peecf9bfa08)" style="fill: #bfbf00"/>
   </g>
   <g id="patch_97">
    <path d="M 294.48401 193.749453 
L 302.464304 193.749453 
L 302.464304 159.19297 
L 294.48401 159.19297 
z
" clip-path="url(#peecf9bfa08)" style="fill: #bfbf00"/>
   </g>
   <g id="patch_98">
    <path d="M 304.459378 201.58792 
L 312.439672 201.58792 
L 312.439672 184.492995 
L 304.459378 184.492995 
z
" clip-path="url(#peecf9bfa08)" style="fill: #bfbf00"/>
   </g>
   <g id="patch_99">
    <path d="M 314.434746 204.372029 
L 322.415041 204.372029 
L 322.415041 196.491035 
L 314.434746 196.491035 
z
" clip-path="url(#peecf9bfa08)" style="fill: #bfbf00"/>
   </g>
   <g id="patch_100">
    <path d="M 324.410114 199.676211 
L 332.390409 199.676211 
L 332.390409 193.3911 
L 324.410114 193.3911 
z
" clip-path="url(#peecf9bfa08)" style="fill: #bfbf00"/>
   </g>
   <g id="patch_101">
    <path d="M 334.385482 196.632251 
L 342.365777 196.632251 
L 342.365777 192.484754 
L 334.385482 192.484754 
z
" clip-path="url(#peecf9bfa08)" style="fill: #bfbf00"/>
   </g>
   <g id="patch_102">
    <path d="M 344.360851 199.760311 
L 352.341145 199.760311 
L 352.341145 164.686973 
L 344.360851 164.686973 
z
" clip-path="url(#peecf9bfa08)" style="fill: #bfbf00"/>
   </g>
   <g id="patch_103">
    <path d="M 354.336219 200.67845 
L 362.316513 200.67845 
L 362.316513 182.772074 
L 354.336219 182.772074 
z
" clip-path="url(#peecf9bfa08)" style="fill: #bfbf00"/>
   </g>
   <g id="patch_104">
    <path d="M 364.311587 204.946526 
L 372.291882 204.946526 
L 372.291882 196.994414 
L 364.311587 196.994414 
z
" clip-path="url(#peecf9bfa08)" style="fill: #bfbf00"/>
   </g>
   <g id="patch_105">
    <path d="M 374.286955 201.286573 
L 382.26725 201.286573 
L 382.26725 196.905096 
L 374.286955 196.905096 
z
" clip-path="url(#peecf9bfa08)" style="fill: #bfbf00"/>
   </g>
   <g id="patch_106">
    <path d="M 384.262324 198.912859 
L 392.242618 198.912859 
L 392.242618 194.485504 
L 384.262324 194.485504 
z
" clip-path="url(#peecf9bfa08)" style="fill: #bfbf00"/>
   </g>
   <g id="patch_107">
    <path d="M 394.237692 196.545431 
L 402.217986 196.545431 
L 402.217986 161.883623 
L 394.237692 161.883623 
z
" clip-path="url(#peecf9bfa08)" style="fill: #bfbf00"/>
   </g>
   <g id="patch_108">
    <path d="M 404.21306 194.853671 
L 412.193354 194.853671 
L 412.193354 177.046439 
L 404.21306 177.046439 
z
" clip-path="url(#peecf9bfa08)" style="fill: #bfbf00"/>
   </g>
   <g id="patch_109">
    <path d="M 414.188428 201.938252 
L 422.168723 201.938252 
L 422.168723 193.668614 
L 414.188428 193.668614 
z
" clip-path="url(#peecf9bfa08)" style="fill: #bfbf00"/>
   </g>
   <g id="patch_110">
    <path d="M 424.163796 201.566734 
L 432.144091 201.566734 
L 432.144091 193.457671 
L 424.163796 193.457671 
z
" clip-path="url(#peecf9bfa08)" style="fill: #bfbf00"/>
   </g>
   <g id="patch_111">
    <path d="M 75.025909 179.612022 
L 83.006204 179.612022 
L 83.006204 179.029726 
L 75.025909 179.029726 
z
" clip-path="url(#peecf9bfa08)" style="fill: #008000"/>
   </g>
   <g id="patch_112">
    <path d="M 85.001277 187.24961 
L 92.981572 187.24961 
L 92.981572 186.504148 
L 85.001277 186.504148 
z
" clip-path="url(#peecf9bfa08)" style="fill: #008000"/>
   </g>
   <g id="patch_113">
    <path d="M 94.976646 184.692917 
L 102.95694 184.692917 
L 102.95694 183.946679 
L 94.976646 183.946679 
z
" clip-path="url(#peecf9bfa08)" style="fill: #008000"/>
   </g>
   <g id="patch_114">
    <path d="M 104.952014 196.861938 
L 112.932308 196.861938 
L 112.932308 196.245939 
L 104.952014 196.245939 
z
" clip-path="url(#peecf9bfa08)" style="fill: #008000"/>
   </g>
   <g id="patch_115">
    <path d="M 114.927382 214.369257 
L 122.907676 214.369257 
L 122.907676 213.794976 
L 114.927382 213.794976 
z
" clip-path="url(#peecf9bfa08)" style="fill: #008000"/>
   </g>
   <g id="patch_116">
    <path d="M 124.90275 227.491266 
L 132.883045 227.491266 
L 132.883045 227.025623 
L 124.90275 227.025623 
z
" clip-path="url(#peecf9bfa08)" style="fill: #008000"/>
   </g>
   <g id="patch_117">
    <path d="M 134.878118 221.449917 
L 142.858413 221.449917 
L 142.858413 220.918085 
L 134.878118 220.918085 
z
" clip-path="url(#peecf9bfa08)" style="fill: #008000"/>
   </g>
   <g id="patch_118">
    <path d="M 144.853487 203.469321 
L 152.833781 203.469321 
L 152.833781 202.773819 
L 144.853487 202.773819 
z
" clip-path="url(#peecf9bfa08)" style="fill: #008000"/>
   </g>
   <g id="patch_119">
    <path d="M 154.828855 202.116484 
L 162.809149 202.116484 
L 162.809149 201.46938 
L 154.828855 201.46938 
z
" clip-path="url(#peecf9bfa08)" style="fill: #008000"/>
   </g>
   <g id="patch_120">
    <path d="M 164.804223 213.698247 
L 172.784518 213.698247 
L 172.784518 213.004655 
L 164.804223 213.004655 
z
" clip-path="url(#peecf9bfa08)" style="fill: #008000"/>
   </g>
   <g id="patch_121">
    <path d="M 174.779591 212.699614 
L 182.759886 212.699614 
L 182.759886 212.023719 
L 174.779591 212.023719 
z
" clip-path="url(#peecf9bfa08)" style="fill: #008000"/>
   </g>
   <g id="patch_122">
    <path d="M 184.754959 211.984432 
L 192.735254 211.984432 
L 192.735254 211.298706 
L 184.754959 211.298706 
z
" clip-path="url(#peecf9bfa08)" style="fill: #008000"/>
   </g>
   <g id="patch_123">
    <path d="M 194.730328 191.496029 
L 202.710622 191.496029 
L 202.710622 189.032055 
L 194.730328 189.032055 
z
" clip-path="url(#peecf9bfa08)" style="fill: #008000"/>
   </g>
   <g id="patch_124">
    <path d="M 204.705696 186.295275 
L 212.68599 186.295275 
L 212.68599 185.510981 
L 204.705696 185.510981 
z
" clip-path="url(#peecf9bfa08)" style="fill: #008000"/>
   </g>
   <g id="patch_125">
    <path d="M 214.681064 180.763248 
L 222.661359 180.763248 
L 222.661359 178.984862 
L 214.681064 178.984862 
z
" clip-path="url(#peecf9bfa08)" style="fill: #008000"/>
   </g>
   <g id="patch_126">
    <path d="M 224.656432 167.944541 
L 232.636727 167.944541 
L 232.636727 164.962981 
L 224.656432 164.962981 
z
" clip-path="url(#peecf9bfa08)" style="fill: #008000"/>
   </g>
   <g id="patch_127">
    <path d="M 234.6318 48.656536 
L 242.612095 48.656536 
L 242.612095 40.059048 
L 234.6318 40.059048 
z
" clip-path="url(#peecf9bfa08)" style="fill: #008000"/>
   </g>
   <g id="patch_128">
    <path d="M 244.607169 140.190096 
L 252.587463 140.190096 
L 252.587463 136.769229 
L 244.607169 136.769229 
z
" clip-path="url(#peecf9bfa08)" style="fill: #008000"/>
   </g>
   <g id="patch_129">
    <path d="M 254.582537 137.010764 
L 262.562831 137.010764 
L 262.562831 133.31709 
L 254.582537 133.31709 
z
" clip-path="url(#peecf9bfa08)" style="fill: #008000"/>
   </g>
   <g id="patch_130">
    <path d="M 264.557905 130.399198 
L 272.5382 130.399198 
L 272.5382 125.94908 
L 264.557905 125.94908 
z
" clip-path="url(#peecf9bfa08)" style="fill: #008000"/>
   </g>
   <g id="patch_131">
    <path d="M 274.533273 182.026501 
L 282.513568 182.026501 
L 282.513568 181.451578 
L 274.533273 181.451578 
z
" clip-path="url(#peecf9bfa08)" style="fill: #008000"/>
   </g>
   <g id="patch_132">
    <path d="M 284.508641 183.899921 
L 292.488936 183.899921 
L 292.488936 183.272961 
L 284.508641 183.272961 
z
" clip-path="url(#peecf9bfa08)" style="fill: #008000"/>
   </g>
   <g id="patch_133">
    <path d="M 294.48401 159.19297 
L 302.464304 159.19297 
L 302.464304 155.563989 
L 294.48401 155.563989 
z
" clip-path="url(#peecf9bfa08)" style="fill: #008000"/>
   </g>
   <g id="patch_134">
    <path d="M 304.459378 184.492995 
L 312.439672 184.492995 
L 312.439672 182.376479 
L 304.459378 182.376479 
z
" clip-path="url(#peecf9bfa08)" style="fill: #008000"/>
   </g>
   <g id="patch_135">
    <path d="M 314.434746 196.491035 
L 322.415041 196.491035 
L 322.415041 195.714722 
L 314.434746 195.714722 
z
" clip-path="url(#peecf9bfa08)" style="fill: #008000"/>
   </g>
   <g id="patch_136">
    <path d="M 324.410114 193.3911 
L 332.390409 193.3911 
L 332.390409 192.660593 
L 324.410114 192.660593 
z
" clip-path="url(#peecf9bfa08)" style="fill: #008000"/>
   </g>
   <g id="patch_137">
    <path d="M 334.385482 192.484754 
L 342.365777 192.484754 
L 342.365777 191.863703 
L 334.385482 191.863703 
z
" clip-path="url(#peecf9bfa08)" style="fill: #008000"/>
   </g>
   <g id="patch_138">
    <path d="M 344.360851 164.686973 
L 352.341145 164.686973 
L 352.341145 149.748438 
L 344.360851 149.748438 
z
" clip-path="url(#peecf9bfa08)" style="fill: #008000"/>
   </g>
   <g id="patch_139">
    <path d="M 354.336219 182.772074 
L 362.316513 182.772074 
L 362.316513 180.802435 
L 354.336219 180.802435 
z
" clip-path="url(#peecf9bfa08)" style="fill: #008000"/>
   </g>
   <g id="patch_140">
    <path d="M 364.311587 196.994414 
L 372.291882 196.994414 
L 372.291882 196.236523 
L 364.311587 196.236523 
z
" clip-path="url(#peecf9bfa08)" style="fill: #008000"/>
   </g>
   <g id="patch_141">
    <path d="M 374.286955 196.905096 
L 382.26725 196.905096 
L 382.26725 196.267695 
L 374.286955 196.267695 
z
" clip-path="url(#peecf9bfa08)" style="fill: #008000"/>
   </g>
   <g id="patch_142">
    <path d="M 384.262324 194.485504 
L 392.242618 194.485504 
L 392.242618 193.854362 
L 384.262324 193.854362 
z
" clip-path="url(#peecf9bfa08)" style="fill: #008000"/>
   </g>
   <g id="patch_143">
    <path d="M 394.237692 161.883623 
L 402.217986 161.883623 
L 402.217986 158.760476 
L 394.237692 158.760476 
z
" clip-path="url(#peecf9bfa08)" style="fill: #008000"/>
   </g>
   <g id="patch_144">
    <path d="M 404.21306 177.046439 
L 412.193354 177.046439 
L 412.193354 174.888022 
L 404.21306 174.888022 
z
" clip-path="url(#peecf9bfa08)" style="fill: #008000"/>
   </g>
   <g id="patch_145">
    <path d="M 414.188428 193.668614 
L 422.168723 193.668614 
L 422.168723 192.83616 
L 414.188428 192.83616 
z
" clip-path="url(#peecf9bfa08)" style="fill: #008000"/>
   </g>
   <g id="patch_146">
    <path d="M 424.163796 193.457671 
L 432.144091 193.457671 
L 432.144091 192.74358 
L 424.163796 192.74358 
z
" clip-path="url(#peecf9bfa08)" style="fill: #008000"/>
   </g>
   <g id="matplotlib.axis_1">
    <g id="xtick_1">
     <g id="line2d_1">
      <defs>
       <path id="m349c150bfc" d="M 0 0 
L 0 3.5 
" style="stroke: #000000; stroke-width: 0.8"/>
      </defs>
      <g>
       <use xlink:href="#m349c150bfc" x="69.040688" y="303.64" style="stroke: #000000; stroke-width: 0.8"/>
      </g>
     </g>
     <g id="text_1">
      <!-- 0 -->
      <g transform="translate(65.859438 318.238437) scale(0.1 -0.1)">
       <defs>
        <path id="DejaVuSans-30" d="M 2034 4250 
Q 1547 4250 1301 3770 
Q 1056 3291 1056 2328 
Q 1056 1369 1301 889 
Q 1547 409 2034 409 
Q 2525 409 2770 889 
Q 3016 1369 3016 2328 
Q 3016 3291 2770 3770 
Q 2525 4250 2034 4250 
z
M 2034 4750 
Q 2819 4750 3233 4129 
Q 3647 3509 3647 2328 
Q 3647 1150 3233 529 
Q 2819 -91 2034 -91 
Q 1250 -91 836 529 
Q 422 1150 422 2328 
Q 422 3509 836 4129 
Q 1250 4750 2034 4750 
z
" transform="scale(0.015625)"/>
       </defs>
       <use xlink:href="#DejaVuSans-30"/>
      </g>
     </g>
    </g>
    <g id="xtick_2">
     <g id="line2d_2">
      <g>
       <use xlink:href="#m349c150bfc" x="118.917529" y="303.64" style="stroke: #000000; stroke-width: 0.8"/>
      </g>
     </g>
     <g id="text_2">
      <!-- 5 -->
      <g transform="translate(115.736279 318.238437) scale(0.1 -0.1)">
       <defs>
        <path id="DejaVuSans-35" d="M 691 4666 
L 3169 4666 
L 3169 4134 
L 1269 4134 
L 1269 2991 
Q 1406 3038 1543 3061 
Q 1681 3084 1819 3084 
Q 2600 3084 3056 2656 
Q 3513 2228 3513 1497 
Q 3513 744 3044 326 
Q 2575 -91 1722 -91 
Q 1428 -91 1123 -41 
Q 819 9 494 109 
L 494 744 
Q 775 591 1075 516 
Q 1375 441 1709 441 
Q 2250 441 2565 725 
Q 2881 1009 2881 1497 
Q 2881 1984 2565 2268 
Q 2250 2553 1709 2553 
Q 1456 2553 1204 2497 
Q 953 2441 691 2322 
L 691 4666 
z
" transform="scale(0.015625)"/>
       </defs>
       <use xlink:href="#DejaVuSans-35"/>
      </g>
     </g>
    </g>
    <g id="xtick_3">
     <g id="line2d_3">
      <g>
       <use xlink:href="#m349c150bfc" x="168.79437" y="303.64" style="stroke: #000000; stroke-width: 0.8"/>
      </g>
     </g>
     <g id="text_3">
      <!-- 10 -->
      <g transform="translate(162.43187 318.238437) scale(0.1 -0.1)">
       <defs>
        <path id="DejaVuSans-31" d="M 794 531 
L 1825 531 
L 1825 4091 
L 703 3866 
L 703 4441 
L 1819 4666 
L 2450 4666 
L 2450 531 
L 3481 531 
L 3481 0 
L 794 0 
L 794 531 
z
" transform="scale(0.015625)"/>
       </defs>
       <use xlink:href="#DejaVuSans-31"/>
       <use xlink:href="#DejaVuSans-30" transform="translate(63.623047 0)"/>
      </g>
     </g>
    </g>
    <g id="xtick_4">
     <g id="line2d_4">
      <g>
       <use xlink:href="#m349c150bfc" x="218.671211" y="303.64" style="stroke: #000000; stroke-width: 0.8"/>
      </g>
     </g>
     <g id="text_4">
      <!-- 15 -->
      <g transform="translate(212.308711 318.238437) scale(0.1 -0.1)">
       <use xlink:href="#DejaVuSans-31"/>
       <use xlink:href="#DejaVuSans-35" transform="translate(63.623047 0)"/>
      </g>
     </g>
    </g>
    <g id="xtick_5">
     <g id="line2d_5">
      <g>
       <use xlink:href="#m349c150bfc" x="268.548052" y="303.64" style="stroke: #000000; stroke-width: 0.8"/>
      </g>
     </g>
     <g id="text_5">
      <!-- 20 -->
      <g transform="translate(262.185552 318.238437) scale(0.1 -0.1)">
       <defs>
        <path id="DejaVuSans-32" d="M 1228 531 
L 3431 531 
L 3431 0 
L 469 0 
L 469 531 
Q 828 903 1448 1529 
Q 2069 2156 2228 2338 
Q 2531 2678 2651 2914 
Q 2772 3150 2772 3378 
Q 2772 3750 2511 3984 
Q 2250 4219 1831 4219 
Q 1534 4219 1204 4116 
Q 875 4013 500 3803 
L 500 4441 
Q 881 4594 1212 4672 
Q 1544 4750 1819 4750 
Q 2544 4750 2975 4387 
Q 3406 4025 3406 3419 
Q 3406 3131 3298 2873 
Q 3191 2616 2906 2266 
Q 2828 2175 2409 1742 
Q 1991 1309 1228 531 
z
" transform="scale(0.015625)"/>
       </defs>
       <use xlink:href="#DejaVuSans-32"/>
       <use xlink:href="#DejaVuSans-30" transform="translate(63.623047 0)"/>
      </g>
     </g>
    </g>
    <g id="xtick_6">
     <g id="line2d_6">
      <g>
       <use xlink:href="#m349c150bfc" x="318.424893" y="303.64" style="stroke: #000000; stroke-width: 0.8"/>
      </g>
     </g>
     <g id="text_6">
      <!-- 25 -->
      <g transform="translate(312.062393 318.238437) scale(0.1 -0.1)">
       <use xlink:href="#DejaVuSans-32"/>
       <use xlink:href="#DejaVuSans-35" transform="translate(63.623047 0)"/>
      </g>
     </g>
    </g>
    <g id="xtick_7">
     <g id="line2d_7">
      <g>
       <use xlink:href="#m349c150bfc" x="368.301734" y="303.64" style="stroke: #000000; stroke-width: 0.8"/>
      </g>
     </g>
     <g id="text_7">
      <!-- 30 -->
      <g transform="translate(361.939234 318.238437) scale(0.1 -0.1)">
       <defs>
        <path id="DejaVuSans-33" d="M 2597 2516 
Q 3050 2419 3304 2112 
Q 3559 1806 3559 1356 
Q 3559 666 3084 287 
Q 2609 -91 1734 -91 
Q 1441 -91 1130 -33 
Q 819 25 488 141 
L 488 750 
Q 750 597 1062 519 
Q 1375 441 1716 441 
Q 2309 441 2620 675 
Q 2931 909 2931 1356 
Q 2931 1769 2642 2001 
Q 2353 2234 1838 2234 
L 1294 2234 
L 1294 2753 
L 1863 2753 
Q 2328 2753 2575 2939 
Q 2822 3125 2822 3475 
Q 2822 3834 2567 4026 
Q 2313 4219 1838 4219 
Q 1578 4219 1281 4162 
Q 984 4106 628 3988 
L 628 4550 
Q 988 4650 1302 4700 
Q 1616 4750 1894 4750 
Q 2613 4750 3031 4423 
Q 3450 4097 3450 3541 
Q 3450 3153 3228 2886 
Q 3006 2619 2597 2516 
z
" transform="scale(0.015625)"/>
       </defs>
       <use xlink:href="#DejaVuSans-33"/>
       <use xlink:href="#DejaVuSans-30" transform="translate(63.623047 0)"/>
      </g>
     </g>
    </g>
    <g id="xtick_8">
     <g id="line2d_8">
      <g>
       <use xlink:href="#m349c150bfc" x="418.178575" y="303.64" style="stroke: #000000; stroke-width: 0.8"/>
      </g>
     </g>
     <g id="text_8">
      <!-- 35 -->
      <g transform="translate(411.816075 318.238437) scale(0.1 -0.1)">
       <use xlink:href="#DejaVuSans-33"/>
       <use xlink:href="#DejaVuSans-35" transform="translate(63.623047 0)"/>
      </g>
     </g>
    </g>
    <g id="text_9">
     <!-- Scenario Number -->
     <g transform="translate(210.173281 331.916562) scale(0.1 -0.1)">
      <defs>
       <path id="DejaVuSans-53" d="M 3425 4513 
L 3425 3897 
Q 3066 4069 2747 4153 
Q 2428 4238 2131 4238 
Q 1616 4238 1336 4038 
Q 1056 3838 1056 3469 
Q 1056 3159 1242 3001 
Q 1428 2844 1947 2747 
L 2328 2669 
Q 3034 2534 3370 2195 
Q 3706 1856 3706 1288 
Q 3706 609 3251 259 
Q 2797 -91 1919 -91 
Q 1588 -91 1214 -16 
Q 841 59 441 206 
L 441 856 
Q 825 641 1194 531 
Q 1563 422 1919 422 
Q 2459 422 2753 634 
Q 3047 847 3047 1241 
Q 3047 1584 2836 1778 
Q 2625 1972 2144 2069 
L 1759 2144 
Q 1053 2284 737 2584 
Q 422 2884 422 3419 
Q 422 4038 858 4394 
Q 1294 4750 2059 4750 
Q 2388 4750 2728 4690 
Q 3069 4631 3425 4513 
z
" transform="scale(0.015625)"/>
       <path id="DejaVuSans-63" d="M 3122 3366 
L 3122 2828 
Q 2878 2963 2633 3030 
Q 2388 3097 2138 3097 
Q 1578 3097 1268 2742 
Q 959 2388 959 1747 
Q 959 1106 1268 751 
Q 1578 397 2138 397 
Q 2388 397 2633 464 
Q 2878 531 3122 666 
L 3122 134 
Q 2881 22 2623 -34 
Q 2366 -91 2075 -91 
Q 1284 -91 818 406 
Q 353 903 353 1747 
Q 353 2603 823 3093 
Q 1294 3584 2113 3584 
Q 2378 3584 2631 3529 
Q 2884 3475 3122 3366 
z
" transform="scale(0.015625)"/>
       <path id="DejaVuSans-65" d="M 3597 1894 
L 3597 1613 
L 953 1613 
Q 991 1019 1311 708 
Q 1631 397 2203 397 
Q 2534 397 2845 478 
Q 3156 559 3463 722 
L 3463 178 
Q 3153 47 2828 -22 
Q 2503 -91 2169 -91 
Q 1331 -91 842 396 
Q 353 884 353 1716 
Q 353 2575 817 3079 
Q 1281 3584 2069 3584 
Q 2775 3584 3186 3129 
Q 3597 2675 3597 1894 
z
M 3022 2063 
Q 3016 2534 2758 2815 
Q 2500 3097 2075 3097 
Q 1594 3097 1305 2825 
Q 1016 2553 972 2059 
L 3022 2063 
z
" transform="scale(0.015625)"/>
       <path id="DejaVuSans-6e" d="M 3513 2113 
L 3513 0 
L 2938 0 
L 2938 2094 
Q 2938 2591 2744 2837 
Q 2550 3084 2163 3084 
Q 1697 3084 1428 2787 
Q 1159 2491 1159 1978 
L 1159 0 
L 581 0 
L 581 3500 
L 1159 3500 
L 1159 2956 
Q 1366 3272 1645 3428 
Q 1925 3584 2291 3584 
Q 2894 3584 3203 3211 
Q 3513 2838 3513 2113 
z
" transform="scale(0.015625)"/>
       <path id="DejaVuSans-61" d="M 2194 1759 
Q 1497 1759 1228 1600 
Q 959 1441 959 1056 
Q 959 750 1161 570 
Q 1363 391 1709 391 
Q 2188 391 2477 730 
Q 2766 1069 2766 1631 
L 2766 1759 
L 2194 1759 
z
M 3341 1997 
L 3341 0 
L 2766 0 
L 2766 531 
Q 2569 213 2275 61 
Q 1981 -91 1556 -91 
Q 1019 -91 701 211 
Q 384 513 384 1019 
Q 384 1609 779 1909 
Q 1175 2209 1959 2209 
L 2766 2209 
L 2766 2266 
Q 2766 2663 2505 2880 
Q 2244 3097 1772 3097 
Q 1472 3097 1187 3025 
Q 903 2953 641 2809 
L 641 3341 
Q 956 3463 1253 3523 
Q 1550 3584 1831 3584 
Q 2591 3584 2966 3190 
Q 3341 2797 3341 1997 
z
" transform="scale(0.015625)"/>
       <path id="DejaVuSans-72" d="M 2631 2963 
Q 2534 3019 2420 3045 
Q 2306 3072 2169 3072 
Q 1681 3072 1420 2755 
Q 1159 2438 1159 1844 
L 1159 0 
L 581 0 
L 581 3500 
L 1159 3500 
L 1159 2956 
Q 1341 3275 1631 3429 
Q 1922 3584 2338 3584 
Q 2397 3584 2469 3576 
Q 2541 3569 2628 3553 
L 2631 2963 
z
" transform="scale(0.015625)"/>
       <path id="DejaVuSans-69" d="M 603 3500 
L 1178 3500 
L 1178 0 
L 603 0 
L 603 3500 
z
M 603 4863 
L 1178 4863 
L 1178 4134 
L 603 4134 
L 603 4863 
z
" transform="scale(0.015625)"/>
       <path id="DejaVuSans-6f" d="M 1959 3097 
Q 1497 3097 1228 2736 
Q 959 2375 959 1747 
Q 959 1119 1226 758 
Q 1494 397 1959 397 
Q 2419 397 2687 759 
Q 2956 1122 2956 1747 
Q 2956 2369 2687 2733 
Q 2419 3097 1959 3097 
z
M 1959 3584 
Q 2709 3584 3137 3096 
Q 3566 2609 3566 1747 
Q 3566 888 3137 398 
Q 2709 -91 1959 -91 
Q 1206 -91 779 398 
Q 353 888 353 1747 
Q 353 2609 779 3096 
Q 1206 3584 1959 3584 
z
" transform="scale(0.015625)"/>
       <path id="DejaVuSans-20" transform="scale(0.015625)"/>
       <path id="DejaVuSans-4e" d="M 628 4666 
L 1478 4666 
L 3547 763 
L 3547 4666 
L 4159 4666 
L 4159 0 
L 3309 0 
L 1241 3903 
L 1241 0 
L 628 0 
L 628 4666 
z
" transform="scale(0.015625)"/>
       <path id="DejaVuSans-75" d="M 544 1381 
L 544 3500 
L 1119 3500 
L 1119 1403 
Q 1119 906 1312 657 
Q 1506 409 1894 409 
Q 2359 409 2629 706 
Q 2900 1003 2900 1516 
L 2900 3500 
L 3475 3500 
L 3475 0 
L 2900 0 
L 2900 538 
Q 2691 219 2414 64 
Q 2138 -91 1772 -91 
Q 1169 -91 856 284 
Q 544 659 544 1381 
z
M 1991 3584 
L 1991 3584 
z
" transform="scale(0.015625)"/>
       <path id="DejaVuSans-6d" d="M 3328 2828 
Q 3544 3216 3844 3400 
Q 4144 3584 4550 3584 
Q 5097 3584 5394 3201 
Q 5691 2819 5691 2113 
L 5691 0 
L 5113 0 
L 5113 2094 
Q 5113 2597 4934 2840 
Q 4756 3084 4391 3084 
Q 3944 3084 3684 2787 
Q 3425 2491 3425 1978 
L 3425 0 
L 2847 0 
L 2847 2094 
Q 2847 2600 2669 2842 
Q 2491 3084 2119 3084 
Q 1678 3084 1418 2786 
Q 1159 2488 1159 1978 
L 1159 0 
L 581 0 
L 581 3500 
L 1159 3500 
L 1159 2956 
Q 1356 3278 1631 3431 
Q 1906 3584 2284 3584 
Q 2666 3584 2933 3390 
Q 3200 3197 3328 2828 
z
" transform="scale(0.015625)"/>
       <path id="DejaVuSans-62" d="M 3116 1747 
Q 3116 2381 2855 2742 
Q 2594 3103 2138 3103 
Q 1681 3103 1420 2742 
Q 1159 2381 1159 1747 
Q 1159 1113 1420 752 
Q 1681 391 2138 391 
Q 2594 391 2855 752 
Q 3116 1113 3116 1747 
z
M 1159 2969 
Q 1341 3281 1617 3432 
Q 1894 3584 2278 3584 
Q 2916 3584 3314 3078 
Q 3713 2572 3713 1747 
Q 3713 922 3314 415 
Q 2916 -91 2278 -91 
Q 1894 -91 1617 61 
Q 1341 213 1159 525 
L 1159 0 
L 581 0 
L 581 4863 
L 1159 4863 
L 1159 2969 
z
" transform="scale(0.015625)"/>
      </defs>
      <use xlink:href="#DejaVuSans-53"/>
      <use xlink:href="#DejaVuSans-63" transform="translate(63.476562 0)"/>
      <use xlink:href="#DejaVuSans-65" transform="translate(118.457031 0)"/>
      <use xlink:href="#DejaVuSans-6e" transform="translate(179.980469 0)"/>
      <use xlink:href="#DejaVuSans-61" transform="translate(243.359375 0)"/>
      <use xlink:href="#DejaVuSans-72" transform="translate(304.638672 0)"/>
      <use xlink:href="#DejaVuSans-69" transform="translate(345.751953 0)"/>
      <use xlink:href="#DejaVuSans-6f" transform="translate(373.535156 0)"/>
      <use xlink:href="#DejaVuSans-20" transform="translate(434.716797 0)"/>
      <use xlink:href="#DejaVuSans-4e" transform="translate(466.503906 0)"/>
      <use xlink:href="#DejaVuSans-75" transform="translate(541.308594 0)"/>
      <use xlink:href="#DejaVuSans-6d" transform="translate(604.6875 0)"/>
      <use xlink:href="#DejaVuSans-62" transform="translate(702.099609 0)"/>
      <use xlink:href="#DejaVuSans-65" transform="translate(765.576172 0)"/>
      <use xlink:href="#DejaVuSans-72" transform="translate(827.099609 0)"/>
     </g>
    </g>
   </g>
   <g id="matplotlib.axis_2">
    <g id="ytick_1">
     <g id="line2d_9">
      <defs>
       <path id="m87ff4a1b76" d="M 0 0 
L -3.5 0 
" style="stroke: #000000; stroke-width: 0.8"/>
      </defs>
      <g>
       <use xlink:href="#m87ff4a1b76" x="57.17" y="303.64" style="stroke: #000000; stroke-width: 0.8"/>
      </g>
     </g>
     <g id="text_10">
      <!-- 0 -->
      <g transform="translate(43.8075 307.439219) scale(0.1 -0.1)">
       <use xlink:href="#DejaVuSans-30"/>
      </g>
     </g>
    </g>
    <g id="ytick_2">
     <g id="line2d_10">
      <g>
       <use xlink:href="#m87ff4a1b76" x="57.17" y="248.252376" style="stroke: #000000; stroke-width: 0.8"/>
      </g>
     </g>
     <g id="text_11">
      <!-- 1000 -->
      <g transform="translate(24.72 252.051595) scale(0.1 -0.1)">
       <use xlink:href="#DejaVuSans-31"/>
       <use xlink:href="#DejaVuSans-30" transform="translate(63.623047 0)"/>
       <use xlink:href="#DejaVuSans-30" transform="translate(127.246094 0)"/>
       <use xlink:href="#DejaVuSans-30" transform="translate(190.869141 0)"/>
      </g>
     </g>
    </g>
    <g id="ytick_3">
     <g id="line2d_11">
      <g>
       <use xlink:href="#m87ff4a1b76" x="57.17" y="192.864752" style="stroke: #000000; stroke-width: 0.8"/>
      </g>
     </g>
     <g id="text_12">
      <!-- 2000 -->
      <g transform="translate(24.72 196.66397) scale(0.1 -0.1)">
       <use xlink:href="#DejaVuSans-32"/>
       <use xlink:href="#DejaVuSans-30" transform="translate(63.623047 0)"/>
       <use xlink:href="#DejaVuSans-30" transform="translate(127.246094 0)"/>
       <use xlink:href="#DejaVuSans-30" transform="translate(190.869141 0)"/>
      </g>
     </g>
    </g>
    <g id="ytick_4">
     <g id="line2d_12">
      <g>
       <use xlink:href="#m87ff4a1b76" x="57.17" y="137.477127" style="stroke: #000000; stroke-width: 0.8"/>
      </g>
     </g>
     <g id="text_13">
      <!-- 3000 -->
      <g transform="translate(24.72 141.276346) scale(0.1 -0.1)">
       <use xlink:href="#DejaVuSans-33"/>
       <use xlink:href="#DejaVuSans-30" transform="translate(63.623047 0)"/>
       <use xlink:href="#DejaVuSans-30" transform="translate(127.246094 0)"/>
       <use xlink:href="#DejaVuSans-30" transform="translate(190.869141 0)"/>
      </g>
     </g>
    </g>
    <g id="ytick_5">
     <g id="line2d_13">
      <g>
       <use xlink:href="#m87ff4a1b76" x="57.17" y="82.089503" style="stroke: #000000; stroke-width: 0.8"/>
      </g>
     </g>
     <g id="text_14">
      <!-- 4000 -->
      <g transform="translate(24.72 85.888722) scale(0.1 -0.1)">
       <defs>
        <path id="DejaVuSans-34" d="M 2419 4116 
L 825 1625 
L 2419 1625 
L 2419 4116 
z
M 2253 4666 
L 3047 4666 
L 3047 1625 
L 3713 1625 
L 3713 1100 
L 3047 1100 
L 3047 0 
L 2419 0 
L 2419 1100 
L 313 1100 
L 313 1709 
L 2253 4666 
z
" transform="scale(0.015625)"/>
       </defs>
       <use xlink:href="#DejaVuSans-34"/>
       <use xlink:href="#DejaVuSans-30" transform="translate(63.623047 0)"/>
       <use xlink:href="#DejaVuSans-30" transform="translate(127.246094 0)"/>
       <use xlink:href="#DejaVuSans-30" transform="translate(190.869141 0)"/>
      </g>
     </g>
    </g>
    <g id="text_15">
     <!-- time [ms] -->
     <g transform="translate(18.640312 189.521719) rotate(-90) scale(0.1 -0.1)">
      <defs>
       <path id="DejaVuSans-74" d="M 1172 4494 
L 1172 3500 
L 2356 3500 
L 2356 3053 
L 1172 3053 
L 1172 1153 
Q 1172 725 1289 603 
Q 1406 481 1766 481 
L 2356 481 
L 2356 0 
L 1766 0 
Q 1100 0 847 248 
Q 594 497 594 1153 
L 594 3053 
L 172 3053 
L 172 3500 
L 594 3500 
L 594 4494 
L 1172 4494 
z
" transform="scale(0.015625)"/>
       <path id="DejaVuSans-5b" d="M 550 4863 
L 1875 4863 
L 1875 4416 
L 1125 4416 
L 1125 -397 
L 1875 -397 
L 1875 -844 
L 550 -844 
L 550 4863 
z
" transform="scale(0.015625)"/>
       <path id="DejaVuSans-73" d="M 2834 3397 
L 2834 2853 
Q 2591 2978 2328 3040 
Q 2066 3103 1784 3103 
Q 1356 3103 1142 2972 
Q 928 2841 928 2578 
Q 928 2378 1081 2264 
Q 1234 2150 1697 2047 
L 1894 2003 
Q 2506 1872 2764 1633 
Q 3022 1394 3022 966 
Q 3022 478 2636 193 
Q 2250 -91 1575 -91 
Q 1294 -91 989 -36 
Q 684 19 347 128 
L 347 722 
Q 666 556 975 473 
Q 1284 391 1588 391 
Q 1994 391 2212 530 
Q 2431 669 2431 922 
Q 2431 1156 2273 1281 
Q 2116 1406 1581 1522 
L 1381 1569 
Q 847 1681 609 1914 
Q 372 2147 372 2553 
Q 372 3047 722 3315 
Q 1072 3584 1716 3584 
Q 2034 3584 2315 3537 
Q 2597 3491 2834 3397 
z
" transform="scale(0.015625)"/>
       <path id="DejaVuSans-5d" d="M 1947 4863 
L 1947 -844 
L 622 -844 
L 622 -397 
L 1369 -397 
L 1369 4416 
L 622 4416 
L 622 4863 
L 1947 4863 
z
" transform="scale(0.015625)"/>
      </defs>
      <use xlink:href="#DejaVuSans-74"/>
      <use xlink:href="#DejaVuSans-69" transform="translate(39.208984 0)"/>
      <use xlink:href="#DejaVuSans-6d" transform="translate(66.992188 0)"/>
      <use xlink:href="#DejaVuSans-65" transform="translate(164.404297 0)"/>
      <use xlink:href="#DejaVuSans-20" transform="translate(225.927734 0)"/>
      <use xlink:href="#DejaVuSans-5b" transform="translate(257.714844 0)"/>
      <use xlink:href="#DejaVuSans-6d" transform="translate(296.728516 0)"/>
      <use xlink:href="#DejaVuSans-73" transform="translate(394.140625 0)"/>
      <use xlink:href="#DejaVuSans-5d" transform="translate(446.240234 0)"/>
     </g>
    </g>
   </g>
   <g id="patch_147">
    <path d="M 57.17 303.64 
L 57.17 26.88 
" style="fill: none; stroke: #000000; stroke-width: 0.8; stroke-linejoin: miter; stroke-linecap: square"/>
   </g>
   <g id="patch_148">
    <path d="M 450 303.64 
L 450 26.88 
" style="fill: none; stroke: #000000; stroke-width: 0.8; stroke-linejoin: miter; stroke-linecap: square"/>
   </g>
   <g id="patch_149">
    <path d="M 57.17 303.64 
L 450 303.64 
" style="fill: none; stroke: #000000; stroke-width: 0.8; stroke-linejoin: miter; stroke-linecap: square"/>
   </g>
   <g id="patch_150">
    <path d="M 57.17 26.88 
L 450 26.88 
" style="fill: none; stroke: #000000; stroke-width: 0.8; stroke-linejoin: miter; stroke-linecap: square"/>
   </g>
   <g id="text_16">
    <!-- Voxel Meshing Phases in VoxelPlugin per Scenario -->
    <g transform="translate(104.450312 20.88) scale(0.12 -0.12)">
     <defs>
      <path id="DejaVuSans-56" d="M 1831 0 
L 50 4666 
L 709 4666 
L 2188 738 
L 3669 4666 
L 4325 4666 
L 2547 0 
L 1831 0 
z
" transform="scale(0.015625)"/>
      <path id="DejaVuSans-78" d="M 3513 3500 
L 2247 1797 
L 3578 0 
L 2900 0 
L 1881 1375 
L 863 0 
L 184 0 
L 1544 1831 
L 300 3500 
L 978 3500 
L 1906 2253 
L 2834 3500 
L 3513 3500 
z
" transform="scale(0.015625)"/>
      <path id="DejaVuSans-6c" d="M 603 4863 
L 1178 4863 
L 1178 0 
L 603 0 
L 603 4863 
z
" transform="scale(0.015625)"/>
      <path id="DejaVuSans-4d" d="M 628 4666 
L 1569 4666 
L 2759 1491 
L 3956 4666 
L 4897 4666 
L 4897 0 
L 4281 0 
L 4281 4097 
L 3078 897 
L 2444 897 
L 1241 4097 
L 1241 0 
L 628 0 
L 628 4666 
z
" transform="scale(0.015625)"/>
      <path id="DejaVuSans-68" d="M 3513 2113 
L 3513 0 
L 2938 0 
L 2938 2094 
Q 2938 2591 2744 2837 
Q 2550 3084 2163 3084 
Q 1697 3084 1428 2787 
Q 1159 2491 1159 1978 
L 1159 0 
L 581 0 
L 581 4863 
L 1159 4863 
L 1159 2956 
Q 1366 3272 1645 3428 
Q 1925 3584 2291 3584 
Q 2894 3584 3203 3211 
Q 3513 2838 3513 2113 
z
" transform="scale(0.015625)"/>
      <path id="DejaVuSans-67" d="M 2906 1791 
Q 2906 2416 2648 2759 
Q 2391 3103 1925 3103 
Q 1463 3103 1205 2759 
Q 947 2416 947 1791 
Q 947 1169 1205 825 
Q 1463 481 1925 481 
Q 2391 481 2648 825 
Q 2906 1169 2906 1791 
z
M 3481 434 
Q 3481 -459 3084 -895 
Q 2688 -1331 1869 -1331 
Q 1566 -1331 1297 -1286 
Q 1028 -1241 775 -1147 
L 775 -588 
Q 1028 -725 1275 -790 
Q 1522 -856 1778 -856 
Q 2344 -856 2625 -561 
Q 2906 -266 2906 331 
L 2906 616 
Q 2728 306 2450 153 
Q 2172 0 1784 0 
Q 1141 0 747 490 
Q 353 981 353 1791 
Q 353 2603 747 3093 
Q 1141 3584 1784 3584 
Q 2172 3584 2450 3431 
Q 2728 3278 2906 2969 
L 2906 3500 
L 3481 3500 
L 3481 434 
z
" transform="scale(0.015625)"/>
      <path id="DejaVuSans-50" d="M 1259 4147 
L 1259 2394 
L 2053 2394 
Q 2494 2394 2734 2622 
Q 2975 2850 2975 3272 
Q 2975 3691 2734 3919 
Q 2494 4147 2053 4147 
L 1259 4147 
z
M 628 4666 
L 2053 4666 
Q 2838 4666 3239 4311 
Q 3641 3956 3641 3272 
Q 3641 2581 3239 2228 
Q 2838 1875 2053 1875 
L 1259 1875 
L 1259 0 
L 628 0 
L 628 4666 
z
" transform="scale(0.015625)"/>
      <path id="DejaVuSans-70" d="M 1159 525 
L 1159 -1331 
L 581 -1331 
L 581 3500 
L 1159 3500 
L 1159 2969 
Q 1341 3281 1617 3432 
Q 1894 3584 2278 3584 
Q 2916 3584 3314 3078 
Q 3713 2572 3713 1747 
Q 3713 922 3314 415 
Q 2916 -91 2278 -91 
Q 1894 -91 1617 61 
Q 1341 213 1159 525 
z
M 3116 1747 
Q 3116 2381 2855 2742 
Q 2594 3103 2138 3103 
Q 1681 3103 1420 2742 
Q 1159 2381 1159 1747 
Q 1159 1113 1420 752 
Q 1681 391 2138 391 
Q 2594 391 2855 752 
Q 3116 1113 3116 1747 
z
" transform="scale(0.015625)"/>
     </defs>
     <use xlink:href="#DejaVuSans-56"/>
     <use xlink:href="#DejaVuSans-6f" transform="translate(60.658203 0)"/>
     <use xlink:href="#DejaVuSans-78" transform="translate(118.714844 0)"/>
     <use xlink:href="#DejaVuSans-65" transform="translate(174.769531 0)"/>
     <use xlink:href="#DejaVuSans-6c" transform="translate(236.292969 0)"/>
     <use xlink:href="#DejaVuSans-20" transform="translate(264.076172 0)"/>
     <use xlink:href="#DejaVuSans-4d" transform="translate(295.863281 0)"/>
     <use xlink:href="#DejaVuSans-65" transform="translate(382.142578 0)"/>
     <use xlink:href="#DejaVuSans-73" transform="translate(443.666016 0)"/>
     <use xlink:href="#DejaVuSans-68" transform="translate(495.765625 0)"/>
     <use xlink:href="#DejaVuSans-69" transform="translate(559.144531 0)"/>
     <use xlink:href="#DejaVuSans-6e" transform="translate(586.927734 0)"/>
     <use xlink:href="#DejaVuSans-67" transform="translate(650.306641 0)"/>
     <use xlink:href="#DejaVuSans-20" transform="translate(713.783203 0)"/>
     <use xlink:href="#DejaVuSans-50" transform="translate(745.570312 0)"/>
     <use xlink:href="#DejaVuSans-68" transform="translate(805.873047 0)"/>
     <use xlink:href="#DejaVuSans-61" transform="translate(869.251953 0)"/>
     <use xlink:href="#DejaVuSans-73" transform="translate(930.53125 0)"/>
     <use xlink:href="#DejaVuSans-65" transform="translate(982.630859 0)"/>
     <use xlink:href="#DejaVuSans-73" transform="translate(1044.154297 0)"/>
     <use xlink:href="#DejaVuSans-20" transform="translate(1096.253906 0)"/>
     <use xlink:href="#DejaVuSans-69" transform="translate(1128.041016 0)"/>
     <use xlink:href="#DejaVuSans-6e" transform="translate(1155.824219 0)"/>
     <use xlink:href="#DejaVuSans-20" transform="translate(1219.203125 0)"/>
     <use xlink:href="#DejaVuSans-56" transform="translate(1250.990234 0)"/>
     <use xlink:href="#DejaVuSans-6f" transform="translate(1311.648438 0)"/>
     <use xlink:href="#DejaVuSans-78" transform="translate(1369.705078 0)"/>
     <use xlink:href="#DejaVuSans-65" transform="translate(1425.759766 0)"/>
     <use xlink:href="#DejaVuSans-6c" transform="translate(1487.283203 0)"/>
     <use xlink:href="#DejaVuSans-50" transform="translate(1515.066406 0)"/>
     <use xlink:href="#DejaVuSans-6c" transform="translate(1575.369141 0)"/>
     <use xlink:href="#DejaVuSans-75" transform="translate(1603.152344 0)"/>
     <use xlink:href="#DejaVuSans-67" transform="translate(1666.53125 0)"/>
     <use xlink:href="#DejaVuSans-69" transform="translate(1730.007812 0)"/>
     <use xlink:href="#DejaVuSans-6e" transform="translate(1757.791016 0)"/>
     <use xlink:href="#DejaVuSans-20" transform="translate(1821.169922 0)"/>
     <use xlink:href="#DejaVuSans-70" transform="translate(1852.957031 0)"/>
     <use xlink:href="#DejaVuSans-65" transform="translate(1916.433594 0)"/>
     <use xlink:href="#DejaVuSans-72" transform="translate(1977.957031 0)"/>
     <use xlink:href="#DejaVuSans-20" transform="translate(2019.070312 0)"/>
     <use xlink:href="#DejaVuSans-53" transform="translate(2050.857422 0)"/>
     <use xlink:href="#DejaVuSans-63" transform="translate(2114.333984 0)"/>
     <use xlink:href="#DejaVuSans-65" transform="translate(2169.314453 0)"/>
     <use xlink:href="#DejaVuSans-6e" transform="translate(2230.837891 0)"/>
     <use xlink:href="#DejaVuSans-61" transform="translate(2294.216797 0)"/>
     <use xlink:href="#DejaVuSans-72" transform="translate(2355.496094 0)"/>
     <use xlink:href="#DejaVuSans-69" transform="translate(2396.609375 0)"/>
     <use xlink:href="#DejaVuSans-6f" transform="translate(2424.392578 0)"/>
    </g>
   </g>
   <g id="legend_1">
    <g id="patch_151">
     <path d="M 260.220312 93.5925 
L 443 93.5925 
Q 445 93.5925 445 91.5925 
L 445 33.88 
Q 445 31.88 443 31.88 
L 260.220312 31.88 
Q 258.220312 31.88 258.220312 33.88 
L 258.220312 91.5925 
Q 258.220312 93.5925 260.220312 93.5925 
z
" style="fill: #ffffff; opacity: 0.8; stroke: #cccccc; stroke-linejoin: miter"/>
    </g>
    <g id="patch_152">
     <path d="M 262.220312 43.478437 
L 282.220312 43.478437 
L 282.220312 36.478437 
L 262.220312 36.478437 
z
" style="fill: #1f77b4"/>
    </g>
    <g id="text_17">
     <!-- Octree sampling -->
     <g transform="translate(290.220312 43.478437) scale(0.1 -0.1)">
      <defs>
       <path id="DejaVuSans-4f" d="M 2522 4238 
Q 1834 4238 1429 3725 
Q 1025 3213 1025 2328 
Q 1025 1447 1429 934 
Q 1834 422 2522 422 
Q 3209 422 3611 934 
Q 4013 1447 4013 2328 
Q 4013 3213 3611 3725 
Q 3209 4238 2522 4238 
z
M 2522 4750 
Q 3503 4750 4090 4092 
Q 4678 3434 4678 2328 
Q 4678 1225 4090 567 
Q 3503 -91 2522 -91 
Q 1538 -91 948 565 
Q 359 1222 359 2328 
Q 359 3434 948 4092 
Q 1538 4750 2522 4750 
z
" transform="scale(0.015625)"/>
      </defs>
      <use xlink:href="#DejaVuSans-4f"/>
      <use xlink:href="#DejaVuSans-63" transform="translate(78.710938 0)"/>
      <use xlink:href="#DejaVuSans-74" transform="translate(133.691406 0)"/>
      <use xlink:href="#DejaVuSans-72" transform="translate(172.900391 0)"/>
      <use xlink:href="#DejaVuSans-65" transform="translate(211.763672 0)"/>
      <use xlink:href="#DejaVuSans-65" transform="translate(273.287109 0)"/>
      <use xlink:href="#DejaVuSans-20" transform="translate(334.810547 0)"/>
      <use xlink:href="#DejaVuSans-73" transform="translate(366.597656 0)"/>
      <use xlink:href="#DejaVuSans-61" transform="translate(418.697266 0)"/>
      <use xlink:href="#DejaVuSans-6d" transform="translate(479.976562 0)"/>
      <use xlink:href="#DejaVuSans-70" transform="translate(577.388672 0)"/>
      <use xlink:href="#DejaVuSans-6c" transform="translate(640.865234 0)"/>
      <use xlink:href="#DejaVuSans-69" transform="translate(668.648438 0)"/>
      <use xlink:href="#DejaVuSans-6e" transform="translate(696.431641 0)"/>
      <use xlink:href="#DejaVuSans-67" transform="translate(759.810547 0)"/>
     </g>
    </g>
    <g id="patch_153">
     <path d="M 262.220312 58.156563 
L 282.220312 58.156563 
L 282.220312 51.156563 
L 262.220312 51.156563 
z
" style="fill: #0000ff"/>
    </g>
    <g id="text_18">
     <!-- Inserting vertices to UE Buffer -->
     <g transform="translate(290.220312 58.156563) scale(0.1 -0.1)">
      <defs>
       <path id="DejaVuSans-49" d="M 628 4666 
L 1259 4666 
L 1259 0 
L 628 0 
L 628 4666 
z
" transform="scale(0.015625)"/>
       <path id="DejaVuSans-76" d="M 191 3500 
L 800 3500 
L 1894 563 
L 2988 3500 
L 3597 3500 
L 2284 0 
L 1503 0 
L 191 3500 
z
" transform="scale(0.015625)"/>
       <path id="DejaVuSans-55" d="M 556 4666 
L 1191 4666 
L 1191 1831 
Q 1191 1081 1462 751 
Q 1734 422 2344 422 
Q 2950 422 3222 751 
Q 3494 1081 3494 1831 
L 3494 4666 
L 4128 4666 
L 4128 1753 
Q 4128 841 3676 375 
Q 3225 -91 2344 -91 
Q 1459 -91 1007 375 
Q 556 841 556 1753 
L 556 4666 
z
" transform="scale(0.015625)"/>
       <path id="DejaVuSans-45" d="M 628 4666 
L 3578 4666 
L 3578 4134 
L 1259 4134 
L 1259 2753 
L 3481 2753 
L 3481 2222 
L 1259 2222 
L 1259 531 
L 3634 531 
L 3634 0 
L 628 0 
L 628 4666 
z
" transform="scale(0.015625)"/>
       <path id="DejaVuSans-42" d="M 1259 2228 
L 1259 519 
L 2272 519 
Q 2781 519 3026 730 
Q 3272 941 3272 1375 
Q 3272 1813 3026 2020 
Q 2781 2228 2272 2228 
L 1259 2228 
z
M 1259 4147 
L 1259 2741 
L 2194 2741 
Q 2656 2741 2882 2914 
Q 3109 3088 3109 3444 
Q 3109 3797 2882 3972 
Q 2656 4147 2194 4147 
L 1259 4147 
z
M 628 4666 
L 2241 4666 
Q 2963 4666 3353 4366 
Q 3744 4066 3744 3513 
Q 3744 3084 3544 2831 
Q 3344 2578 2956 2516 
Q 3422 2416 3680 2098 
Q 3938 1781 3938 1306 
Q 3938 681 3513 340 
Q 3088 0 2303 0 
L 628 0 
L 628 4666 
z
" transform="scale(0.015625)"/>
       <path id="DejaVuSans-66" d="M 2375 4863 
L 2375 4384 
L 1825 4384 
Q 1516 4384 1395 4259 
Q 1275 4134 1275 3809 
L 1275 3500 
L 2222 3500 
L 2222 3053 
L 1275 3053 
L 1275 0 
L 697 0 
L 697 3053 
L 147 3053 
L 147 3500 
L 697 3500 
L 697 3744 
Q 697 4328 969 4595 
Q 1241 4863 1831 4863 
L 2375 4863 
z
" transform="scale(0.015625)"/>
      </defs>
      <use xlink:href="#DejaVuSans-49"/>
      <use xlink:href="#DejaVuSans-6e" transform="translate(29.492188 0)"/>
      <use xlink:href="#DejaVuSans-73" transform="translate(92.871094 0)"/>
      <use xlink:href="#DejaVuSans-65" transform="translate(144.970703 0)"/>
      <use xlink:href="#DejaVuSans-72" transform="translate(206.494141 0)"/>
      <use xlink:href="#DejaVuSans-74" transform="translate(247.607422 0)"/>
      <use xlink:href="#DejaVuSans-69" transform="translate(286.816406 0)"/>
      <use xlink:href="#DejaVuSans-6e" transform="translate(314.599609 0)"/>
      <use xlink:href="#DejaVuSans-67" transform="translate(377.978516 0)"/>
      <use xlink:href="#DejaVuSans-20" transform="translate(441.455078 0)"/>
      <use xlink:href="#DejaVuSans-76" transform="translate(473.242188 0)"/>
      <use xlink:href="#DejaVuSans-65" transform="translate(532.421875 0)"/>
      <use xlink:href="#DejaVuSans-72" transform="translate(593.945312 0)"/>
      <use xlink:href="#DejaVuSans-74" transform="translate(635.058594 0)"/>
      <use xlink:href="#DejaVuSans-69" transform="translate(674.267578 0)"/>
      <use xlink:href="#DejaVuSans-63" transform="translate(702.050781 0)"/>
      <use xlink:href="#DejaVuSans-65" transform="translate(757.03125 0)"/>
      <use xlink:href="#DejaVuSans-73" transform="translate(818.554688 0)"/>
      <use xlink:href="#DejaVuSans-20" transform="translate(870.654297 0)"/>
      <use xlink:href="#DejaVuSans-74" transform="translate(902.441406 0)"/>
      <use xlink:href="#DejaVuSans-6f" transform="translate(941.650391 0)"/>
      <use xlink:href="#DejaVuSans-20" transform="translate(1002.832031 0)"/>
      <use xlink:href="#DejaVuSans-55" transform="translate(1034.619141 0)"/>
      <use xlink:href="#DejaVuSans-45" transform="translate(1107.8125 0)"/>
      <use xlink:href="#DejaVuSans-20" transform="translate(1170.996094 0)"/>
      <use xlink:href="#DejaVuSans-42" transform="translate(1202.783203 0)"/>
      <use xlink:href="#DejaVuSans-75" transform="translate(1271.386719 0)"/>
      <use xlink:href="#DejaVuSans-66" transform="translate(1334.765625 0)"/>
      <use xlink:href="#DejaVuSans-66" transform="translate(1369.970703 0)"/>
      <use xlink:href="#DejaVuSans-65" transform="translate(1405.175781 0)"/>
      <use xlink:href="#DejaVuSans-72" transform="translate(1466.699219 0)"/>
     </g>
    </g>
    <g id="patch_154">
     <path d="M 262.220312 72.834687 
L 282.220312 72.834687 
L 282.220312 65.834687 
L 262.220312 65.834687 
z
" style="fill: #bfbf00"/>
    </g>
    <g id="text_19">
     <!-- Voxel Meshing -->
     <g transform="translate(290.220312 72.834687) scale(0.1 -0.1)">
      <use xlink:href="#DejaVuSans-56"/>
      <use xlink:href="#DejaVuSans-6f" transform="translate(60.658203 0)"/>
      <use xlink:href="#DejaVuSans-78" transform="translate(118.714844 0)"/>
      <use xlink:href="#DejaVuSans-65" transform="translate(174.769531 0)"/>
      <use xlink:href="#DejaVuSans-6c" transform="translate(236.292969 0)"/>
      <use xlink:href="#DejaVuSans-20" transform="translate(264.076172 0)"/>
      <use xlink:href="#DejaVuSans-4d" transform="translate(295.863281 0)"/>
      <use xlink:href="#DejaVuSans-65" transform="translate(382.142578 0)"/>
      <use xlink:href="#DejaVuSans-73" transform="translate(443.666016 0)"/>
      <use xlink:href="#DejaVuSans-68" transform="translate(495.765625 0)"/>
      <use xlink:href="#DejaVuSans-69" transform="translate(559.144531 0)"/>
      <use xlink:href="#DejaVuSans-6e" transform="translate(586.927734 0)"/>
      <use xlink:href="#DejaVuSans-67" transform="translate(650.306641 0)"/>
     </g>
    </g>
    <g id="patch_155">
     <path d="M 262.220312 87.512812 
L 282.220312 87.512812 
L 282.220312 80.512812 
L 262.220312 80.512812 
z
" style="fill: #008000"/>
    </g>
    <g id="text_20">
     <!-- Other timings -->
     <g transform="translate(290.220312 87.512812) scale(0.1 -0.1)">
      <use xlink:href="#DejaVuSans-4f"/>
      <use xlink:href="#DejaVuSans-74" transform="translate(78.710938 0)"/>
      <use xlink:href="#DejaVuSans-68" transform="translate(117.919922 0)"/>
      <use xlink:href="#DejaVuSans-65" transform="translate(181.298828 0)"/>
      <use xlink:href="#DejaVuSans-72" transform="translate(242.822266 0)"/>
      <use xlink:href="#DejaVuSans-20" transform="translate(283.935547 0)"/>
      <use xlink:href="#DejaVuSans-74" transform="translate(315.722656 0)"/>
      <use xlink:href="#DejaVuSans-69" transform="translate(354.931641 0)"/>
      <use xlink:href="#DejaVuSans-6d" transform="translate(382.714844 0)"/>
      <use xlink:href="#DejaVuSans-69" transform="translate(480.126953 0)"/>
      <use xlink:href="#DejaVuSans-6e" transform="translate(507.910156 0)"/>
      <use xlink:href="#DejaVuSans-67" transform="translate(571.289062 0)"/>
      <use xlink:href="#DejaVuSans-73" transform="translate(634.765625 0)"/>
     </g>
    </g>
   </g>
  </g>
 </g>
 <defs>
  <clipPath id="peecf9bfa08">
   <rect x="57.17" y="26.88" width="392.83" height="276.76"/>
  </clipPath>
 </defs>
</svg>
