<?xml version="1.0" encoding="utf-8" standalone="no"?>
<!DOCTYPE svg PUBLIC "-//W3C//DTD SVG 1.1//EN"
  "http://www.w3.org/Graphics/SVG/1.1/DTD/svg11.dtd">
<svg xmlns:xlink="http://www.w3.org/1999/xlink" width="1080pt" height="648pt" viewBox="0 0 1080 648" xmlns="http://www.w3.org/2000/svg" version="1.1">
 <metadata>
  <rdf:RDF xmlns:dc="http://purl.org/dc/elements/1.1/" xmlns:cc="http://creativecommons.org/ns#" xmlns:rdf="http://www.w3.org/1999/02/22-rdf-syntax-ns#">
   <cc:Work>
    <dc:type rdf:resource="http://purl.org/dc/dcmitype/StillImage"/>
    <dc:date>2025-05-12T00:49:05.598265</dc:date>
    <dc:format>image/svg+xml</dc:format>
    <dc:creator>
     <cc:Agent>
      <dc:title>Matplotlib v3.10.1, https://matplotlib.org/</dc:title>
     </cc:Agent>
    </dc:creator>
   </cc:Work>
  </rdf:RDF>
 </metadata>
 <defs>
  <style type="text/css">*{stroke-linejoin: round; stroke-linecap: butt}</style>
 </defs>
 <g id="figure_1">
  <g id="patch_1">
   <path d="M 0 648 
L 1080 648 
L 1080 0 
L 0 0 
z
" style="fill: #ffffff"/>
  </g>
  <g id="axes_1">
   <g id="patch_2">
    <path d="M 63.47 590.2 
L 1069.2 590.2 
L 1069.2 32.64 
L 63.47 32.64 
z
" style="fill: #ffffff"/>
   </g>
   <g id="patch_3">
    <path d="M 109.185 590.2 
L 125.306159 590.2 
L 125.306159 541.646421 
L 109.185 541.646421 
z
" clip-path="url(#p74f16e74af)" style="fill: #ff0000"/>
   </g>
   <g id="patch_4">
    <path d="M 166.760567 590.2 
L 182.881725 590.2 
L 182.881725 545.431807 
L 166.760567 545.431807 
z
" clip-path="url(#p74f16e74af)" style="fill: #ff0000"/>
   </g>
   <g id="patch_5">
    <path d="M 224.336134 590.2 
L 240.457292 590.2 
L 240.457292 544.254878 
L 224.336134 544.254878 
z
" clip-path="url(#p74f16e74af)" style="fill: #ff0000"/>
   </g>
   <g id="patch_6">
    <path d="M 281.9117 590.2 
L 298.032859 590.2 
L 298.032859 548.875995 
L 281.9117 548.875995 
z
" clip-path="url(#p74f16e74af)" style="fill: #ff0000"/>
   </g>
   <g id="patch_7">
    <path d="M 339.487267 590.2 
L 355.608426 590.2 
L 355.608426 555.74333 
L 339.487267 555.74333 
z
" clip-path="url(#p74f16e74af)" style="fill: #ff0000"/>
   </g>
   <g id="patch_8">
    <path d="M 397.062834 590.2 
L 413.183992 590.2 
L 413.183992 560.393294 
L 397.062834 560.393294 
z
" clip-path="url(#p74f16e74af)" style="fill: #ff0000"/>
   </g>
   <g id="patch_9">
    <path d="M 454.638401 590.2 
L 470.759559 590.2 
L 470.759559 558.338043 
L 454.638401 558.338043 
z
" clip-path="url(#p74f16e74af)" style="fill: #ff0000"/>
   </g>
   <g id="patch_10">
    <path d="M 512.213967 590.2 
L 528.335126 590.2 
L 528.335126 552.143383 
L 512.213967 552.143383 
z
" clip-path="url(#p74f16e74af)" style="fill: #ff0000"/>
   </g>
   <g id="patch_11">
    <path d="M 569.789534 590.2 
L 585.910693 590.2 
L 585.910693 551.130821 
L 569.789534 551.130821 
z
" clip-path="url(#p74f16e74af)" style="fill: #ff0000"/>
   </g>
   <g id="patch_12">
    <path d="M 627.365101 590.2 
L 643.486259 590.2 
L 643.486259 556.532603 
L 627.365101 556.532603 
z
" clip-path="url(#p74f16e74af)" style="fill: #ff0000"/>
   </g>
   <g id="patch_13">
    <path d="M 684.940668 590.2 
L 701.061826 590.2 
L 701.061826 556.363265 
L 684.940668 556.363265 
z
" clip-path="url(#p74f16e74af)" style="fill: #ff0000"/>
   </g>
   <g id="patch_14">
    <path d="M 742.516234 590.2 
L 758.637393 590.2 
L 758.637393 556.067255 
L 742.516234 556.067255 
z
" clip-path="url(#p74f16e74af)" style="fill: #ff0000"/>
   </g>
   <g id="patch_15">
    <path d="M 800.091801 590.2 
L 816.21296 590.2 
L 816.21296 557.525842 
L 800.091801 557.525842 
z
" clip-path="url(#p74f16e74af)" style="fill: #ff0000"/>
   </g>
   <g id="patch_16">
    <path d="M 857.667368 590.2 
L 873.788526 590.2 
L 873.788526 546.551753 
L 857.667368 546.551753 
z
" clip-path="url(#p74f16e74af)" style="fill: #ff0000"/>
   </g>
   <g id="patch_17">
    <path d="M 915.242935 590.2 
L 931.364093 590.2 
L 931.364093 548.405616 
L 915.242935 548.405616 
z
" clip-path="url(#p74f16e74af)" style="fill: #ff0000"/>
   </g>
   <g id="patch_18">
    <path d="M 972.818501 590.2 
L 988.93966 590.2 
L 988.93966 552.227531 
L 972.818501 552.227531 
z
" clip-path="url(#p74f16e74af)" style="fill: #ff0000"/>
   </g>
   <g id="patch_19">
    <path d="M 109.185 541.646421 
L 125.306159 541.646421 
L 125.306159 541.485486 
L 109.185 541.485486 
z
" clip-path="url(#p74f16e74af)" style="fill: #0000ff"/>
   </g>
   <g id="patch_20">
    <path d="M 166.760567 545.431807 
L 182.881725 545.431807 
L 182.881725 545.146193 
L 166.760567 545.146193 
z
" clip-path="url(#p74f16e74af)" style="fill: #0000ff"/>
   </g>
   <g id="patch_21">
    <path d="M 224.336134 544.254878 
L 240.457292 544.254878 
L 240.457292 543.992901 
L 224.336134 543.992901 
z
" clip-path="url(#p74f16e74af)" style="fill: #0000ff"/>
   </g>
   <g id="patch_22">
    <path d="M 281.9117 548.875995 
L 298.032859 548.875995 
L 298.032859 548.645128 
L 281.9117 548.645128 
z
" clip-path="url(#p74f16e74af)" style="fill: #0000ff"/>
   </g>
   <g id="patch_23">
    <path d="M 339.487267 555.74333 
L 355.608426 555.74333 
L 355.608426 555.57953 
L 339.487267 555.57953 
z
" clip-path="url(#p74f16e74af)" style="fill: #0000ff"/>
   </g>
   <g id="patch_24">
    <path d="M 397.062834 560.393294 
L 413.183992 560.393294 
L 413.183992 560.330727 
L 397.062834 560.330727 
z
" clip-path="url(#p74f16e74af)" style="fill: #0000ff"/>
   </g>
   <g id="patch_25">
    <path d="M 454.638401 558.338043 
L 470.759559 558.338043 
L 470.759559 558.194534 
L 454.638401 558.194534 
z
" clip-path="url(#p74f16e74af)" style="fill: #0000ff"/>
   </g>
   <g id="patch_26">
    <path d="M 512.213967 552.143383 
L 528.335126 552.143383 
L 528.335126 551.731942 
L 512.213967 551.731942 
z
" clip-path="url(#p74f16e74af)" style="fill: #0000ff"/>
   </g>
   <g id="patch_27">
    <path d="M 569.789534 551.130821 
L 585.910693 551.130821 
L 585.910693 550.863499 
L 569.789534 550.863499 
z
" clip-path="url(#p74f16e74af)" style="fill: #0000ff"/>
   </g>
   <g id="patch_28">
    <path d="M 627.365101 556.532603 
L 643.486259 556.532603 
L 643.486259 556.071394 
L 627.365101 556.071394 
z
" clip-path="url(#p74f16e74af)" style="fill: #0000ff"/>
   </g>
   <g id="patch_29">
    <path d="M 684.940668 556.363265 
L 701.061826 556.363265 
L 701.061826 555.854318 
L 684.940668 555.854318 
z
" clip-path="url(#p74f16e74af)" style="fill: #0000ff"/>
   </g>
   <g id="patch_30">
    <path d="M 742.516234 556.067255 
L 758.637393 556.067255 
L 758.637393 555.576812 
L 742.516234 555.576812 
z
" clip-path="url(#p74f16e74af)" style="fill: #0000ff"/>
   </g>
   <g id="patch_31">
    <path d="M 800.091801 557.525842 
L 816.21296 557.525842 
L 816.21296 555.313947 
L 800.091801 555.313947 
z
" clip-path="url(#p74f16e74af)" style="fill: #0000ff"/>
   </g>
   <g id="patch_32">
    <path d="M 857.667368 546.551753 
L 873.788526 546.551753 
L 873.788526 545.922779 
L 857.667368 545.922779 
z
" clip-path="url(#p74f16e74af)" style="fill: #0000ff"/>
   </g>
   <g id="patch_33">
    <path d="M 915.242935 548.405616 
L 931.364093 548.405616 
L 931.364093 547.174446 
L 915.242935 547.174446 
z
" clip-path="url(#p74f16e74af)" style="fill: #0000ff"/>
   </g>
   <g id="patch_34">
    <path d="M 972.818501 552.227531 
L 988.93966 552.227531 
L 988.93966 549.548182 
L 972.818501 549.548182 
z
" clip-path="url(#p74f16e74af)" style="fill: #0000ff"/>
   </g>
   <g id="patch_35">
    <path d="M 109.185 541.485486 
L 125.306159 541.485486 
L 125.306159 540.153708 
L 109.185 540.153708 
z
" clip-path="url(#p74f16e74af)" style="fill: #bfbf00"/>
   </g>
   <g id="patch_36">
    <path d="M 166.760567 545.146193 
L 182.881725 545.146193 
L 182.881725 543.278916 
L 166.760567 543.278916 
z
" clip-path="url(#p74f16e74af)" style="fill: #bfbf00"/>
   </g>
   <g id="patch_37">
    <path d="M 224.336134 543.992901 
L 240.457292 543.992901 
L 240.457292 542.238582 
L 224.336134 542.238582 
z
" clip-path="url(#p74f16e74af)" style="fill: #bfbf00"/>
   </g>
   <g id="patch_38">
    <path d="M 281.9117 548.645128 
L 298.032859 548.645128 
L 298.032859 547.143943 
L 281.9117 547.143943 
z
" clip-path="url(#p74f16e74af)" style="fill: #bfbf00"/>
   </g>
   <g id="patch_39">
    <path d="M 339.487267 555.57953 
L 355.608426 555.57953 
L 355.608426 554.193993 
L 339.487267 554.193993 
z
" clip-path="url(#p74f16e74af)" style="fill: #bfbf00"/>
   </g>
   <g id="patch_40">
    <path d="M 397.062834 560.330727 
L 413.183992 560.330727 
L 413.183992 559.461689 
L 397.062834 559.461689 
z
" clip-path="url(#p74f16e74af)" style="fill: #bfbf00"/>
   </g>
   <g id="patch_41">
    <path d="M 454.638401 558.194534 
L 470.759559 558.194534 
L 470.759559 557.047517 
L 454.638401 557.047517 
z
" clip-path="url(#p74f16e74af)" style="fill: #bfbf00"/>
   </g>
   <g id="patch_42">
    <path d="M 512.213967 551.731942 
L 528.335126 551.731942 
L 528.335126 549.87104 
L 512.213967 549.87104 
z
" clip-path="url(#p74f16e74af)" style="fill: #bfbf00"/>
   </g>
   <g id="patch_43">
    <path d="M 569.789534 550.863499 
L 585.910693 550.863499 
L 585.910693 549.278142 
L 569.789534 549.278142 
z
" clip-path="url(#p74f16e74af)" style="fill: #bfbf00"/>
   </g>
   <g id="patch_44">
    <path d="M 627.365101 556.071394 
L 643.486259 556.071394 
L 643.486259 554.018813 
L 627.365101 554.018813 
z
" clip-path="url(#p74f16e74af)" style="fill: #bfbf00"/>
   </g>
   <g id="patch_45">
    <path d="M 684.940668 555.854318 
L 701.061826 555.854318 
L 701.061826 553.630826 
L 684.940668 553.630826 
z
" clip-path="url(#p74f16e74af)" style="fill: #bfbf00"/>
   </g>
   <g id="patch_46">
    <path d="M 742.516234 555.576812 
L 758.637393 555.576812 
L 758.637393 553.335981 
L 742.516234 553.335981 
z
" clip-path="url(#p74f16e74af)" style="fill: #bfbf00"/>
   </g>
   <g id="patch_47">
    <path d="M 800.091801 555.313947 
L 816.21296 555.313947 
L 816.21296 545.615024 
L 800.091801 545.615024 
z
" clip-path="url(#p74f16e74af)" style="fill: #bfbf00"/>
   </g>
   <g id="patch_48">
    <path d="M 857.667368 545.922779 
L 873.788526 545.922779 
L 873.788526 543.004105 
L 857.667368 543.004105 
z
" clip-path="url(#p74f16e74af)" style="fill: #bfbf00"/>
   </g>
   <g id="patch_49">
    <path d="M 915.242935 547.174446 
L 931.364093 547.174446 
L 931.364093 540.96367 
L 915.242935 540.96367 
z
" clip-path="url(#p74f16e74af)" style="fill: #bfbf00"/>
   </g>
   <g id="patch_50">
    <path d="M 972.818501 549.548182 
L 988.93966 549.548182 
L 988.93966 536.252625 
L 972.818501 536.252625 
z
" clip-path="url(#p74f16e74af)" style="fill: #bfbf00"/>
   </g>
   <g id="patch_51">
    <path d="M 109.185 540.153708 
L 125.306159 540.153708 
L 125.306159 539.866631 
L 109.185 539.866631 
z
" clip-path="url(#p74f16e74af)" style="fill: #008000"/>
   </g>
   <g id="patch_52">
    <path d="M 166.760567 543.278916 
L 182.881725 543.278916 
L 182.881725 542.885747 
L 166.760567 542.885747 
z
" clip-path="url(#p74f16e74af)" style="fill: #008000"/>
   </g>
   <g id="patch_53">
    <path d="M 224.336134 542.238582 
L 240.457292 542.238582 
L 240.457292 541.852718 
L 224.336134 541.852718 
z
" clip-path="url(#p74f16e74af)" style="fill: #008000"/>
   </g>
   <g id="patch_54">
    <path d="M 281.9117 547.143943 
L 298.032859 547.143943 
L 298.032859 546.820713 
L 281.9117 546.820713 
z
" clip-path="url(#p74f16e74af)" style="fill: #008000"/>
   </g>
   <g id="patch_55">
    <path d="M 339.487267 554.193993 
L 355.608426 554.193993 
L 355.608426 553.909231 
L 339.487267 553.909231 
z
" clip-path="url(#p74f16e74af)" style="fill: #008000"/>
   </g>
   <g id="patch_56">
    <path d="M 397.062834 559.461689 
L 413.183992 559.461689 
L 413.183992 559.253437 
L 397.062834 559.253437 
z
" clip-path="url(#p74f16e74af)" style="fill: #008000"/>
   </g>
   <g id="patch_57">
    <path d="M 454.638401 557.047517 
L 470.759559 557.047517 
L 470.759559 556.786442 
L 454.638401 556.786442 
z
" clip-path="url(#p74f16e74af)" style="fill: #008000"/>
   </g>
   <g id="patch_58">
    <path d="M 512.213967 549.87104 
L 528.335126 549.87104 
L 528.335126 549.457495 
L 512.213967 549.457495 
z
" clip-path="url(#p74f16e74af)" style="fill: #008000"/>
   </g>
   <g id="patch_59">
    <path d="M 569.789534 549.278142 
L 585.910693 549.278142 
L 585.910693 548.930598 
L 569.789534 548.930598 
z
" clip-path="url(#p74f16e74af)" style="fill: #008000"/>
   </g>
   <g id="patch_60">
    <path d="M 627.365101 554.018813 
L 643.486259 554.018813 
L 643.486259 553.589999 
L 627.365101 553.589999 
z
" clip-path="url(#p74f16e74af)" style="fill: #008000"/>
   </g>
   <g id="patch_61">
    <path d="M 684.940668 553.630826 
L 701.061826 553.630826 
L 701.061826 553.193773 
L 684.940668 553.193773 
z
" clip-path="url(#p74f16e74af)" style="fill: #008000"/>
   </g>
   <g id="patch_62">
    <path d="M 742.516234 553.335981 
L 758.637393 553.335981 
L 758.637393 552.900921 
L 742.516234 552.900921 
z
" clip-path="url(#p74f16e74af)" style="fill: #008000"/>
   </g>
   <g id="patch_63">
    <path d="M 800.091801 545.615024 
L 816.21296 545.615024 
L 816.21296 543.906835 
L 800.091801 543.906835 
z
" clip-path="url(#p74f16e74af)" style="fill: #008000"/>
   </g>
   <g id="patch_64">
    <path d="M 857.667368 543.004105 
L 873.788526 543.004105 
L 873.788526 542.484581 
L 857.667368 542.484581 
z
" clip-path="url(#p74f16e74af)" style="fill: #008000"/>
   </g>
   <g id="patch_65">
    <path d="M 915.242935 540.96367 
L 931.364093 540.96367 
L 931.364093 539.84851 
L 915.242935 539.84851 
z
" clip-path="url(#p74f16e74af)" style="fill: #008000"/>
   </g>
   <g id="patch_66">
    <path d="M 972.818501 536.252625 
L 988.93966 536.252625 
L 988.93966 534.184703 
L 972.818501 534.184703 
z
" clip-path="url(#p74f16e74af)" style="fill: #008000"/>
   </g>
   <g id="patch_67">
    <path d="M 126.45767 590.2 
L 142.578829 590.2 
L 142.578829 548.603009 
L 126.45767 548.603009 
z
" clip-path="url(#p74f16e74af)" style="fill: #0000ff"/>
   </g>
   <g id="patch_68">
    <path d="M 184.033237 590.2 
L 200.154395 590.2 
L 200.154395 566.771571 
L 184.033237 566.771571 
z
" clip-path="url(#p74f16e74af)" style="fill: #0000ff"/>
   </g>
   <g id="patch_69">
    <path d="M 241.608804 590.2 
L 257.729962 590.2 
L 257.729962 566.383758 
L 241.608804 566.383758 
z
" clip-path="url(#p74f16e74af)" style="fill: #0000ff"/>
   </g>
   <g id="patch_70">
    <path d="M 299.18437 590.2 
L 315.305529 590.2 
L 315.305529 531.792315 
L 299.18437 531.792315 
z
" clip-path="url(#p74f16e74af)" style="fill: #0000ff"/>
   </g>
   <g id="patch_71">
    <path d="M 356.759937 590.2 
L 372.881096 590.2 
L 372.881096 508.679912 
L 356.759937 508.679912 
z
" clip-path="url(#p74f16e74af)" style="fill: #0000ff"/>
   </g>
   <g id="patch_72">
    <path d="M 414.335504 590.2 
L 430.456662 590.2 
L 430.456662 587.058189 
L 414.335504 587.058189 
z
" clip-path="url(#p74f16e74af)" style="fill: #0000ff"/>
   </g>
   <g id="patch_73">
    <path d="M 471.911071 590.2 
L 488.032229 590.2 
L 488.032229 580.295315 
L 471.911071 580.295315 
z
" clip-path="url(#p74f16e74af)" style="fill: #0000ff"/>
   </g>
   <g id="patch_74">
    <path d="M 529.486637 590.2 
L 545.607796 590.2 
L 545.607796 544.090696 
L 529.486637 544.090696 
z
" clip-path="url(#p74f16e74af)" style="fill: #0000ff"/>
   </g>
   <g id="patch_75">
    <path d="M 587.062204 590.2 
L 603.183363 590.2 
L 603.183363 531.450381 
L 587.062204 531.450381 
z
" clip-path="url(#p74f16e74af)" style="fill: #0000ff"/>
   </g>
   <g id="patch_76">
    <path d="M 644.637771 590.2 
L 660.758929 590.2 
L 660.758929 529.293584 
L 644.637771 529.293584 
z
" clip-path="url(#p74f16e74af)" style="fill: #0000ff"/>
   </g>
   <g id="patch_77">
    <path d="M 702.213338 590.2 
L 718.334496 590.2 
L 718.334496 526.093261 
L 702.213338 526.093261 
z
" clip-path="url(#p74f16e74af)" style="fill: #0000ff"/>
   </g>
   <g id="patch_78">
    <path d="M 759.788904 590.2 
L 775.910063 590.2 
L 775.910063 534.202654 
L 759.788904 534.202654 
z
" clip-path="url(#p74f16e74af)" style="fill: #0000ff"/>
   </g>
   <g id="patch_79">
    <path d="M 817.364471 590.2 
L 833.48563 590.2 
L 833.48563 310.501824 
L 817.364471 310.501824 
z
" clip-path="url(#p74f16e74af)" style="fill: #0000ff"/>
   </g>
   <g id="patch_80">
    <path d="M 874.940038 590.2 
L 891.061196 590.2 
L 891.061196 494.821413 
L 874.940038 494.821413 
z
" clip-path="url(#p74f16e74af)" style="fill: #0000ff"/>
   </g>
   <g id="patch_81">
    <path d="M 932.515605 590.2 
L 948.636763 590.2 
L 948.636763 406.251421 
L 932.515605 406.251421 
z
" clip-path="url(#p74f16e74af)" style="fill: #0000ff"/>
   </g>
   <g id="patch_82">
    <path d="M 990.091171 590.2 
L 1006.21233 590.2 
L 1006.21233 234.919574 
L 990.091171 234.919574 
z
" clip-path="url(#p74f16e74af)" style="fill: #0000ff"/>
   </g>
   <g id="patch_83">
    <path d="M 126.45767 548.603009 
L 142.578829 548.603009 
L 142.578829 547.121256 
L 126.45767 547.121256 
z
" clip-path="url(#p74f16e74af)" style="fill: #bfbf00"/>
   </g>
   <g id="patch_84">
    <path d="M 184.033237 566.771571 
L 200.154395 566.771571 
L 200.154395 565.955839 
L 184.033237 565.955839 
z
" clip-path="url(#p74f16e74af)" style="fill: #bfbf00"/>
   </g>
   <g id="patch_85">
    <path d="M 241.608804 566.383758 
L 257.729962 566.383758 
L 257.729962 565.330605 
L 241.608804 565.330605 
z
" clip-path="url(#p74f16e74af)" style="fill: #bfbf00"/>
   </g>
   <g id="patch_86">
    <path d="M 299.18437 531.792315 
L 315.305529 531.792315 
L 315.305529 529.661466 
L 299.18437 529.661466 
z
" clip-path="url(#p74f16e74af)" style="fill: #bfbf00"/>
   </g>
   <g id="patch_87">
    <path d="M 356.759937 508.679912 
L 372.881096 508.679912 
L 372.881096 505.833513 
L 356.759937 505.833513 
z
" clip-path="url(#p74f16e74af)" style="fill: #bfbf00"/>
   </g>
   <g id="patch_88">
    <path d="M 414.335504 587.058189 
L 430.456662 587.058189 
L 430.456662 586.878519 
L 414.335504 586.878519 
z
" clip-path="url(#p74f16e74af)" style="fill: #bfbf00"/>
   </g>
   <g id="patch_89">
    <path d="M 471.911071 580.295315 
L 488.032229 580.295315 
L 488.032229 579.842531 
L 471.911071 579.842531 
z
" clip-path="url(#p74f16e74af)" style="fill: #bfbf00"/>
   </g>
   <g id="patch_90">
    <path d="M 529.486637 544.090696 
L 545.607796 544.090696 
L 545.607796 542.352553 
L 529.486637 542.352553 
z
" clip-path="url(#p74f16e74af)" style="fill: #bfbf00"/>
   </g>
   <g id="patch_91">
    <path d="M 587.062204 531.450381 
L 603.183363 531.450381 
L 603.183363 529.251956 
L 587.062204 529.251956 
z
" clip-path="url(#p74f16e74af)" style="fill: #bfbf00"/>
   </g>
   <g id="patch_92">
    <path d="M 644.637771 529.293584 
L 660.758929 529.293584 
L 660.758929 527.073182 
L 644.637771 527.073182 
z
" clip-path="url(#p74f16e74af)" style="fill: #bfbf00"/>
   </g>
   <g id="patch_93">
    <path d="M 702.213338 526.093261 
L 718.334496 526.093261 
L 718.334496 523.805682 
L 702.213338 523.805682 
z
" clip-path="url(#p74f16e74af)" style="fill: #bfbf00"/>
   </g>
   <g id="patch_94">
    <path d="M 759.788904 534.202654 
L 775.910063 534.202654 
L 775.910063 531.90898 
L 759.788904 531.90898 
z
" clip-path="url(#p74f16e74af)" style="fill: #bfbf00"/>
   </g>
   <g id="patch_95">
    <path d="M 817.364471 310.501824 
L 833.48563 310.501824 
L 833.48563 300.671253 
L 817.364471 300.671253 
z
" clip-path="url(#p74f16e74af)" style="fill: #bfbf00"/>
   </g>
   <g id="patch_96">
    <path d="M 874.940038 494.821413 
L 891.061196 494.821413 
L 891.061196 490.730161 
L 874.940038 490.730161 
z
" clip-path="url(#p74f16e74af)" style="fill: #bfbf00"/>
   </g>
   <g id="patch_97">
    <path d="M 932.515605 406.251421 
L 948.636763 406.251421 
L 948.636763 400.073234 
L 932.515605 400.073234 
z
" clip-path="url(#p74f16e74af)" style="fill: #bfbf00"/>
   </g>
   <g id="patch_98">
    <path d="M 990.091171 234.919574 
L 1006.21233 234.919574 
L 1006.21233 220.116648 
L 990.091171 220.116648 
z
" clip-path="url(#p74f16e74af)" style="fill: #bfbf00"/>
   </g>
   <g id="patch_99">
    <path d="M 126.45767 547.121256 
L 142.578829 547.121256 
L 142.578829 547.008241 
L 126.45767 547.008241 
z
" clip-path="url(#p74f16e74af)" style="fill: #008000"/>
   </g>
   <g id="patch_100">
    <path d="M 184.033237 565.955839 
L 200.154395 565.955839 
L 200.154395 565.835124 
L 184.033237 565.835124 
z
" clip-path="url(#p74f16e74af)" style="fill: #008000"/>
   </g>
   <g id="patch_101">
    <path d="M 241.608804 565.330605 
L 257.729962 565.330605 
L 257.729962 565.199864 
L 241.608804 565.199864 
z
" clip-path="url(#p74f16e74af)" style="fill: #008000"/>
   </g>
   <g id="patch_102">
    <path d="M 299.18437 529.661466 
L 315.305529 529.661466 
L 315.305529 529.515525 
L 299.18437 529.515525 
z
" clip-path="url(#p74f16e74af)" style="fill: #008000"/>
   </g>
   <g id="patch_103">
    <path d="M 356.759937 505.833513 
L 372.881096 505.833513 
L 372.881096 505.325064 
L 356.759937 505.325064 
z
" clip-path="url(#p74f16e74af)" style="fill: #008000"/>
   </g>
   <g id="patch_104">
    <path d="M 414.335504 586.878519 
L 430.456662 586.878519 
L 430.456662 586.789487 
L 414.335504 586.789487 
z
" clip-path="url(#p74f16e74af)" style="fill: #008000"/>
   </g>
   <g id="patch_105">
    <path d="M 471.911071 579.842531 
L 488.032229 579.842531 
L 488.032229 579.702566 
L 471.911071 579.702566 
z
" clip-path="url(#p74f16e74af)" style="fill: #008000"/>
   </g>
   <g id="patch_106">
    <path d="M 529.486637 542.352553 
L 545.607796 542.352553 
L 545.607796 542.222213 
L 529.486637 542.222213 
z
" clip-path="url(#p74f16e74af)" style="fill: #008000"/>
   </g>
   <g id="patch_107">
    <path d="M 587.062204 529.251956 
L 603.183363 529.251956 
L 603.183363 529.125385 
L 587.062204 529.125385 
z
" clip-path="url(#p74f16e74af)" style="fill: #008000"/>
   </g>
   <g id="patch_108">
    <path d="M 644.637771 527.073182 
L 660.758929 527.073182 
L 660.758929 526.905303 
L 644.637771 526.905303 
z
" clip-path="url(#p74f16e74af)" style="fill: #008000"/>
   </g>
   <g id="patch_109">
    <path d="M 702.213338 523.805682 
L 718.334496 523.805682 
L 718.334496 523.639648 
L 702.213338 523.639648 
z
" clip-path="url(#p74f16e74af)" style="fill: #008000"/>
   </g>
   <g id="patch_110">
    <path d="M 759.788904 531.90898 
L 775.910063 531.90898 
L 775.910063 531.754817 
L 759.788904 531.754817 
z
" clip-path="url(#p74f16e74af)" style="fill: #008000"/>
   </g>
   <g id="patch_111">
    <path d="M 817.364471 300.671253 
L 833.48563 300.671253 
L 833.48563 300.529923 
L 817.364471 300.529923 
z
" clip-path="url(#p74f16e74af)" style="fill: #008000"/>
   </g>
   <g id="patch_112">
    <path d="M 874.940038 490.730161 
L 891.061196 490.730161 
L 891.061196 490.579367 
L 874.940038 490.579367 
z
" clip-path="url(#p74f16e74af)" style="fill: #008000"/>
   </g>
   <g id="patch_113">
    <path d="M 932.515605 400.073234 
L 948.636763 400.073234 
L 948.636763 399.870785 
L 932.515605 399.870785 
z
" clip-path="url(#p74f16e74af)" style="fill: #008000"/>
   </g>
   <g id="patch_114">
    <path d="M 990.091171 220.116648 
L 1006.21233 220.116648 
L 1006.21233 219.952178 
L 990.091171 219.952178 
z
" clip-path="url(#p74f16e74af)" style="fill: #008000"/>
   </g>
   <g id="patch_115">
    <path d="M 143.73034 590.2 
L 159.851499 590.2 
L 159.851499 589.734223 
L 143.73034 589.734223 
z
" clip-path="url(#p74f16e74af)" style="fill: #0000ff"/>
   </g>
   <g id="patch_116">
    <path d="M 201.305907 590.2 
L 217.427065 590.2 
L 217.427065 588.945521 
L 201.305907 588.945521 
z
" clip-path="url(#p74f16e74af)" style="fill: #0000ff"/>
   </g>
   <g id="patch_117">
    <path d="M 258.881474 590.2 
L 275.002632 590.2 
L 275.002632 589.666606 
L 258.881474 589.666606 
z
" clip-path="url(#p74f16e74af)" style="fill: #0000ff"/>
   </g>
   <g id="patch_118">
    <path d="M 316.45704 590.2 
L 332.578199 590.2 
L 332.578199 589.66813 
L 316.45704 589.66813 
z
" clip-path="url(#p74f16e74af)" style="fill: #0000ff"/>
   </g>
   <g id="patch_119">
    <path d="M 374.032607 590.2 
L 390.153766 590.2 
L 390.153766 587.935001 
L 374.032607 587.935001 
z
" clip-path="url(#p74f16e74af)" style="fill: #0000ff"/>
   </g>
   <g id="patch_120">
    <path d="M 431.608174 590.2 
L 447.729332 590.2 
L 447.729332 588.778685 
L 431.608174 588.778685 
z
" clip-path="url(#p74f16e74af)" style="fill: #0000ff"/>
   </g>
   <g id="patch_121">
    <path d="M 489.183741 590.2 
L 505.304899 590.2 
L 505.304899 586.016507 
L 489.183741 586.016507 
z
" clip-path="url(#p74f16e74af)" style="fill: #0000ff"/>
   </g>
   <g id="patch_122">
    <path d="M 546.759307 590.2 
L 562.880466 590.2 
L 562.880466 570.268711 
L 546.759307 570.268711 
z
" clip-path="url(#p74f16e74af)" style="fill: #0000ff"/>
   </g>
   <g id="patch_123">
    <path d="M 604.334874 590.2 
L 620.456033 590.2 
L 620.456033 589.188316 
L 604.334874 589.188316 
z
" clip-path="url(#p74f16e74af)" style="fill: #0000ff"/>
   </g>
   <g id="patch_124">
    <path d="M 661.910441 590.2 
L 678.031599 590.2 
L 678.031599 587.871795 
L 661.910441 587.871795 
z
" clip-path="url(#p74f16e74af)" style="fill: #0000ff"/>
   </g>
   <g id="patch_125">
    <path d="M 719.486008 590.2 
L 735.607166 590.2 
L 735.607166 586.322266 
L 719.486008 586.322266 
z
" clip-path="url(#p74f16e74af)" style="fill: #0000ff"/>
   </g>
   <g id="patch_126">
    <path d="M 777.061574 590.2 
L 793.182733 590.2 
L 793.182733 588.284875 
L 777.061574 588.284875 
z
" clip-path="url(#p74f16e74af)" style="fill: #0000ff"/>
   </g>
   <g id="patch_127">
    <path d="M 834.637141 590.2 
L 850.7583 590.2 
L 850.7583 331.191215 
L 834.637141 331.191215 
z
" clip-path="url(#p74f16e74af)" style="fill: #0000ff"/>
   </g>
   <g id="patch_128">
    <path d="M 892.212708 590.2 
L 908.333866 590.2 
L 908.333866 532.596015 
L 892.212708 532.596015 
z
" clip-path="url(#p74f16e74af)" style="fill: #0000ff"/>
   </g>
   <g id="patch_129">
    <path d="M 949.788275 590.2 
L 965.909433 590.2 
L 965.909433 494.897613 
L 949.788275 494.897613 
z
" clip-path="url(#p74f16e74af)" style="fill: #0000ff"/>
   </g>
   <g id="patch_130">
    <path d="M 1007.363841 590.2 
L 1023.485 590.2 
L 1023.485 377.376157 
L 1007.363841 377.376157 
z
" clip-path="url(#p74f16e74af)" style="fill: #0000ff"/>
   </g>
   <g id="patch_131">
    <path d="M 143.73034 589.734223 
L 159.851499 589.734223 
L 159.851499 539.932509 
L 143.73034 539.932509 
z
" clip-path="url(#p74f16e74af)" style="fill: #bfbf00"/>
   </g>
   <g id="patch_132">
    <path d="M 201.305907 588.945521 
L 217.427065 588.945521 
L 217.427065 553.84178 
L 201.305907 553.84178 
z
" clip-path="url(#p74f16e74af)" style="fill: #bfbf00"/>
   </g>
   <g id="patch_133">
    <path d="M 258.881474 589.666606 
L 275.002632 589.666606 
L 275.002632 555.103076 
L 258.881474 555.103076 
z
" clip-path="url(#p74f16e74af)" style="fill: #bfbf00"/>
   </g>
   <g id="patch_134">
    <path d="M 316.45704 589.66813 
L 332.578199 589.66813 
L 332.578199 555.066982 
L 316.45704 555.066982 
z
" clip-path="url(#p74f16e74af)" style="fill: #bfbf00"/>
   </g>
   <g id="patch_135">
    <path d="M 374.032607 587.935001 
L 390.153766 587.935001 
L 390.153766 529.103969 
L 374.032607 529.103969 
z
" clip-path="url(#p74f16e74af)" style="fill: #bfbf00"/>
   </g>
   <g id="patch_136">
    <path d="M 431.608174 588.778685 
L 447.729332 588.778685 
L 447.729332 577.334777 
L 431.608174 577.334777 
z
" clip-path="url(#p74f16e74af)" style="fill: #bfbf00"/>
   </g>
   <g id="patch_137">
    <path d="M 489.183741 586.016507 
L 505.304899 586.016507 
L 505.304899 572.940132 
L 489.183741 572.940132 
z
" clip-path="url(#p74f16e74af)" style="fill: #bfbf00"/>
   </g>
   <g id="patch_138">
    <path d="M 546.759307 570.268711 
L 562.880466 570.268711 
L 562.880466 535.181813 
L 546.759307 535.181813 
z
" clip-path="url(#p74f16e74af)" style="fill: #bfbf00"/>
   </g>
   <g id="patch_139">
    <path d="M 604.334874 589.188316 
L 620.456033 589.188316 
L 620.456033 562.8567 
L 604.334874 562.8567 
z
" clip-path="url(#p74f16e74af)" style="fill: #bfbf00"/>
   </g>
   <g id="patch_140">
    <path d="M 661.910441 587.871795 
L 678.031599 587.871795 
L 678.031599 563.703152 
L 661.910441 563.703152 
z
" clip-path="url(#p74f16e74af)" style="fill: #bfbf00"/>
   </g>
   <g id="patch_141">
    <path d="M 719.486008 586.322266 
L 735.607166 586.322266 
L 735.607166 567.625403 
L 719.486008 567.625403 
z
" clip-path="url(#p74f16e74af)" style="fill: #bfbf00"/>
   </g>
   <g id="patch_142">
    <path d="M 777.061574 588.284875 
L 793.182733 588.284875 
L 793.182733 566.754527 
L 777.061574 566.754527 
z
" clip-path="url(#p74f16e74af)" style="fill: #bfbf00"/>
   </g>
   <g id="patch_143">
    <path d="M 834.637141 331.191215 
L 850.7583 331.191215 
L 850.7583 299.907136 
L 834.637141 299.907136 
z
" clip-path="url(#p74f16e74af)" style="fill: #bfbf00"/>
   </g>
   <g id="patch_144">
    <path d="M 892.212708 532.596015 
L 908.333866 532.596015 
L 908.333866 479.191044 
L 892.212708 479.191044 
z
" clip-path="url(#p74f16e74af)" style="fill: #bfbf00"/>
   </g>
   <g id="patch_145">
    <path d="M 949.788275 494.897613 
L 965.909433 494.897613 
L 965.909433 447.084175 
L 949.788275 447.084175 
z
" clip-path="url(#p74f16e74af)" style="fill: #bfbf00"/>
   </g>
   <g id="patch_146">
    <path d="M 1007.363841 377.376157 
L 1023.485 377.376157 
L 1023.485 324.63091 
L 1007.363841 324.63091 
z
" clip-path="url(#p74f16e74af)" style="fill: #bfbf00"/>
   </g>
   <g id="patch_147">
    <path d="M 143.73034 539.932509 
L 159.851499 539.932509 
L 159.851499 539.788292 
L 143.73034 539.788292 
z
" clip-path="url(#p74f16e74af)" style="fill: #008000"/>
   </g>
   <g id="patch_148">
    <path d="M 201.305907 553.84178 
L 217.427065 553.84178 
L 217.427065 553.665319 
L 201.305907 553.665319 
z
" clip-path="url(#p74f16e74af)" style="fill: #008000"/>
   </g>
   <g id="patch_149">
    <path d="M 258.881474 555.103076 
L 275.002632 555.103076 
L 275.002632 554.907766 
L 258.881474 554.907766 
z
" clip-path="url(#p74f16e74af)" style="fill: #008000"/>
   </g>
   <g id="patch_150">
    <path d="M 316.45704 555.066982 
L 332.578199 555.066982 
L 332.578199 554.884705 
L 316.45704 554.884705 
z
" clip-path="url(#p74f16e74af)" style="fill: #008000"/>
   </g>
   <g id="patch_151">
    <path d="M 374.032607 529.103969 
L 390.153766 529.103969 
L 390.153766 528.630291 
L 374.032607 528.630291 
z
" clip-path="url(#p74f16e74af)" style="fill: #008000"/>
   </g>
   <g id="patch_152">
    <path d="M 431.608174 577.334777 
L 447.729332 577.334777 
L 447.729332 577.14067 
L 431.608174 577.14067 
z
" clip-path="url(#p74f16e74af)" style="fill: #008000"/>
   </g>
   <g id="patch_153">
    <path d="M 489.183741 572.940132 
L 505.304899 572.940132 
L 505.304899 572.409586 
L 489.183741 572.409586 
z
" clip-path="url(#p74f16e74af)" style="fill: #008000"/>
   </g>
   <g id="patch_154">
    <path d="M 546.759307 535.181813 
L 562.880466 535.181813 
L 562.880466 531.275203 
L 546.759307 531.275203 
z
" clip-path="url(#p74f16e74af)" style="fill: #008000"/>
   </g>
   <g id="patch_155">
    <path d="M 604.334874 562.8567 
L 620.456033 562.8567 
L 620.456033 562.571595 
L 604.334874 562.571595 
z
" clip-path="url(#p74f16e74af)" style="fill: #008000"/>
   </g>
   <g id="patch_156">
    <path d="M 661.910441 563.703152 
L 678.031599 563.703152 
L 678.031599 562.899171 
L 661.910441 562.899171 
z
" clip-path="url(#p74f16e74af)" style="fill: #008000"/>
   </g>
   <g id="patch_157">
    <path d="M 719.486008 567.625403 
L 735.607166 567.625403 
L 735.607166 566.279084 
L 719.486008 566.279084 
z
" clip-path="url(#p74f16e74af)" style="fill: #008000"/>
   </g>
   <g id="patch_158">
    <path d="M 777.061574 566.754527 
L 793.182733 566.754527 
L 793.182733 566.092276 
L 777.061574 566.092276 
z
" clip-path="url(#p74f16e74af)" style="fill: #008000"/>
   </g>
   <g id="patch_159">
    <path d="M 834.637141 299.907136 
L 850.7583 299.907136 
L 850.7583 72.521877 
L 834.637141 72.521877 
z
" clip-path="url(#p74f16e74af)" style="fill: #008000"/>
   </g>
   <g id="patch_160">
    <path d="M 892.212708 479.191044 
L 908.333866 479.191044 
L 908.333866 461.911365 
L 892.212708 461.911365 
z
" clip-path="url(#p74f16e74af)" style="fill: #008000"/>
   </g>
   <g id="patch_161">
    <path d="M 949.788275 447.084175 
L 965.909433 447.084175 
L 965.909433 387.067565 
L 949.788275 387.067565 
z
" clip-path="url(#p74f16e74af)" style="fill: #008000"/>
   </g>
   <g id="patch_162">
    <path d="M 1007.363841 324.63091 
L 1023.485 324.63091 
L 1023.485 59.190476 
L 1007.363841 59.190476 
z
" clip-path="url(#p74f16e74af)" style="fill: #008000"/>
   </g>
   <g id="matplotlib.axis_1">
    <g id="xtick_1">
     <g id="line2d_1">
      <defs>
       <path id="m9e7b30aad8" d="M 0 0 
L 0 3.5 
" style="stroke: #000000; stroke-width: 0.8"/>
      </defs>
      <g>
       <use xlink:href="#m9e7b30aad8" x="134.518249" y="590.2" style="stroke: #000000; stroke-width: 0.8"/>
      </g>
     </g>
     <g id="text_1">
      <!-- 1 -->
      <g transform="translate(128.791999 610.877187) scale(0.18 -0.18)">
       <defs>
        <path id="DejaVuSans-31" d="M 794 531 
L 1825 531 
L 1825 4091 
L 703 3866 
L 703 4441 
L 1819 4666 
L 2450 4666 
L 2450 531 
L 3481 531 
L 3481 0 
L 794 0 
L 794 531 
z
" transform="scale(0.015625)"/>
       </defs>
       <use xlink:href="#DejaVuSans-31"/>
      </g>
     </g>
    </g>
    <g id="xtick_2">
     <g id="line2d_2">
      <g>
       <use xlink:href="#m9e7b30aad8" x="192.093816" y="590.2" style="stroke: #000000; stroke-width: 0.8"/>
      </g>
     </g>
     <g id="text_2">
      <!-- 2 -->
      <g transform="translate(186.367566 610.877187) scale(0.18 -0.18)">
       <defs>
        <path id="DejaVuSans-32" d="M 1228 531 
L 3431 531 
L 3431 0 
L 469 0 
L 469 531 
Q 828 903 1448 1529 
Q 2069 2156 2228 2338 
Q 2531 2678 2651 2914 
Q 2772 3150 2772 3378 
Q 2772 3750 2511 3984 
Q 2250 4219 1831 4219 
Q 1534 4219 1204 4116 
Q 875 4013 500 3803 
L 500 4441 
Q 881 4594 1212 4672 
Q 1544 4750 1819 4750 
Q 2544 4750 2975 4387 
Q 3406 4025 3406 3419 
Q 3406 3131 3298 2873 
Q 3191 2616 2906 2266 
Q 2828 2175 2409 1742 
Q 1991 1309 1228 531 
z
" transform="scale(0.015625)"/>
       </defs>
       <use xlink:href="#DejaVuSans-32"/>
      </g>
     </g>
    </g>
    <g id="xtick_3">
     <g id="line2d_3">
      <g>
       <use xlink:href="#m9e7b30aad8" x="249.669383" y="590.2" style="stroke: #000000; stroke-width: 0.8"/>
      </g>
     </g>
     <g id="text_3">
      <!-- 3 -->
      <g transform="translate(243.943133 610.877187) scale(0.18 -0.18)">
       <defs>
        <path id="DejaVuSans-33" d="M 2597 2516 
Q 3050 2419 3304 2112 
Q 3559 1806 3559 1356 
Q 3559 666 3084 287 
Q 2609 -91 1734 -91 
Q 1441 -91 1130 -33 
Q 819 25 488 141 
L 488 750 
Q 750 597 1062 519 
Q 1375 441 1716 441 
Q 2309 441 2620 675 
Q 2931 909 2931 1356 
Q 2931 1769 2642 2001 
Q 2353 2234 1838 2234 
L 1294 2234 
L 1294 2753 
L 1863 2753 
Q 2328 2753 2575 2939 
Q 2822 3125 2822 3475 
Q 2822 3834 2567 4026 
Q 2313 4219 1838 4219 
Q 1578 4219 1281 4162 
Q 984 4106 628 3988 
L 628 4550 
Q 988 4650 1302 4700 
Q 1616 4750 1894 4750 
Q 2613 4750 3031 4423 
Q 3450 4097 3450 3541 
Q 3450 3153 3228 2886 
Q 3006 2619 2597 2516 
z
" transform="scale(0.015625)"/>
       </defs>
       <use xlink:href="#DejaVuSans-33"/>
      </g>
     </g>
    </g>
    <g id="xtick_4">
     <g id="line2d_4">
      <g>
       <use xlink:href="#m9e7b30aad8" x="307.24495" y="590.2" style="stroke: #000000; stroke-width: 0.8"/>
      </g>
     </g>
     <g id="text_4">
      <!-- 4 -->
      <g transform="translate(301.5187 610.877187) scale(0.18 -0.18)">
       <defs>
        <path id="DejaVuSans-34" d="M 2419 4116 
L 825 1625 
L 2419 1625 
L 2419 4116 
z
M 2253 4666 
L 3047 4666 
L 3047 1625 
L 3713 1625 
L 3713 1100 
L 3047 1100 
L 3047 0 
L 2419 0 
L 2419 1100 
L 313 1100 
L 313 1709 
L 2253 4666 
z
" transform="scale(0.015625)"/>
       </defs>
       <use xlink:href="#DejaVuSans-34"/>
      </g>
     </g>
    </g>
    <g id="xtick_5">
     <g id="line2d_5">
      <g>
       <use xlink:href="#m9e7b30aad8" x="364.820516" y="590.2" style="stroke: #000000; stroke-width: 0.8"/>
      </g>
     </g>
     <g id="text_5">
      <!-- 5 -->
      <g transform="translate(359.094266 610.877187) scale(0.18 -0.18)">
       <defs>
        <path id="DejaVuSans-35" d="M 691 4666 
L 3169 4666 
L 3169 4134 
L 1269 4134 
L 1269 2991 
Q 1406 3038 1543 3061 
Q 1681 3084 1819 3084 
Q 2600 3084 3056 2656 
Q 3513 2228 3513 1497 
Q 3513 744 3044 326 
Q 2575 -91 1722 -91 
Q 1428 -91 1123 -41 
Q 819 9 494 109 
L 494 744 
Q 775 591 1075 516 
Q 1375 441 1709 441 
Q 2250 441 2565 725 
Q 2881 1009 2881 1497 
Q 2881 1984 2565 2268 
Q 2250 2553 1709 2553 
Q 1456 2553 1204 2497 
Q 953 2441 691 2322 
L 691 4666 
z
" transform="scale(0.015625)"/>
       </defs>
       <use xlink:href="#DejaVuSans-35"/>
      </g>
     </g>
    </g>
    <g id="xtick_6">
     <g id="line2d_6">
      <g>
       <use xlink:href="#m9e7b30aad8" x="422.396083" y="590.2" style="stroke: #000000; stroke-width: 0.8"/>
      </g>
     </g>
     <g id="text_6">
      <!-- 6 -->
      <g transform="translate(416.669833 610.877187) scale(0.18 -0.18)">
       <defs>
        <path id="DejaVuSans-36" d="M 2113 2584 
Q 1688 2584 1439 2293 
Q 1191 2003 1191 1497 
Q 1191 994 1439 701 
Q 1688 409 2113 409 
Q 2538 409 2786 701 
Q 3034 994 3034 1497 
Q 3034 2003 2786 2293 
Q 2538 2584 2113 2584 
z
M 3366 4563 
L 3366 3988 
Q 3128 4100 2886 4159 
Q 2644 4219 2406 4219 
Q 1781 4219 1451 3797 
Q 1122 3375 1075 2522 
Q 1259 2794 1537 2939 
Q 1816 3084 2150 3084 
Q 2853 3084 3261 2657 
Q 3669 2231 3669 1497 
Q 3669 778 3244 343 
Q 2819 -91 2113 -91 
Q 1303 -91 875 529 
Q 447 1150 447 2328 
Q 447 3434 972 4092 
Q 1497 4750 2381 4750 
Q 2619 4750 2861 4703 
Q 3103 4656 3366 4563 
z
" transform="scale(0.015625)"/>
       </defs>
       <use xlink:href="#DejaVuSans-36"/>
      </g>
     </g>
    </g>
    <g id="xtick_7">
     <g id="line2d_7">
      <g>
       <use xlink:href="#m9e7b30aad8" x="479.97165" y="590.2" style="stroke: #000000; stroke-width: 0.8"/>
      </g>
     </g>
     <g id="text_7">
      <!-- 7 -->
      <g transform="translate(474.2454 610.877187) scale(0.18 -0.18)">
       <defs>
        <path id="DejaVuSans-37" d="M 525 4666 
L 3525 4666 
L 3525 4397 
L 1831 0 
L 1172 0 
L 2766 4134 
L 525 4134 
L 525 4666 
z
" transform="scale(0.015625)"/>
       </defs>
       <use xlink:href="#DejaVuSans-37"/>
      </g>
     </g>
    </g>
    <g id="xtick_8">
     <g id="line2d_8">
      <g>
       <use xlink:href="#m9e7b30aad8" x="537.547217" y="590.2" style="stroke: #000000; stroke-width: 0.8"/>
      </g>
     </g>
     <g id="text_8">
      <!-- 8 -->
      <g transform="translate(531.820967 610.877187) scale(0.18 -0.18)">
       <defs>
        <path id="DejaVuSans-38" d="M 2034 2216 
Q 1584 2216 1326 1975 
Q 1069 1734 1069 1313 
Q 1069 891 1326 650 
Q 1584 409 2034 409 
Q 2484 409 2743 651 
Q 3003 894 3003 1313 
Q 3003 1734 2745 1975 
Q 2488 2216 2034 2216 
z
M 1403 2484 
Q 997 2584 770 2862 
Q 544 3141 544 3541 
Q 544 4100 942 4425 
Q 1341 4750 2034 4750 
Q 2731 4750 3128 4425 
Q 3525 4100 3525 3541 
Q 3525 3141 3298 2862 
Q 3072 2584 2669 2484 
Q 3125 2378 3379 2068 
Q 3634 1759 3634 1313 
Q 3634 634 3220 271 
Q 2806 -91 2034 -91 
Q 1263 -91 848 271 
Q 434 634 434 1313 
Q 434 1759 690 2068 
Q 947 2378 1403 2484 
z
M 1172 3481 
Q 1172 3119 1398 2916 
Q 1625 2713 2034 2713 
Q 2441 2713 2670 2916 
Q 2900 3119 2900 3481 
Q 2900 3844 2670 4047 
Q 2441 4250 2034 4250 
Q 1625 4250 1398 4047 
Q 1172 3844 1172 3481 
z
" transform="scale(0.015625)"/>
       </defs>
       <use xlink:href="#DejaVuSans-38"/>
      </g>
     </g>
    </g>
    <g id="xtick_9">
     <g id="line2d_9">
      <g>
       <use xlink:href="#m9e7b30aad8" x="595.122783" y="590.2" style="stroke: #000000; stroke-width: 0.8"/>
      </g>
     </g>
     <g id="text_9">
      <!-- 9 -->
      <g transform="translate(589.396533 610.877187) scale(0.18 -0.18)">
       <defs>
        <path id="DejaVuSans-39" d="M 703 97 
L 703 672 
Q 941 559 1184 500 
Q 1428 441 1663 441 
Q 2288 441 2617 861 
Q 2947 1281 2994 2138 
Q 2813 1869 2534 1725 
Q 2256 1581 1919 1581 
Q 1219 1581 811 2004 
Q 403 2428 403 3163 
Q 403 3881 828 4315 
Q 1253 4750 1959 4750 
Q 2769 4750 3195 4129 
Q 3622 3509 3622 2328 
Q 3622 1225 3098 567 
Q 2575 -91 1691 -91 
Q 1453 -91 1209 -44 
Q 966 3 703 97 
z
M 1959 2075 
Q 2384 2075 2632 2365 
Q 2881 2656 2881 3163 
Q 2881 3666 2632 3958 
Q 2384 4250 1959 4250 
Q 1534 4250 1286 3958 
Q 1038 3666 1038 3163 
Q 1038 2656 1286 2365 
Q 1534 2075 1959 2075 
z
" transform="scale(0.015625)"/>
       </defs>
       <use xlink:href="#DejaVuSans-39"/>
      </g>
     </g>
    </g>
    <g id="xtick_10">
     <g id="line2d_10">
      <g>
       <use xlink:href="#m9e7b30aad8" x="652.69835" y="590.2" style="stroke: #000000; stroke-width: 0.8"/>
      </g>
     </g>
     <g id="text_10">
      <!-- 10 -->
      <g transform="translate(641.24585 610.877187) scale(0.18 -0.18)">
       <defs>
        <path id="DejaVuSans-30" d="M 2034 4250 
Q 1547 4250 1301 3770 
Q 1056 3291 1056 2328 
Q 1056 1369 1301 889 
Q 1547 409 2034 409 
Q 2525 409 2770 889 
Q 3016 1369 3016 2328 
Q 3016 3291 2770 3770 
Q 2525 4250 2034 4250 
z
M 2034 4750 
Q 2819 4750 3233 4129 
Q 3647 3509 3647 2328 
Q 3647 1150 3233 529 
Q 2819 -91 2034 -91 
Q 1250 -91 836 529 
Q 422 1150 422 2328 
Q 422 3509 836 4129 
Q 1250 4750 2034 4750 
z
" transform="scale(0.015625)"/>
       </defs>
       <use xlink:href="#DejaVuSans-31"/>
       <use xlink:href="#DejaVuSans-30" transform="translate(63.623047 0)"/>
      </g>
     </g>
    </g>
    <g id="xtick_11">
     <g id="line2d_11">
      <g>
       <use xlink:href="#m9e7b30aad8" x="710.273917" y="590.2" style="stroke: #000000; stroke-width: 0.8"/>
      </g>
     </g>
     <g id="text_11">
      <!-- 11 -->
      <g transform="translate(698.821417 610.877187) scale(0.18 -0.18)">
       <use xlink:href="#DejaVuSans-31"/>
       <use xlink:href="#DejaVuSans-31" transform="translate(63.623047 0)"/>
      </g>
     </g>
    </g>
    <g id="xtick_12">
     <g id="line2d_12">
      <g>
       <use xlink:href="#m9e7b30aad8" x="767.849484" y="590.2" style="stroke: #000000; stroke-width: 0.8"/>
      </g>
     </g>
     <g id="text_12">
      <!-- 12 -->
      <g transform="translate(756.396984 610.877187) scale(0.18 -0.18)">
       <use xlink:href="#DejaVuSans-31"/>
       <use xlink:href="#DejaVuSans-32" transform="translate(63.623047 0)"/>
      </g>
     </g>
    </g>
    <g id="xtick_13">
     <g id="line2d_13">
      <g>
       <use xlink:href="#m9e7b30aad8" x="825.42505" y="590.2" style="stroke: #000000; stroke-width: 0.8"/>
      </g>
     </g>
     <g id="text_13">
      <!-- 13 -->
      <g transform="translate(813.97255 610.877187) scale(0.18 -0.18)">
       <use xlink:href="#DejaVuSans-31"/>
       <use xlink:href="#DejaVuSans-33" transform="translate(63.623047 0)"/>
      </g>
     </g>
    </g>
    <g id="xtick_14">
     <g id="line2d_14">
      <g>
       <use xlink:href="#m9e7b30aad8" x="883.000617" y="590.2" style="stroke: #000000; stroke-width: 0.8"/>
      </g>
     </g>
     <g id="text_14">
      <!-- 14 -->
      <g transform="translate(871.548117 610.877187) scale(0.18 -0.18)">
       <use xlink:href="#DejaVuSans-31"/>
       <use xlink:href="#DejaVuSans-34" transform="translate(63.623047 0)"/>
      </g>
     </g>
    </g>
    <g id="xtick_15">
     <g id="line2d_15">
      <g>
       <use xlink:href="#m9e7b30aad8" x="940.576184" y="590.2" style="stroke: #000000; stroke-width: 0.8"/>
      </g>
     </g>
     <g id="text_15">
      <!-- 15 -->
      <g transform="translate(929.123684 610.877187) scale(0.18 -0.18)">
       <use xlink:href="#DejaVuSans-31"/>
       <use xlink:href="#DejaVuSans-35" transform="translate(63.623047 0)"/>
      </g>
     </g>
    </g>
    <g id="xtick_16">
     <g id="line2d_16">
      <g>
       <use xlink:href="#m9e7b30aad8" x="998.151751" y="590.2" style="stroke: #000000; stroke-width: 0.8"/>
      </g>
     </g>
     <g id="text_16">
      <!-- 16 -->
      <g transform="translate(986.699251 610.877187) scale(0.18 -0.18)">
       <use xlink:href="#DejaVuSans-31"/>
       <use xlink:href="#DejaVuSans-36" transform="translate(63.623047 0)"/>
      </g>
     </g>
    </g>
    <g id="text_17">
     <!-- Scenario Number -->
     <g transform="translate(483.852734 633.057656) scale(0.19 -0.19)">
      <defs>
       <path id="DejaVuSans-53" d="M 3425 4513 
L 3425 3897 
Q 3066 4069 2747 4153 
Q 2428 4238 2131 4238 
Q 1616 4238 1336 4038 
Q 1056 3838 1056 3469 
Q 1056 3159 1242 3001 
Q 1428 2844 1947 2747 
L 2328 2669 
Q 3034 2534 3370 2195 
Q 3706 1856 3706 1288 
Q 3706 609 3251 259 
Q 2797 -91 1919 -91 
Q 1588 -91 1214 -16 
Q 841 59 441 206 
L 441 856 
Q 825 641 1194 531 
Q 1563 422 1919 422 
Q 2459 422 2753 634 
Q 3047 847 3047 1241 
Q 3047 1584 2836 1778 
Q 2625 1972 2144 2069 
L 1759 2144 
Q 1053 2284 737 2584 
Q 422 2884 422 3419 
Q 422 4038 858 4394 
Q 1294 4750 2059 4750 
Q 2388 4750 2728 4690 
Q 3069 4631 3425 4513 
z
" transform="scale(0.015625)"/>
       <path id="DejaVuSans-63" d="M 3122 3366 
L 3122 2828 
Q 2878 2963 2633 3030 
Q 2388 3097 2138 3097 
Q 1578 3097 1268 2742 
Q 959 2388 959 1747 
Q 959 1106 1268 751 
Q 1578 397 2138 397 
Q 2388 397 2633 464 
Q 2878 531 3122 666 
L 3122 134 
Q 2881 22 2623 -34 
Q 2366 -91 2075 -91 
Q 1284 -91 818 406 
Q 353 903 353 1747 
Q 353 2603 823 3093 
Q 1294 3584 2113 3584 
Q 2378 3584 2631 3529 
Q 2884 3475 3122 3366 
z
" transform="scale(0.015625)"/>
       <path id="DejaVuSans-65" d="M 3597 1894 
L 3597 1613 
L 953 1613 
Q 991 1019 1311 708 
Q 1631 397 2203 397 
Q 2534 397 2845 478 
Q 3156 559 3463 722 
L 3463 178 
Q 3153 47 2828 -22 
Q 2503 -91 2169 -91 
Q 1331 -91 842 396 
Q 353 884 353 1716 
Q 353 2575 817 3079 
Q 1281 3584 2069 3584 
Q 2775 3584 3186 3129 
Q 3597 2675 3597 1894 
z
M 3022 2063 
Q 3016 2534 2758 2815 
Q 2500 3097 2075 3097 
Q 1594 3097 1305 2825 
Q 1016 2553 972 2059 
L 3022 2063 
z
" transform="scale(0.015625)"/>
       <path id="DejaVuSans-6e" d="M 3513 2113 
L 3513 0 
L 2938 0 
L 2938 2094 
Q 2938 2591 2744 2837 
Q 2550 3084 2163 3084 
Q 1697 3084 1428 2787 
Q 1159 2491 1159 1978 
L 1159 0 
L 581 0 
L 581 3500 
L 1159 3500 
L 1159 2956 
Q 1366 3272 1645 3428 
Q 1925 3584 2291 3584 
Q 2894 3584 3203 3211 
Q 3513 2838 3513 2113 
z
" transform="scale(0.015625)"/>
       <path id="DejaVuSans-61" d="M 2194 1759 
Q 1497 1759 1228 1600 
Q 959 1441 959 1056 
Q 959 750 1161 570 
Q 1363 391 1709 391 
Q 2188 391 2477 730 
Q 2766 1069 2766 1631 
L 2766 1759 
L 2194 1759 
z
M 3341 1997 
L 3341 0 
L 2766 0 
L 2766 531 
Q 2569 213 2275 61 
Q 1981 -91 1556 -91 
Q 1019 -91 701 211 
Q 384 513 384 1019 
Q 384 1609 779 1909 
Q 1175 2209 1959 2209 
L 2766 2209 
L 2766 2266 
Q 2766 2663 2505 2880 
Q 2244 3097 1772 3097 
Q 1472 3097 1187 3025 
Q 903 2953 641 2809 
L 641 3341 
Q 956 3463 1253 3523 
Q 1550 3584 1831 3584 
Q 2591 3584 2966 3190 
Q 3341 2797 3341 1997 
z
" transform="scale(0.015625)"/>
       <path id="DejaVuSans-72" d="M 2631 2963 
Q 2534 3019 2420 3045 
Q 2306 3072 2169 3072 
Q 1681 3072 1420 2755 
Q 1159 2438 1159 1844 
L 1159 0 
L 581 0 
L 581 3500 
L 1159 3500 
L 1159 2956 
Q 1341 3275 1631 3429 
Q 1922 3584 2338 3584 
Q 2397 3584 2469 3576 
Q 2541 3569 2628 3553 
L 2631 2963 
z
" transform="scale(0.015625)"/>
       <path id="DejaVuSans-69" d="M 603 3500 
L 1178 3500 
L 1178 0 
L 603 0 
L 603 3500 
z
M 603 4863 
L 1178 4863 
L 1178 4134 
L 603 4134 
L 603 4863 
z
" transform="scale(0.015625)"/>
       <path id="DejaVuSans-6f" d="M 1959 3097 
Q 1497 3097 1228 2736 
Q 959 2375 959 1747 
Q 959 1119 1226 758 
Q 1494 397 1959 397 
Q 2419 397 2687 759 
Q 2956 1122 2956 1747 
Q 2956 2369 2687 2733 
Q 2419 3097 1959 3097 
z
M 1959 3584 
Q 2709 3584 3137 3096 
Q 3566 2609 3566 1747 
Q 3566 888 3137 398 
Q 2709 -91 1959 -91 
Q 1206 -91 779 398 
Q 353 888 353 1747 
Q 353 2609 779 3096 
Q 1206 3584 1959 3584 
z
" transform="scale(0.015625)"/>
       <path id="DejaVuSans-20" transform="scale(0.015625)"/>
       <path id="DejaVuSans-4e" d="M 628 4666 
L 1478 4666 
L 3547 763 
L 3547 4666 
L 4159 4666 
L 4159 0 
L 3309 0 
L 1241 3903 
L 1241 0 
L 628 0 
L 628 4666 
z
" transform="scale(0.015625)"/>
       <path id="DejaVuSans-75" d="M 544 1381 
L 544 3500 
L 1119 3500 
L 1119 1403 
Q 1119 906 1312 657 
Q 1506 409 1894 409 
Q 2359 409 2629 706 
Q 2900 1003 2900 1516 
L 2900 3500 
L 3475 3500 
L 3475 0 
L 2900 0 
L 2900 538 
Q 2691 219 2414 64 
Q 2138 -91 1772 -91 
Q 1169 -91 856 284 
Q 544 659 544 1381 
z
M 1991 3584 
L 1991 3584 
z
" transform="scale(0.015625)"/>
       <path id="DejaVuSans-6d" d="M 3328 2828 
Q 3544 3216 3844 3400 
Q 4144 3584 4550 3584 
Q 5097 3584 5394 3201 
Q 5691 2819 5691 2113 
L 5691 0 
L 5113 0 
L 5113 2094 
Q 5113 2597 4934 2840 
Q 4756 3084 4391 3084 
Q 3944 3084 3684 2787 
Q 3425 2491 3425 1978 
L 3425 0 
L 2847 0 
L 2847 2094 
Q 2847 2600 2669 2842 
Q 2491 3084 2119 3084 
Q 1678 3084 1418 2786 
Q 1159 2488 1159 1978 
L 1159 0 
L 581 0 
L 581 3500 
L 1159 3500 
L 1159 2956 
Q 1356 3278 1631 3431 
Q 1906 3584 2284 3584 
Q 2666 3584 2933 3390 
Q 3200 3197 3328 2828 
z
" transform="scale(0.015625)"/>
       <path id="DejaVuSans-62" d="M 3116 1747 
Q 3116 2381 2855 2742 
Q 2594 3103 2138 3103 
Q 1681 3103 1420 2742 
Q 1159 2381 1159 1747 
Q 1159 1113 1420 752 
Q 1681 391 2138 391 
Q 2594 391 2855 752 
Q 3116 1113 3116 1747 
z
M 1159 2969 
Q 1341 3281 1617 3432 
Q 1894 3584 2278 3584 
Q 2916 3584 3314 3078 
Q 3713 2572 3713 1747 
Q 3713 922 3314 415 
Q 2916 -91 2278 -91 
Q 1894 -91 1617 61 
Q 1341 213 1159 525 
L 1159 0 
L 581 0 
L 581 4863 
L 1159 4863 
L 1159 2969 
z
" transform="scale(0.015625)"/>
      </defs>
      <use xlink:href="#DejaVuSans-53"/>
      <use xlink:href="#DejaVuSans-63" transform="translate(63.476562 0)"/>
      <use xlink:href="#DejaVuSans-65" transform="translate(118.457031 0)"/>
      <use xlink:href="#DejaVuSans-6e" transform="translate(179.980469 0)"/>
      <use xlink:href="#DejaVuSans-61" transform="translate(243.359375 0)"/>
      <use xlink:href="#DejaVuSans-72" transform="translate(304.638672 0)"/>
      <use xlink:href="#DejaVuSans-69" transform="translate(345.751953 0)"/>
      <use xlink:href="#DejaVuSans-6f" transform="translate(373.535156 0)"/>
      <use xlink:href="#DejaVuSans-20" transform="translate(434.716797 0)"/>
      <use xlink:href="#DejaVuSans-4e" transform="translate(466.503906 0)"/>
      <use xlink:href="#DejaVuSans-75" transform="translate(541.308594 0)"/>
      <use xlink:href="#DejaVuSans-6d" transform="translate(604.6875 0)"/>
      <use xlink:href="#DejaVuSans-62" transform="translate(702.099609 0)"/>
      <use xlink:href="#DejaVuSans-65" transform="translate(765.576172 0)"/>
      <use xlink:href="#DejaVuSans-72" transform="translate(827.099609 0)"/>
     </g>
    </g>
   </g>
   <g id="matplotlib.axis_2">
    <g id="ytick_1">
     <g id="line2d_17">
      <defs>
       <path id="m45aaec5485" d="M 0 0 
L -3.5 0 
" style="stroke: #000000; stroke-width: 0.8"/>
      </defs>
      <g>
       <use xlink:href="#m45aaec5485" x="63.47" y="590.2" style="stroke: #000000; stroke-width: 0.8"/>
      </g>
     </g>
     <g id="text_18">
      <!-- 0 -->
      <g transform="translate(45.0175 597.038594) scale(0.18 -0.18)">
       <use xlink:href="#DejaVuSans-30"/>
      </g>
     </g>
    </g>
    <g id="ytick_2">
     <g id="line2d_18">
      <g>
       <use xlink:href="#m45aaec5485" x="63.47" y="481.917008" style="stroke: #000000; stroke-width: 0.8"/>
      </g>
     </g>
     <g id="text_19">
      <!-- 10 -->
      <g transform="translate(33.565 488.755602) scale(0.18 -0.18)">
       <use xlink:href="#DejaVuSans-31"/>
       <use xlink:href="#DejaVuSans-30" transform="translate(63.623047 0)"/>
      </g>
     </g>
    </g>
    <g id="ytick_3">
     <g id="line2d_19">
      <g>
       <use xlink:href="#m45aaec5485" x="63.47" y="373.634017" style="stroke: #000000; stroke-width: 0.8"/>
      </g>
     </g>
     <g id="text_20">
      <!-- 20 -->
      <g transform="translate(33.565 380.472611) scale(0.18 -0.18)">
       <use xlink:href="#DejaVuSans-32"/>
       <use xlink:href="#DejaVuSans-30" transform="translate(63.623047 0)"/>
      </g>
     </g>
    </g>
    <g id="ytick_4">
     <g id="line2d_20">
      <g>
       <use xlink:href="#m45aaec5485" x="63.47" y="265.351025" style="stroke: #000000; stroke-width: 0.8"/>
      </g>
     </g>
     <g id="text_21">
      <!-- 30 -->
      <g transform="translate(33.565 272.189619) scale(0.18 -0.18)">
       <use xlink:href="#DejaVuSans-33"/>
       <use xlink:href="#DejaVuSans-30" transform="translate(63.623047 0)"/>
      </g>
     </g>
    </g>
    <g id="ytick_5">
     <g id="line2d_21">
      <g>
       <use xlink:href="#m45aaec5485" x="63.47" y="157.068034" style="stroke: #000000; stroke-width: 0.8"/>
      </g>
     </g>
     <g id="text_22">
      <!-- 40 -->
      <g transform="translate(33.565 163.906627) scale(0.18 -0.18)">
       <use xlink:href="#DejaVuSans-34"/>
       <use xlink:href="#DejaVuSans-30" transform="translate(63.623047 0)"/>
      </g>
     </g>
    </g>
    <g id="ytick_6">
     <g id="line2d_22">
      <g>
       <use xlink:href="#m45aaec5485" x="63.47" y="48.785042" style="stroke: #000000; stroke-width: 0.8"/>
      </g>
     </g>
     <g id="text_23">
      <!-- 50 -->
      <g transform="translate(33.565 55.623636) scale(0.18 -0.18)">
       <use xlink:href="#DejaVuSans-35"/>
       <use xlink:href="#DejaVuSans-30" transform="translate(63.623047 0)"/>
      </g>
     </g>
    </g>
    <g id="text_24">
     <!-- time [ms] -->
     <g transform="translate(25.613594 357.517266) rotate(-90) scale(0.19 -0.19)">
      <defs>
       <path id="DejaVuSans-74" d="M 1172 4494 
L 1172 3500 
L 2356 3500 
L 2356 3053 
L 1172 3053 
L 1172 1153 
Q 1172 725 1289 603 
Q 1406 481 1766 481 
L 2356 481 
L 2356 0 
L 1766 0 
Q 1100 0 847 248 
Q 594 497 594 1153 
L 594 3053 
L 172 3053 
L 172 3500 
L 594 3500 
L 594 4494 
L 1172 4494 
z
" transform="scale(0.015625)"/>
       <path id="DejaVuSans-5b" d="M 550 4863 
L 1875 4863 
L 1875 4416 
L 1125 4416 
L 1125 -397 
L 1875 -397 
L 1875 -844 
L 550 -844 
L 550 4863 
z
" transform="scale(0.015625)"/>
       <path id="DejaVuSans-73" d="M 2834 3397 
L 2834 2853 
Q 2591 2978 2328 3040 
Q 2066 3103 1784 3103 
Q 1356 3103 1142 2972 
Q 928 2841 928 2578 
Q 928 2378 1081 2264 
Q 1234 2150 1697 2047 
L 1894 2003 
Q 2506 1872 2764 1633 
Q 3022 1394 3022 966 
Q 3022 478 2636 193 
Q 2250 -91 1575 -91 
Q 1294 -91 989 -36 
Q 684 19 347 128 
L 347 722 
Q 666 556 975 473 
Q 1284 391 1588 391 
Q 1994 391 2212 530 
Q 2431 669 2431 922 
Q 2431 1156 2273 1281 
Q 2116 1406 1581 1522 
L 1381 1569 
Q 847 1681 609 1914 
Q 372 2147 372 2553 
Q 372 3047 722 3315 
Q 1072 3584 1716 3584 
Q 2034 3584 2315 3537 
Q 2597 3491 2834 3397 
z
" transform="scale(0.015625)"/>
       <path id="DejaVuSans-5d" d="M 1947 4863 
L 1947 -844 
L 622 -844 
L 622 -397 
L 1369 -397 
L 1369 4416 
L 622 4416 
L 622 4863 
L 1947 4863 
z
" transform="scale(0.015625)"/>
      </defs>
      <use xlink:href="#DejaVuSans-74"/>
      <use xlink:href="#DejaVuSans-69" transform="translate(39.208984 0)"/>
      <use xlink:href="#DejaVuSans-6d" transform="translate(66.992188 0)"/>
      <use xlink:href="#DejaVuSans-65" transform="translate(164.404297 0)"/>
      <use xlink:href="#DejaVuSans-20" transform="translate(225.927734 0)"/>
      <use xlink:href="#DejaVuSans-5b" transform="translate(257.714844 0)"/>
      <use xlink:href="#DejaVuSans-6d" transform="translate(296.728516 0)"/>
      <use xlink:href="#DejaVuSans-73" transform="translate(394.140625 0)"/>
      <use xlink:href="#DejaVuSans-5d" transform="translate(446.240234 0)"/>
     </g>
    </g>
   </g>
   <g id="patch_163">
    <path d="M 63.47 590.2 
L 63.47 32.64 
" style="fill: none; stroke: #000000; stroke-width: 0.8; stroke-linejoin: miter; stroke-linecap: square"/>
   </g>
   <g id="patch_164">
    <path d="M 1069.2 590.2 
L 1069.2 32.64 
" style="fill: none; stroke: #000000; stroke-width: 0.8; stroke-linejoin: miter; stroke-linecap: square"/>
   </g>
   <g id="patch_165">
    <path d="M 63.47 590.2 
L 1069.2 590.2 
" style="fill: none; stroke: #000000; stroke-width: 0.8; stroke-linejoin: miter; stroke-linecap: square"/>
   </g>
   <g id="patch_166">
    <path d="M 63.47 32.64 
L 1069.2 32.64 
" style="fill: none; stroke: #000000; stroke-width: 0.8; stroke-linejoin: miter; stroke-linecap: square"/>
   </g>
   <g id="text_25">
    <!-- VP -->
    <g transform="translate(110.810423 537.786944) scale(0.1 -0.1)">
     <defs>
      <path id="DejaVuSans-56" d="M 1831 0 
L 50 4666 
L 709 4666 
L 2188 738 
L 3669 4666 
L 4325 4666 
L 2547 0 
L 1831 0 
z
" transform="scale(0.015625)"/>
      <path id="DejaVuSans-50" d="M 1259 4147 
L 1259 2394 
L 2053 2394 
Q 2494 2394 2734 2622 
Q 2975 2850 2975 3272 
Q 2975 3691 2734 3919 
Q 2494 4147 2053 4147 
L 1259 4147 
z
M 628 4666 
L 2053 4666 
Q 2838 4666 3239 4311 
Q 3641 3956 3641 3272 
Q 3641 2581 3239 2228 
Q 2838 1875 2053 1875 
L 1259 1875 
L 1259 0 
L 628 0 
L 628 4666 
z
" transform="scale(0.015625)"/>
     </defs>
     <use xlink:href="#DejaVuSans-56"/>
     <use xlink:href="#DejaVuSans-50" transform="translate(68.408203 0)"/>
    </g>
   </g>
   <g id="text_26">
    <!-- VP -->
    <g transform="translate(168.38599 540.806059) scale(0.1 -0.1)">
     <use xlink:href="#DejaVuSans-56"/>
     <use xlink:href="#DejaVuSans-50" transform="translate(68.408203 0)"/>
    </g>
   </g>
   <g id="text_27">
    <!-- VP -->
    <g transform="translate(225.961557 539.773031) scale(0.1 -0.1)">
     <use xlink:href="#DejaVuSans-56"/>
     <use xlink:href="#DejaVuSans-50" transform="translate(68.408203 0)"/>
    </g>
   </g>
   <g id="text_28">
    <!-- VP -->
    <g transform="translate(283.537123 544.741025) scale(0.1 -0.1)">
     <use xlink:href="#DejaVuSans-56"/>
     <use xlink:href="#DejaVuSans-50" transform="translate(68.408203 0)"/>
    </g>
   </g>
   <g id="text_29">
    <!-- VP -->
    <g transform="translate(341.11269 551.829543) scale(0.1 -0.1)">
     <use xlink:href="#DejaVuSans-56"/>
     <use xlink:href="#DejaVuSans-50" transform="translate(68.408203 0)"/>
    </g>
   </g>
   <g id="text_30">
    <!-- VP -->
    <g transform="translate(398.688257 557.173749) scale(0.1 -0.1)">
     <use xlink:href="#DejaVuSans-56"/>
     <use xlink:href="#DejaVuSans-50" transform="translate(68.408203 0)"/>
    </g>
   </g>
   <g id="text_31">
    <!-- VP -->
    <g transform="translate(456.263824 554.706754) scale(0.1 -0.1)">
     <use xlink:href="#DejaVuSans-56"/>
     <use xlink:href="#DejaVuSans-50" transform="translate(68.408203 0)"/>
    </g>
   </g>
   <g id="text_32">
    <!-- VP -->
    <g transform="translate(513.83939 547.377808) scale(0.1 -0.1)">
     <use xlink:href="#DejaVuSans-56"/>
     <use xlink:href="#DejaVuSans-50" transform="translate(68.408203 0)"/>
    </g>
   </g>
   <g id="text_33">
    <!-- VP -->
    <g transform="translate(571.414957 546.85091) scale(0.1 -0.1)">
     <use xlink:href="#DejaVuSans-56"/>
     <use xlink:href="#DejaVuSans-50" transform="translate(68.408203 0)"/>
    </g>
   </g>
   <g id="text_34">
    <!-- VP -->
    <g transform="translate(628.990524 551.510312) scale(0.1 -0.1)">
     <use xlink:href="#DejaVuSans-56"/>
     <use xlink:href="#DejaVuSans-50" transform="translate(68.408203 0)"/>
    </g>
   </g>
   <g id="text_35">
    <!-- VP -->
    <g transform="translate(686.566091 551.114086) scale(0.1 -0.1)">
     <use xlink:href="#DejaVuSans-56"/>
     <use xlink:href="#DejaVuSans-50" transform="translate(68.408203 0)"/>
    </g>
   </g>
   <g id="text_36">
    <!-- VP -->
    <g transform="translate(744.141657 550.821234) scale(0.1 -0.1)">
     <use xlink:href="#DejaVuSans-56"/>
     <use xlink:href="#DejaVuSans-50" transform="translate(68.408203 0)"/>
    </g>
   </g>
   <g id="text_37">
    <!-- VP -->
    <g transform="translate(801.717224 541.827148) scale(0.1 -0.1)">
     <use xlink:href="#DejaVuSans-56"/>
     <use xlink:href="#DejaVuSans-50" transform="translate(68.408203 0)"/>
    </g>
   </g>
   <g id="text_38">
    <!-- VP -->
    <g transform="translate(859.292791 540.404893) scale(0.1 -0.1)">
     <use xlink:href="#DejaVuSans-56"/>
     <use xlink:href="#DejaVuSans-50" transform="translate(68.408203 0)"/>
    </g>
   </g>
   <g id="text_39">
    <!-- VP -->
    <g transform="translate(916.868358 537.768822) scale(0.1 -0.1)">
     <use xlink:href="#DejaVuSans-56"/>
     <use xlink:href="#DejaVuSans-50" transform="translate(68.408203 0)"/>
    </g>
   </g>
   <g id="text_40">
    <!-- VP -->
    <g transform="translate(974.443924 532.105015) scale(0.1 -0.1)">
     <use xlink:href="#DejaVuSans-56"/>
     <use xlink:href="#DejaVuSans-50" transform="translate(68.408203 0)"/>
    </g>
   </g>
   <g id="text_41">
    <!-- RLE -->
    <g transform="translate(125.098718 544.928553) scale(0.1 -0.1)">
     <defs>
      <path id="DejaVuSans-52" d="M 2841 2188 
Q 3044 2119 3236 1894 
Q 3428 1669 3622 1275 
L 4263 0 
L 3584 0 
L 2988 1197 
Q 2756 1666 2539 1819 
Q 2322 1972 1947 1972 
L 1259 1972 
L 1259 0 
L 628 0 
L 628 4666 
L 2053 4666 
Q 2853 4666 3247 4331 
Q 3641 3997 3641 3322 
Q 3641 2881 3436 2590 
Q 3231 2300 2841 2188 
z
M 1259 4147 
L 1259 2491 
L 2053 2491 
Q 2509 2491 2742 2702 
Q 2975 2913 2975 3322 
Q 2975 3731 2742 3939 
Q 2509 4147 2053 4147 
L 1259 4147 
z
" transform="scale(0.015625)"/>
      <path id="DejaVuSans-4c" d="M 628 4666 
L 1259 4666 
L 1259 531 
L 3531 531 
L 3531 0 
L 628 0 
L 628 4666 
z
" transform="scale(0.015625)"/>
      <path id="DejaVuSans-45" d="M 628 4666 
L 3578 4666 
L 3578 4134 
L 1259 4134 
L 1259 2753 
L 3481 2753 
L 3481 2222 
L 1259 2222 
L 1259 531 
L 3634 531 
L 3634 0 
L 628 0 
L 628 4666 
z
" transform="scale(0.015625)"/>
     </defs>
     <use xlink:href="#DejaVuSans-52"/>
     <use xlink:href="#DejaVuSans-4c" transform="translate(69.482422 0)"/>
     <use xlink:href="#DejaVuSans-45" transform="translate(125.195312 0)"/>
    </g>
   </g>
   <g id="text_42">
    <!-- RLE -->
    <g transform="translate(182.674285 563.755436) scale(0.1 -0.1)">
     <use xlink:href="#DejaVuSans-52"/>
     <use xlink:href="#DejaVuSans-4c" transform="translate(69.482422 0)"/>
     <use xlink:href="#DejaVuSans-45" transform="translate(125.195312 0)"/>
    </g>
   </g>
   <g id="text_43">
    <!-- RLE -->
    <g transform="translate(240.249852 563.120176) scale(0.1 -0.1)">
     <use xlink:href="#DejaVuSans-52"/>
     <use xlink:href="#DejaVuSans-4c" transform="translate(69.482422 0)"/>
     <use xlink:href="#DejaVuSans-45" transform="translate(125.195312 0)"/>
    </g>
   </g>
   <g id="text_44">
    <!-- RLE -->
    <g transform="translate(297.825418 527.435837) scale(0.1 -0.1)">
     <use xlink:href="#DejaVuSans-52"/>
     <use xlink:href="#DejaVuSans-4c" transform="translate(69.482422 0)"/>
     <use xlink:href="#DejaVuSans-45" transform="translate(125.195312 0)"/>
    </g>
   </g>
   <g id="text_45">
    <!-- RLE -->
    <g transform="translate(355.400985 503.245377) scale(0.1 -0.1)">
     <use xlink:href="#DejaVuSans-52"/>
     <use xlink:href="#DejaVuSans-4c" transform="translate(69.482422 0)"/>
     <use xlink:href="#DejaVuSans-45" transform="translate(125.195312 0)"/>
    </g>
   </g>
   <g id="text_46">
    <!-- RLE -->
    <g transform="translate(412.976552 584.709799) scale(0.1 -0.1)">
     <use xlink:href="#DejaVuSans-52"/>
     <use xlink:href="#DejaVuSans-4c" transform="translate(69.482422 0)"/>
     <use xlink:href="#DejaVuSans-45" transform="translate(125.195312 0)"/>
    </g>
   </g>
   <g id="text_47">
    <!-- RLE -->
    <g transform="translate(470.552119 577.622878) scale(0.1 -0.1)">
     <use xlink:href="#DejaVuSans-52"/>
     <use xlink:href="#DejaVuSans-4c" transform="translate(69.482422 0)"/>
     <use xlink:href="#DejaVuSans-45" transform="translate(125.195312 0)"/>
    </g>
   </g>
   <g id="text_48">
    <!-- RLE -->
    <g transform="translate(528.127685 540.142525) scale(0.1 -0.1)">
     <use xlink:href="#DejaVuSans-52"/>
     <use xlink:href="#DejaVuSans-4c" transform="translate(69.482422 0)"/>
     <use xlink:href="#DejaVuSans-45" transform="translate(125.195312 0)"/>
    </g>
   </g>
   <g id="text_49">
    <!-- RLE -->
    <g transform="translate(585.703252 527.045697) scale(0.1 -0.1)">
     <use xlink:href="#DejaVuSans-52"/>
     <use xlink:href="#DejaVuSans-4c" transform="translate(69.482422 0)"/>
     <use xlink:href="#DejaVuSans-45" transform="translate(125.195312 0)"/>
    </g>
   </g>
   <g id="text_50">
    <!-- RLE -->
    <g transform="translate(643.278819 524.825615) scale(0.1 -0.1)">
     <use xlink:href="#DejaVuSans-52"/>
     <use xlink:href="#DejaVuSans-4c" transform="translate(69.482422 0)"/>
     <use xlink:href="#DejaVuSans-45" transform="translate(125.195312 0)"/>
    </g>
   </g>
   <g id="text_51">
    <!-- RLE -->
    <g transform="translate(700.854386 521.559961) scale(0.1 -0.1)">
     <use xlink:href="#DejaVuSans-52"/>
     <use xlink:href="#DejaVuSans-4c" transform="translate(69.482422 0)"/>
     <use xlink:href="#DejaVuSans-45" transform="translate(125.195312 0)"/>
    </g>
   </g>
   <g id="text_52">
    <!-- RLE -->
    <g transform="translate(758.429952 529.675129) scale(0.1 -0.1)">
     <use xlink:href="#DejaVuSans-52"/>
     <use xlink:href="#DejaVuSans-4c" transform="translate(69.482422 0)"/>
     <use xlink:href="#DejaVuSans-45" transform="translate(125.195312 0)"/>
    </g>
   </g>
   <g id="text_53">
    <!-- RLE -->
    <g transform="translate(816.005519 298.450236) scale(0.1 -0.1)">
     <use xlink:href="#DejaVuSans-52"/>
     <use xlink:href="#DejaVuSans-4c" transform="translate(69.482422 0)"/>
     <use xlink:href="#DejaVuSans-45" transform="translate(125.195312 0)"/>
    </g>
   </g>
   <g id="text_54">
    <!-- RLE -->
    <g transform="translate(873.581086 488.49968) scale(0.1 -0.1)">
     <use xlink:href="#DejaVuSans-52"/>
     <use xlink:href="#DejaVuSans-4c" transform="translate(69.482422 0)"/>
     <use xlink:href="#DejaVuSans-45" transform="translate(125.195312 0)"/>
    </g>
   </g>
   <g id="text_55">
    <!-- RLE -->
    <g transform="translate(931.156653 397.791098) scale(0.1 -0.1)">
     <use xlink:href="#DejaVuSans-52"/>
     <use xlink:href="#DejaVuSans-4c" transform="translate(69.482422 0)"/>
     <use xlink:href="#DejaVuSans-45" transform="translate(125.195312 0)"/>
    </g>
   </g>
   <g id="text_56">
    <!-- RLE -->
    <g transform="translate(988.732219 217.87249) scale(0.1 -0.1)">
     <use xlink:href="#DejaVuSans-52"/>
     <use xlink:href="#DejaVuSans-4c" transform="translate(69.482422 0)"/>
     <use xlink:href="#DejaVuSans-45" transform="translate(125.195312 0)"/>
    </g>
   </g>
   <g id="text_57">
    <!-- Grid -->
    <g transform="translate(141.297951 537.708604) scale(0.1 -0.1)">
     <defs>
      <path id="DejaVuSans-47" d="M 3809 666 
L 3809 1919 
L 2778 1919 
L 2778 2438 
L 4434 2438 
L 4434 434 
Q 4069 175 3628 42 
Q 3188 -91 2688 -91 
Q 1594 -91 976 548 
Q 359 1188 359 2328 
Q 359 3472 976 4111 
Q 1594 4750 2688 4750 
Q 3144 4750 3555 4637 
Q 3966 4525 4313 4306 
L 4313 3634 
Q 3963 3931 3569 4081 
Q 3175 4231 2741 4231 
Q 1884 4231 1454 3753 
Q 1025 3275 1025 2328 
Q 1025 1384 1454 906 
Q 1884 428 2741 428 
Q 3075 428 3337 486 
Q 3600 544 3809 666 
z
" transform="scale(0.015625)"/>
      <path id="DejaVuSans-64" d="M 2906 2969 
L 2906 4863 
L 3481 4863 
L 3481 0 
L 2906 0 
L 2906 525 
Q 2725 213 2448 61 
Q 2172 -91 1784 -91 
Q 1150 -91 751 415 
Q 353 922 353 1747 
Q 353 2572 751 3078 
Q 1150 3584 1784 3584 
Q 2172 3584 2448 3432 
Q 2725 3281 2906 2969 
z
M 947 1747 
Q 947 1113 1208 752 
Q 1469 391 1925 391 
Q 2381 391 2643 752 
Q 2906 1113 2906 1747 
Q 2906 2381 2643 2742 
Q 2381 3103 1925 3103 
Q 1469 3103 1208 2742 
Q 947 2381 947 1747 
z
" transform="scale(0.015625)"/>
     </defs>
     <use xlink:href="#DejaVuSans-47"/>
     <use xlink:href="#DejaVuSans-72" transform="translate(77.490234 0)"/>
     <use xlink:href="#DejaVuSans-69" transform="translate(118.603516 0)"/>
     <use xlink:href="#DejaVuSans-64" transform="translate(146.386719 0)"/>
    </g>
   </g>
   <g id="text_58">
    <!-- Grid -->
    <g transform="translate(198.873517 551.585631) scale(0.1 -0.1)">
     <use xlink:href="#DejaVuSans-47"/>
     <use xlink:href="#DejaVuSans-72" transform="translate(77.490234 0)"/>
     <use xlink:href="#DejaVuSans-69" transform="translate(118.603516 0)"/>
     <use xlink:href="#DejaVuSans-64" transform="translate(146.386719 0)"/>
    </g>
   </g>
   <g id="text_59">
    <!-- Grid -->
    <g transform="translate(256.449084 552.828078) scale(0.1 -0.1)">
     <use xlink:href="#DejaVuSans-47"/>
     <use xlink:href="#DejaVuSans-72" transform="translate(77.490234 0)"/>
     <use xlink:href="#DejaVuSans-69" transform="translate(118.603516 0)"/>
     <use xlink:href="#DejaVuSans-64" transform="translate(146.386719 0)"/>
    </g>
   </g>
   <g id="text_60">
    <!-- Grid -->
    <g transform="translate(314.024651 552.805018) scale(0.1 -0.1)">
     <use xlink:href="#DejaVuSans-47"/>
     <use xlink:href="#DejaVuSans-72" transform="translate(77.490234 0)"/>
     <use xlink:href="#DejaVuSans-69" transform="translate(118.603516 0)"/>
     <use xlink:href="#DejaVuSans-64" transform="translate(146.386719 0)"/>
    </g>
   </g>
   <g id="text_61">
    <!-- Grid -->
    <g transform="translate(371.600218 526.550603) scale(0.1 -0.1)">
     <use xlink:href="#DejaVuSans-47"/>
     <use xlink:href="#DejaVuSans-72" transform="translate(77.490234 0)"/>
     <use xlink:href="#DejaVuSans-69" transform="translate(118.603516 0)"/>
     <use xlink:href="#DejaVuSans-64" transform="translate(146.386719 0)"/>
    </g>
   </g>
   <g id="text_62">
    <!-- Grid -->
    <g transform="translate(429.175784 575.060983) scale(0.1 -0.1)">
     <use xlink:href="#DejaVuSans-47"/>
     <use xlink:href="#DejaVuSans-72" transform="translate(77.490234 0)"/>
     <use xlink:href="#DejaVuSans-69" transform="translate(118.603516 0)"/>
     <use xlink:href="#DejaVuSans-64" transform="translate(146.386719 0)"/>
    </g>
   </g>
   <g id="text_63">
    <!-- Grid -->
    <g transform="translate(486.751351 570.329898) scale(0.1 -0.1)">
     <use xlink:href="#DejaVuSans-47"/>
     <use xlink:href="#DejaVuSans-72" transform="translate(77.490234 0)"/>
     <use xlink:href="#DejaVuSans-69" transform="translate(118.603516 0)"/>
     <use xlink:href="#DejaVuSans-64" transform="translate(146.386719 0)"/>
    </g>
   </g>
   <g id="text_64">
    <!-- Grid -->
    <g transform="translate(544.326918 529.195516) scale(0.1 -0.1)">
     <use xlink:href="#DejaVuSans-47"/>
     <use xlink:href="#DejaVuSans-72" transform="translate(77.490234 0)"/>
     <use xlink:href="#DejaVuSans-69" transform="translate(118.603516 0)"/>
     <use xlink:href="#DejaVuSans-64" transform="translate(146.386719 0)"/>
    </g>
   </g>
   <g id="text_65">
    <!-- Grid -->
    <g transform="translate(601.902485 560.491907) scale(0.1 -0.1)">
     <use xlink:href="#DejaVuSans-47"/>
     <use xlink:href="#DejaVuSans-72" transform="translate(77.490234 0)"/>
     <use xlink:href="#DejaVuSans-69" transform="translate(118.603516 0)"/>
     <use xlink:href="#DejaVuSans-64" transform="translate(146.386719 0)"/>
    </g>
   </g>
   <g id="text_66">
    <!-- Grid -->
    <g transform="translate(659.478051 560.819483) scale(0.1 -0.1)">
     <use xlink:href="#DejaVuSans-47"/>
     <use xlink:href="#DejaVuSans-72" transform="translate(77.490234 0)"/>
     <use xlink:href="#DejaVuSans-69" transform="translate(118.603516 0)"/>
     <use xlink:href="#DejaVuSans-64" transform="translate(146.386719 0)"/>
    </g>
   </g>
   <g id="text_67">
    <!-- Grid -->
    <g transform="translate(717.053618 564.199397) scale(0.1 -0.1)">
     <use xlink:href="#DejaVuSans-47"/>
     <use xlink:href="#DejaVuSans-72" transform="translate(77.490234 0)"/>
     <use xlink:href="#DejaVuSans-69" transform="translate(118.603516 0)"/>
     <use xlink:href="#DejaVuSans-64" transform="translate(146.386719 0)"/>
    </g>
   </g>
   <g id="text_68">
    <!-- Grid -->
    <g transform="translate(774.629185 564.012588) scale(0.1 -0.1)">
     <use xlink:href="#DejaVuSans-47"/>
     <use xlink:href="#DejaVuSans-72" transform="translate(77.490234 0)"/>
     <use xlink:href="#DejaVuSans-69" transform="translate(118.603516 0)"/>
     <use xlink:href="#DejaVuSans-64" transform="translate(146.386719 0)"/>
    </g>
   </g>
   <g id="text_69">
    <!-- Grid -->
    <g transform="translate(832.204752 70.44219) scale(0.1 -0.1)">
     <use xlink:href="#DejaVuSans-47"/>
     <use xlink:href="#DejaVuSans-72" transform="translate(77.490234 0)"/>
     <use xlink:href="#DejaVuSans-69" transform="translate(118.603516 0)"/>
     <use xlink:href="#DejaVuSans-64" transform="translate(146.386719 0)"/>
    </g>
   </g>
   <g id="text_70">
    <!-- Grid -->
    <g transform="translate(889.780318 459.831677) scale(0.1 -0.1)">
     <use xlink:href="#DejaVuSans-47"/>
     <use xlink:href="#DejaVuSans-72" transform="translate(77.490234 0)"/>
     <use xlink:href="#DejaVuSans-69" transform="translate(118.603516 0)"/>
     <use xlink:href="#DejaVuSans-64" transform="translate(146.386719 0)"/>
    </g>
   </g>
   <g id="text_71">
    <!-- Grid -->
    <g transform="translate(947.355885 384.987877) scale(0.1 -0.1)">
     <use xlink:href="#DejaVuSans-47"/>
     <use xlink:href="#DejaVuSans-72" transform="translate(77.490234 0)"/>
     <use xlink:href="#DejaVuSans-69" transform="translate(118.603516 0)"/>
     <use xlink:href="#DejaVuSans-64" transform="translate(146.386719 0)"/>
    </g>
   </g>
   <g id="text_72">
    <!-- Grid -->
    <g transform="translate(1004.931452 57.110789) scale(0.1 -0.1)">
     <use xlink:href="#DejaVuSans-47"/>
     <use xlink:href="#DejaVuSans-72" transform="translate(77.490234 0)"/>
     <use xlink:href="#DejaVuSans-69" transform="translate(118.603516 0)"/>
     <use xlink:href="#DejaVuSans-64" transform="translate(146.386719 0)"/>
    </g>
   </g>
   <g id="text_73">
    <!-- Voxel Meshing Phases Group 1 -->
    <g transform="translate(413.552188 26.64) scale(0.2 -0.2)">
     <defs>
      <path id="DejaVuSans-78" d="M 3513 3500 
L 2247 1797 
L 3578 0 
L 2900 0 
L 1881 1375 
L 863 0 
L 184 0 
L 1544 1831 
L 300 3500 
L 978 3500 
L 1906 2253 
L 2834 3500 
L 3513 3500 
z
" transform="scale(0.015625)"/>
      <path id="DejaVuSans-6c" d="M 603 4863 
L 1178 4863 
L 1178 0 
L 603 0 
L 603 4863 
z
" transform="scale(0.015625)"/>
      <path id="DejaVuSans-4d" d="M 628 4666 
L 1569 4666 
L 2759 1491 
L 3956 4666 
L 4897 4666 
L 4897 0 
L 4281 0 
L 4281 4097 
L 3078 897 
L 2444 897 
L 1241 4097 
L 1241 0 
L 628 0 
L 628 4666 
z
" transform="scale(0.015625)"/>
      <path id="DejaVuSans-68" d="M 3513 2113 
L 3513 0 
L 2938 0 
L 2938 2094 
Q 2938 2591 2744 2837 
Q 2550 3084 2163 3084 
Q 1697 3084 1428 2787 
Q 1159 2491 1159 1978 
L 1159 0 
L 581 0 
L 581 4863 
L 1159 4863 
L 1159 2956 
Q 1366 3272 1645 3428 
Q 1925 3584 2291 3584 
Q 2894 3584 3203 3211 
Q 3513 2838 3513 2113 
z
" transform="scale(0.015625)"/>
      <path id="DejaVuSans-67" d="M 2906 1791 
Q 2906 2416 2648 2759 
Q 2391 3103 1925 3103 
Q 1463 3103 1205 2759 
Q 947 2416 947 1791 
Q 947 1169 1205 825 
Q 1463 481 1925 481 
Q 2391 481 2648 825 
Q 2906 1169 2906 1791 
z
M 3481 434 
Q 3481 -459 3084 -895 
Q 2688 -1331 1869 -1331 
Q 1566 -1331 1297 -1286 
Q 1028 -1241 775 -1147 
L 775 -588 
Q 1028 -725 1275 -790 
Q 1522 -856 1778 -856 
Q 2344 -856 2625 -561 
Q 2906 -266 2906 331 
L 2906 616 
Q 2728 306 2450 153 
Q 2172 0 1784 0 
Q 1141 0 747 490 
Q 353 981 353 1791 
Q 353 2603 747 3093 
Q 1141 3584 1784 3584 
Q 2172 3584 2450 3431 
Q 2728 3278 2906 2969 
L 2906 3500 
L 3481 3500 
L 3481 434 
z
" transform="scale(0.015625)"/>
      <path id="DejaVuSans-70" d="M 1159 525 
L 1159 -1331 
L 581 -1331 
L 581 3500 
L 1159 3500 
L 1159 2969 
Q 1341 3281 1617 3432 
Q 1894 3584 2278 3584 
Q 2916 3584 3314 3078 
Q 3713 2572 3713 1747 
Q 3713 922 3314 415 
Q 2916 -91 2278 -91 
Q 1894 -91 1617 61 
Q 1341 213 1159 525 
z
M 3116 1747 
Q 3116 2381 2855 2742 
Q 2594 3103 2138 3103 
Q 1681 3103 1420 2742 
Q 1159 2381 1159 1747 
Q 1159 1113 1420 752 
Q 1681 391 2138 391 
Q 2594 391 2855 752 
Q 3116 1113 3116 1747 
z
" transform="scale(0.015625)"/>
     </defs>
     <use xlink:href="#DejaVuSans-56"/>
     <use xlink:href="#DejaVuSans-6f" transform="translate(60.658203 0)"/>
     <use xlink:href="#DejaVuSans-78" transform="translate(118.714844 0)"/>
     <use xlink:href="#DejaVuSans-65" transform="translate(174.769531 0)"/>
     <use xlink:href="#DejaVuSans-6c" transform="translate(236.292969 0)"/>
     <use xlink:href="#DejaVuSans-20" transform="translate(264.076172 0)"/>
     <use xlink:href="#DejaVuSans-4d" transform="translate(295.863281 0)"/>
     <use xlink:href="#DejaVuSans-65" transform="translate(382.142578 0)"/>
     <use xlink:href="#DejaVuSans-73" transform="translate(443.666016 0)"/>
     <use xlink:href="#DejaVuSans-68" transform="translate(495.765625 0)"/>
     <use xlink:href="#DejaVuSans-69" transform="translate(559.144531 0)"/>
     <use xlink:href="#DejaVuSans-6e" transform="translate(586.927734 0)"/>
     <use xlink:href="#DejaVuSans-67" transform="translate(650.306641 0)"/>
     <use xlink:href="#DejaVuSans-20" transform="translate(713.783203 0)"/>
     <use xlink:href="#DejaVuSans-50" transform="translate(745.570312 0)"/>
     <use xlink:href="#DejaVuSans-68" transform="translate(805.873047 0)"/>
     <use xlink:href="#DejaVuSans-61" transform="translate(869.251953 0)"/>
     <use xlink:href="#DejaVuSans-73" transform="translate(930.53125 0)"/>
     <use xlink:href="#DejaVuSans-65" transform="translate(982.630859 0)"/>
     <use xlink:href="#DejaVuSans-73" transform="translate(1044.154297 0)"/>
     <use xlink:href="#DejaVuSans-20" transform="translate(1096.253906 0)"/>
     <use xlink:href="#DejaVuSans-47" transform="translate(1128.041016 0)"/>
     <use xlink:href="#DejaVuSans-72" transform="translate(1205.53125 0)"/>
     <use xlink:href="#DejaVuSans-6f" transform="translate(1244.394531 0)"/>
     <use xlink:href="#DejaVuSans-75" transform="translate(1305.576172 0)"/>
     <use xlink:href="#DejaVuSans-70" transform="translate(1368.955078 0)"/>
     <use xlink:href="#DejaVuSans-20" transform="translate(1432.431641 0)"/>
     <use xlink:href="#DejaVuSans-31" transform="translate(1464.21875 0)"/>
    </g>
   </g>
   <g id="legend_1">
    <g id="patch_167">
     <path d="M 76.07 152.7225 
L 353.188438 152.7225 
Q 356.788438 152.7225 356.788438 149.1225 
L 356.788438 45.24 
Q 356.788438 41.64 353.188438 41.64 
L 76.07 41.64 
Q 72.47 41.64 72.47 45.24 
L 72.47 149.1225 
Q 72.47 152.7225 76.07 152.7225 
z
" style="fill: #ffffff; opacity: 0.8; stroke: #cccccc; stroke-linejoin: miter"/>
    </g>
    <g id="patch_168">
     <path d="M 79.67 62.517188 
L 115.67 62.517188 
L 115.67 49.917188 
L 79.67 49.917188 
z
" style="fill: #ff0000; stroke: #ff0000; stroke-linejoin: miter"/>
    </g>
    <g id="text_74">
     <!-- Octree sampling -->
     <g transform="translate(130.07 62.517188) scale(0.18 -0.18)">
      <defs>
       <path id="DejaVuSans-4f" d="M 2522 4238 
Q 1834 4238 1429 3725 
Q 1025 3213 1025 2328 
Q 1025 1447 1429 934 
Q 1834 422 2522 422 
Q 3209 422 3611 934 
Q 4013 1447 4013 2328 
Q 4013 3213 3611 3725 
Q 3209 4238 2522 4238 
z
M 2522 4750 
Q 3503 4750 4090 4092 
Q 4678 3434 4678 2328 
Q 4678 1225 4090 567 
Q 3503 -91 2522 -91 
Q 1538 -91 948 565 
Q 359 1222 359 2328 
Q 359 3434 948 4092 
Q 1538 4750 2522 4750 
z
" transform="scale(0.015625)"/>
      </defs>
      <use xlink:href="#DejaVuSans-4f"/>
      <use xlink:href="#DejaVuSans-63" transform="translate(78.710938 0)"/>
      <use xlink:href="#DejaVuSans-74" transform="translate(133.691406 0)"/>
      <use xlink:href="#DejaVuSans-72" transform="translate(172.900391 0)"/>
      <use xlink:href="#DejaVuSans-65" transform="translate(211.763672 0)"/>
      <use xlink:href="#DejaVuSans-65" transform="translate(273.287109 0)"/>
      <use xlink:href="#DejaVuSans-20" transform="translate(334.810547 0)"/>
      <use xlink:href="#DejaVuSans-73" transform="translate(366.597656 0)"/>
      <use xlink:href="#DejaVuSans-61" transform="translate(418.697266 0)"/>
      <use xlink:href="#DejaVuSans-6d" transform="translate(479.976562 0)"/>
      <use xlink:href="#DejaVuSans-70" transform="translate(577.388672 0)"/>
      <use xlink:href="#DejaVuSans-6c" transform="translate(640.865234 0)"/>
      <use xlink:href="#DejaVuSans-69" transform="translate(668.648438 0)"/>
      <use xlink:href="#DejaVuSans-6e" transform="translate(696.431641 0)"/>
      <use xlink:href="#DejaVuSans-67" transform="translate(759.810547 0)"/>
     </g>
    </g>
    <g id="patch_169">
     <path d="M 79.67 88.937813 
L 115.67 88.937813 
L 115.67 76.337813 
L 79.67 76.337813 
z
" style="fill: #008000; stroke: #008000; stroke-linejoin: miter"/>
    </g>
    <g id="text_75">
     <!-- Other timings -->
     <g transform="translate(130.07 88.937813) scale(0.18 -0.18)">
      <use xlink:href="#DejaVuSans-4f"/>
      <use xlink:href="#DejaVuSans-74" transform="translate(78.710938 0)"/>
      <use xlink:href="#DejaVuSans-68" transform="translate(117.919922 0)"/>
      <use xlink:href="#DejaVuSans-65" transform="translate(181.298828 0)"/>
      <use xlink:href="#DejaVuSans-72" transform="translate(242.822266 0)"/>
      <use xlink:href="#DejaVuSans-20" transform="translate(283.935547 0)"/>
      <use xlink:href="#DejaVuSans-74" transform="translate(315.722656 0)"/>
      <use xlink:href="#DejaVuSans-69" transform="translate(354.931641 0)"/>
      <use xlink:href="#DejaVuSans-6d" transform="translate(382.714844 0)"/>
      <use xlink:href="#DejaVuSans-69" transform="translate(480.126953 0)"/>
      <use xlink:href="#DejaVuSans-6e" transform="translate(507.910156 0)"/>
      <use xlink:href="#DejaVuSans-67" transform="translate(571.289062 0)"/>
      <use xlink:href="#DejaVuSans-73" transform="translate(634.765625 0)"/>
     </g>
    </g>
    <g id="patch_170">
     <path d="M 79.67 115.358438 
L 115.67 115.358438 
L 115.67 102.758438 
L 79.67 102.758438 
z
" style="fill: #bfbf00; stroke: #bfbf00; stroke-linejoin: miter"/>
    </g>
    <g id="text_76">
     <!-- Voxel Meshing -->
     <g transform="translate(130.07 115.358438) scale(0.18 -0.18)">
      <use xlink:href="#DejaVuSans-56"/>
      <use xlink:href="#DejaVuSans-6f" transform="translate(60.658203 0)"/>
      <use xlink:href="#DejaVuSans-78" transform="translate(118.714844 0)"/>
      <use xlink:href="#DejaVuSans-65" transform="translate(174.769531 0)"/>
      <use xlink:href="#DejaVuSans-6c" transform="translate(236.292969 0)"/>
      <use xlink:href="#DejaVuSans-20" transform="translate(264.076172 0)"/>
      <use xlink:href="#DejaVuSans-4d" transform="translate(295.863281 0)"/>
      <use xlink:href="#DejaVuSans-65" transform="translate(382.142578 0)"/>
      <use xlink:href="#DejaVuSans-73" transform="translate(443.666016 0)"/>
      <use xlink:href="#DejaVuSans-68" transform="translate(495.765625 0)"/>
      <use xlink:href="#DejaVuSans-69" transform="translate(559.144531 0)"/>
      <use xlink:href="#DejaVuSans-6e" transform="translate(586.927734 0)"/>
      <use xlink:href="#DejaVuSans-67" transform="translate(650.306641 0)"/>
     </g>
    </g>
    <g id="patch_171">
     <path d="M 79.67 141.779063 
L 115.67 141.779063 
L 115.67 129.179063 
L 79.67 129.179063 
z
" style="fill: #0000ff; stroke: #0000ff; stroke-linejoin: miter"/>
    </g>
    <g id="text_77">
     <!-- Insertion into UE Buffers -->
     <g transform="translate(130.07 141.779063) scale(0.18 -0.18)">
      <defs>
       <path id="DejaVuSans-49" d="M 628 4666 
L 1259 4666 
L 1259 0 
L 628 0 
L 628 4666 
z
" transform="scale(0.015625)"/>
       <path id="DejaVuSans-55" d="M 556 4666 
L 1191 4666 
L 1191 1831 
Q 1191 1081 1462 751 
Q 1734 422 2344 422 
Q 2950 422 3222 751 
Q 3494 1081 3494 1831 
L 3494 4666 
L 4128 4666 
L 4128 1753 
Q 4128 841 3676 375 
Q 3225 -91 2344 -91 
Q 1459 -91 1007 375 
Q 556 841 556 1753 
L 556 4666 
z
" transform="scale(0.015625)"/>
       <path id="DejaVuSans-42" d="M 1259 2228 
L 1259 519 
L 2272 519 
Q 2781 519 3026 730 
Q 3272 941 3272 1375 
Q 3272 1813 3026 2020 
Q 2781 2228 2272 2228 
L 1259 2228 
z
M 1259 4147 
L 1259 2741 
L 2194 2741 
Q 2656 2741 2882 2914 
Q 3109 3088 3109 3444 
Q 3109 3797 2882 3972 
Q 2656 4147 2194 4147 
L 1259 4147 
z
M 628 4666 
L 2241 4666 
Q 2963 4666 3353 4366 
Q 3744 4066 3744 3513 
Q 3744 3084 3544 2831 
Q 3344 2578 2956 2516 
Q 3422 2416 3680 2098 
Q 3938 1781 3938 1306 
Q 3938 681 3513 340 
Q 3088 0 2303 0 
L 628 0 
L 628 4666 
z
" transform="scale(0.015625)"/>
       <path id="DejaVuSans-66" d="M 2375 4863 
L 2375 4384 
L 1825 4384 
Q 1516 4384 1395 4259 
Q 1275 4134 1275 3809 
L 1275 3500 
L 2222 3500 
L 2222 3053 
L 1275 3053 
L 1275 0 
L 697 0 
L 697 3053 
L 147 3053 
L 147 3500 
L 697 3500 
L 697 3744 
Q 697 4328 969 4595 
Q 1241 4863 1831 4863 
L 2375 4863 
z
" transform="scale(0.015625)"/>
      </defs>
      <use xlink:href="#DejaVuSans-49"/>
      <use xlink:href="#DejaVuSans-6e" transform="translate(29.492188 0)"/>
      <use xlink:href="#DejaVuSans-73" transform="translate(92.871094 0)"/>
      <use xlink:href="#DejaVuSans-65" transform="translate(144.970703 0)"/>
      <use xlink:href="#DejaVuSans-72" transform="translate(206.494141 0)"/>
      <use xlink:href="#DejaVuSans-74" transform="translate(247.607422 0)"/>
      <use xlink:href="#DejaVuSans-69" transform="translate(286.816406 0)"/>
      <use xlink:href="#DejaVuSans-6f" transform="translate(314.599609 0)"/>
      <use xlink:href="#DejaVuSans-6e" transform="translate(375.78125 0)"/>
      <use xlink:href="#DejaVuSans-20" transform="translate(439.160156 0)"/>
      <use xlink:href="#DejaVuSans-69" transform="translate(470.947266 0)"/>
      <use xlink:href="#DejaVuSans-6e" transform="translate(498.730469 0)"/>
      <use xlink:href="#DejaVuSans-74" transform="translate(562.109375 0)"/>
      <use xlink:href="#DejaVuSans-6f" transform="translate(601.318359 0)"/>
      <use xlink:href="#DejaVuSans-20" transform="translate(662.5 0)"/>
      <use xlink:href="#DejaVuSans-55" transform="translate(694.287109 0)"/>
      <use xlink:href="#DejaVuSans-45" transform="translate(767.480469 0)"/>
      <use xlink:href="#DejaVuSans-20" transform="translate(830.664062 0)"/>
      <use xlink:href="#DejaVuSans-42" transform="translate(862.451172 0)"/>
      <use xlink:href="#DejaVuSans-75" transform="translate(931.054688 0)"/>
      <use xlink:href="#DejaVuSans-66" transform="translate(994.433594 0)"/>
      <use xlink:href="#DejaVuSans-66" transform="translate(1029.638672 0)"/>
      <use xlink:href="#DejaVuSans-65" transform="translate(1064.84375 0)"/>
      <use xlink:href="#DejaVuSans-72" transform="translate(1126.367188 0)"/>
      <use xlink:href="#DejaVuSans-73" transform="translate(1167.480469 0)"/>
     </g>
    </g>
   </g>
  </g>
 </g>
 <defs>
  <clipPath id="p74f16e74af">
   <rect x="63.47" y="32.64" width="1005.73" height="557.56"/>
  </clipPath>
 </defs>
</svg>
