<?xml version="1.0" encoding="utf-8" standalone="no"?>
<!DOCTYPE svg PUBLIC "-//W3C//DTD SVG 1.1//EN"
  "http://www.w3.org/Graphics/SVG/1.1/DTD/svg11.dtd">
<svg xmlns:xlink="http://www.w3.org/1999/xlink" width="1008pt" height="432pt" viewBox="0 0 1008 432" xmlns="http://www.w3.org/2000/svg" version="1.1">
 <metadata>
  <rdf:RDF xmlns:dc="http://purl.org/dc/elements/1.1/" xmlns:cc="http://creativecommons.org/ns#" xmlns:rdf="http://www.w3.org/1999/02/22-rdf-syntax-ns#">
   <cc:Work>
    <dc:type rdf:resource="http://purl.org/dc/dcmitype/StillImage"/>
    <dc:date>2025-05-12T00:49:11.572152</dc:date>
    <dc:format>image/svg+xml</dc:format>
    <dc:creator>
     <cc:Agent>
      <dc:title>Matplotlib v3.10.1, https://matplotlib.org/</dc:title>
     </cc:Agent>
    </dc:creator>
   </cc:Work>
  </rdf:RDF>
 </metadata>
 <defs>
  <style type="text/css">*{stroke-linejoin: round; stroke-linecap: butt}</style>
 </defs>
 <g id="figure_1">
  <g id="patch_1">
   <path d="M 0 432 
L 1008 432 
L 1008 0 
L 0 0 
z
" style="fill: #ffffff"/>
  </g>
  <g id="axes_1">
   <g id="patch_2">
    <path d="M 118.64 369.88 
L 997.2 369.88 
L 997.2 33.36 
L 118.64 33.36 
z
" style="fill: #ffffff"/>
   </g>
   <g id="patch_3">
    <path d="M 158.574545 369.88 
L 174.65557 369.88 
L 174.65557 49.384762 
L 158.574545 49.384762 
z
" clip-path="url(#p7ba311e00a)" style="fill: #1f77b4"/>
   </g>
   <g id="patch_4">
    <path d="M 212.177962 369.88 
L 228.258987 369.88 
L 228.258987 209.632381 
L 212.177962 209.632381 
z
" clip-path="url(#p7ba311e00a)" style="fill: #1f77b4"/>
   </g>
   <g id="patch_5">
    <path d="M 265.781379 369.88 
L 281.862404 369.88 
L 281.862404 289.75619 
L 265.781379 289.75619 
z
" clip-path="url(#p7ba311e00a)" style="fill: #1f77b4"/>
   </g>
   <g id="patch_6">
    <path d="M 319.384796 369.88 
L 335.465821 369.88 
L 335.465821 309.787143 
L 319.384796 309.787143 
z
" clip-path="url(#p7ba311e00a)" style="fill: #1f77b4"/>
   </g>
   <g id="patch_7">
    <path d="M 372.988212 369.88 
L 389.069237 369.88 
L 389.069237 329.818095 
L 372.988212 329.818095 
z
" clip-path="url(#p7ba311e00a)" style="fill: #1f77b4"/>
   </g>
   <g id="patch_8">
    <path d="M 426.591629 369.88 
L 442.672654 369.88 
L 442.672654 359.864524 
L 426.591629 359.864524 
z
" clip-path="url(#p7ba311e00a)" style="fill: #1f77b4"/>
   </g>
   <g id="patch_9">
    <path d="M 480.195046 369.88 
L 496.276071 369.88 
L 496.276071 360.699147 
L 480.195046 360.699147 
z
" clip-path="url(#p7ba311e00a)" style="fill: #1f77b4"/>
   </g>
   <g id="patch_10">
    <path d="M 533.798462 369.88 
L 549.879487 369.88 
L 549.879487 361.116458 
L 533.798462 361.116458 
z
" clip-path="url(#p7ba311e00a)" style="fill: #1f77b4"/>
   </g>
   <g id="patch_11">
    <path d="M 587.401879 369.88 
L 603.482904 369.88 
L 603.482904 360.177507 
L 587.401879 360.177507 
z
" clip-path="url(#p7ba311e00a)" style="fill: #1f77b4"/>
   </g>
   <g id="patch_12">
    <path d="M 641.005296 369.88 
L 657.086321 369.88 
L 657.086321 358.716917 
L 641.005296 358.716917 
z
" clip-path="url(#p7ba311e00a)" style="fill: #1f77b4"/>
   </g>
   <g id="patch_13">
    <path d="M 694.608713 369.88 
L 710.689738 369.88 
L 710.689738 361.481606 
L 694.608713 361.481606 
z
" clip-path="url(#p7ba311e00a)" style="fill: #1f77b4"/>
   </g>
   <g id="patch_14">
    <path d="M 748.212129 369.88 
L 764.293154 369.88 
L 764.293154 362.316229 
L 748.212129 362.316229 
z
" clip-path="url(#p7ba311e00a)" style="fill: #1f77b4"/>
   </g>
   <g id="patch_15">
    <path d="M 801.815546 369.88 
L 817.896571 369.88 
L 817.896571 362.73354 
L 801.815546 362.73354 
z
" clip-path="url(#p7ba311e00a)" style="fill: #1f77b4"/>
   </g>
   <g id="patch_16">
    <path d="M 855.418963 369.88 
L 871.499988 369.88 
L 871.499988 361.996725 
L 855.418963 361.996725 
z
" clip-path="url(#p7ba311e00a)" style="fill: #1f77b4"/>
   </g>
   <g id="patch_17">
    <path d="M 909.022379 369.88 
L 925.103405 369.88 
L 925.103405 360.839337 
L 909.022379 360.839337 
z
" clip-path="url(#p7ba311e00a)" style="fill: #1f77b4"/>
   </g>
   <g id="patch_18">
    <path d="M 174.65557 369.88 
L 190.736595 369.88 
L 190.736595 259.797789 
L 174.65557 259.797789 
z
" clip-path="url(#p7ba311e00a)" style="fill: #ff7f0e"/>
   </g>
   <g id="patch_19">
    <path d="M 228.258987 369.88 
L 244.340012 369.88 
L 244.340012 313.213662 
L 228.258987 313.213662 
z
" clip-path="url(#p7ba311e00a)" style="fill: #ff7f0e"/>
   </g>
   <g id="patch_20">
    <path d="M 281.862404 369.88 
L 297.943429 369.88 
L 297.943429 339.918338 
L 281.862404 339.918338 
z
" clip-path="url(#p7ba311e00a)" style="fill: #ff7f0e"/>
   </g>
   <g id="patch_21">
    <path d="M 335.465821 369.88 
L 351.546846 369.88 
L 351.546846 346.17801 
L 335.465821 346.17801 
z
" clip-path="url(#p7ba311e00a)" style="fill: #ff7f0e"/>
   </g>
   <g id="patch_22">
    <path d="M 389.069237 369.88 
L 405.150262 369.88 
L 405.150262 356.449416 
L 389.069237 356.449416 
z
" clip-path="url(#p7ba311e00a)" style="fill: #ff7f0e"/>
   </g>
   <g id="patch_23">
    <path d="M 442.672654 369.88 
L 458.753679 369.88 
L 458.753679 259.931459 
L 442.672654 259.931459 
z
" clip-path="url(#p7ba311e00a)" style="fill: #ff7f0e"/>
   </g>
   <g id="patch_24">
    <path d="M 496.276071 369.88 
L 512.357096 369.88 
L 512.357096 313.347332 
L 496.276071 313.347332 
z
" clip-path="url(#p7ba311e00a)" style="fill: #ff7f0e"/>
   </g>
   <g id="patch_25">
    <path d="M 549.879487 369.88 
L 565.960513 369.88 
L 565.960513 340.055268 
L 549.879487 340.055268 
z
" clip-path="url(#p7ba311e00a)" style="fill: #ff7f0e"/>
   </g>
   <g id="patch_26">
    <path d="M 603.482904 369.88 
L 619.563929 369.88 
L 619.563929 356.217938 
L 603.482904 356.217938 
z
" clip-path="url(#p7ba311e00a)" style="fill: #ff7f0e"/>
   </g>
   <g id="patch_27">
    <path d="M 657.086321 369.88 
L 673.167346 369.88 
L 673.167346 355.944078 
L 657.086321 355.944078 
z
" clip-path="url(#p7ba311e00a)" style="fill: #ff7f0e"/>
   </g>
   <g id="patch_28">
    <path d="M 710.689738 369.88 
L 726.770763 369.88 
L 726.770763 260.01378 
L 710.689738 260.01378 
z
" clip-path="url(#p7ba311e00a)" style="fill: #ff7f0e"/>
   </g>
   <g id="patch_29">
    <path d="M 764.293154 369.88 
L 780.374179 369.88 
L 780.374179 313.416612 
L 764.293154 313.416612 
z
" clip-path="url(#p7ba311e00a)" style="fill: #ff7f0e"/>
   </g>
   <g id="patch_30">
    <path d="M 817.896571 369.88 
L 833.977596 369.88 
L 833.977596 340.134329 
L 817.896571 340.134329 
z
" clip-path="url(#p7ba311e00a)" style="fill: #ff7f0e"/>
   </g>
   <g id="patch_31">
    <path d="M 871.499988 369.88 
L 887.581013 369.88 
L 887.581013 346.416823 
L 871.499988 346.416823 
z
" clip-path="url(#p7ba311e00a)" style="fill: #ff7f0e"/>
   </g>
   <g id="patch_32">
    <path d="M 925.103405 369.88 
L 941.18443 369.88 
L 941.18443 355.887839 
L 925.103405 355.887839 
z
" clip-path="url(#p7ba311e00a)" style="fill: #ff7f0e"/>
   </g>
   <g id="patch_33">
    <path d="M 190.736595 369.88 
L 206.817621 369.88 
L 206.817621 369.671344 
L 190.736595 369.671344 
z
" clip-path="url(#p7ba311e00a)" style="fill: #2ca02c"/>
   </g>
   <g id="patch_34">
    <path d="M 244.340012 369.88 
L 260.421037 369.88 
L 260.421037 369.775672 
L 244.340012 369.775672 
z
" clip-path="url(#p7ba311e00a)" style="fill: #2ca02c"/>
   </g>
   <g id="patch_35">
    <path d="M 297.943429 369.88 
L 314.024454 369.88 
L 314.024454 369.827836 
L 297.943429 369.827836 
z
" clip-path="url(#p7ba311e00a)" style="fill: #2ca02c"/>
   </g>
   <g id="patch_36">
    <path d="M 351.546846 369.88 
L 367.627871 369.88 
L 367.627871 369.840877 
L 351.546846 369.840877 
z
" clip-path="url(#p7ba311e00a)" style="fill: #2ca02c"/>
   </g>
   <g id="patch_37">
    <path d="M 405.150262 369.88 
L 421.231287 369.88 
L 421.231287 369.857178 
L 405.150262 369.857178 
z
" clip-path="url(#p7ba311e00a)" style="fill: #2ca02c"/>
   </g>
   <g id="patch_38">
    <path d="M 458.753679 369.88 
L 474.834704 369.88 
L 474.834704 369.671344 
L 458.753679 369.671344 
z
" clip-path="url(#p7ba311e00a)" style="fill: #2ca02c"/>
   </g>
   <g id="patch_39">
    <path d="M 512.357096 369.88 
L 528.438121 369.88 
L 528.438121 369.775672 
L 512.357096 369.775672 
z
" clip-path="url(#p7ba311e00a)" style="fill: #2ca02c"/>
   </g>
   <g id="patch_40">
    <path d="M 565.960513 369.88 
L 582.041538 369.88 
L 582.041538 369.827836 
L 565.960513 369.827836 
z
" clip-path="url(#p7ba311e00a)" style="fill: #2ca02c"/>
   </g>
   <g id="patch_41">
    <path d="M 619.563929 369.88 
L 635.644954 369.88 
L 635.644954 369.840877 
L 619.563929 369.840877 
z
" clip-path="url(#p7ba311e00a)" style="fill: #2ca02c"/>
   </g>
   <g id="patch_42">
    <path d="M 673.167346 369.88 
L 689.248371 369.88 
L 689.248371 369.857178 
L 673.167346 369.857178 
z
" clip-path="url(#p7ba311e00a)" style="fill: #2ca02c"/>
   </g>
   <g id="patch_43">
    <path d="M 726.770763 369.88 
L 742.851788 369.88 
L 742.851788 369.671344 
L 726.770763 369.671344 
z
" clip-path="url(#p7ba311e00a)" style="fill: #2ca02c"/>
   </g>
   <g id="patch_44">
    <path d="M 780.374179 369.88 
L 796.455204 369.88 
L 796.455204 369.775672 
L 780.374179 369.775672 
z
" clip-path="url(#p7ba311e00a)" style="fill: #2ca02c"/>
   </g>
   <g id="patch_45">
    <path d="M 833.977596 369.88 
L 850.058621 369.88 
L 850.058621 369.827836 
L 833.977596 369.827836 
z
" clip-path="url(#p7ba311e00a)" style="fill: #2ca02c"/>
   </g>
   <g id="patch_46">
    <path d="M 887.581013 369.88 
L 903.662038 369.88 
L 903.662038 369.840877 
L 887.581013 369.840877 
z
" clip-path="url(#p7ba311e00a)" style="fill: #2ca02c"/>
   </g>
   <g id="patch_47">
    <path d="M 941.18443 369.88 
L 957.265455 369.88 
L 957.265455 369.857178 
L 941.18443 369.857178 
z
" clip-path="url(#p7ba311e00a)" style="fill: #2ca02c"/>
   </g>
   <g id="matplotlib.axis_1">
    <g id="xtick_1">
     <g id="line2d_1">
      <defs>
       <path id="m92f5fc6cc1" d="M 0 0 
L 0 3.5 
" style="stroke: #000000; stroke-width: 0.8"/>
      </defs>
      <g>
       <use xlink:href="#m92f5fc6cc1" x="182.696083" y="369.88" style="stroke: #000000; stroke-width: 0.8"/>
      </g>
     </g>
     <g id="text_1">
      <!-- 23 -->
      <g transform="translate(169.971083 392.076875) scale(0.2 -0.2)">
       <defs>
        <path id="DejaVuSans-32" d="M 1228 531 
L 3431 531 
L 3431 0 
L 469 0 
L 469 531 
Q 828 903 1448 1529 
Q 2069 2156 2228 2338 
Q 2531 2678 2651 2914 
Q 2772 3150 2772 3378 
Q 2772 3750 2511 3984 
Q 2250 4219 1831 4219 
Q 1534 4219 1204 4116 
Q 875 4013 500 3803 
L 500 4441 
Q 881 4594 1212 4672 
Q 1544 4750 1819 4750 
Q 2544 4750 2975 4387 
Q 3406 4025 3406 3419 
Q 3406 3131 3298 2873 
Q 3191 2616 2906 2266 
Q 2828 2175 2409 1742 
Q 1991 1309 1228 531 
z
" transform="scale(0.015625)"/>
        <path id="DejaVuSans-33" d="M 2597 2516 
Q 3050 2419 3304 2112 
Q 3559 1806 3559 1356 
Q 3559 666 3084 287 
Q 2609 -91 1734 -91 
Q 1441 -91 1130 -33 
Q 819 25 488 141 
L 488 750 
Q 750 597 1062 519 
Q 1375 441 1716 441 
Q 2309 441 2620 675 
Q 2931 909 2931 1356 
Q 2931 1769 2642 2001 
Q 2353 2234 1838 2234 
L 1294 2234 
L 1294 2753 
L 1863 2753 
Q 2328 2753 2575 2939 
Q 2822 3125 2822 3475 
Q 2822 3834 2567 4026 
Q 2313 4219 1838 4219 
Q 1578 4219 1281 4162 
Q 984 4106 628 3988 
L 628 4550 
Q 988 4650 1302 4700 
Q 1616 4750 1894 4750 
Q 2613 4750 3031 4423 
Q 3450 4097 3450 3541 
Q 3450 3153 3228 2886 
Q 3006 2619 2597 2516 
z
" transform="scale(0.015625)"/>
       </defs>
       <use xlink:href="#DejaVuSans-32"/>
       <use xlink:href="#DejaVuSans-33" transform="translate(63.623047 0)"/>
      </g>
     </g>
    </g>
    <g id="xtick_2">
     <g id="line2d_2">
      <g>
       <use xlink:href="#m92f5fc6cc1" x="236.2995" y="369.88" style="stroke: #000000; stroke-width: 0.8"/>
      </g>
     </g>
     <g id="text_2">
      <!-- 24 -->
      <g transform="translate(223.5745 392.076875) scale(0.2 -0.2)">
       <defs>
        <path id="DejaVuSans-34" d="M 2419 4116 
L 825 1625 
L 2419 1625 
L 2419 4116 
z
M 2253 4666 
L 3047 4666 
L 3047 1625 
L 3713 1625 
L 3713 1100 
L 3047 1100 
L 3047 0 
L 2419 0 
L 2419 1100 
L 313 1100 
L 313 1709 
L 2253 4666 
z
" transform="scale(0.015625)"/>
       </defs>
       <use xlink:href="#DejaVuSans-32"/>
       <use xlink:href="#DejaVuSans-34" transform="translate(63.623047 0)"/>
      </g>
     </g>
    </g>
    <g id="xtick_3">
     <g id="line2d_3">
      <g>
       <use xlink:href="#m92f5fc6cc1" x="289.902916" y="369.88" style="stroke: #000000; stroke-width: 0.8"/>
      </g>
     </g>
     <g id="text_3">
      <!-- 25 -->
      <g transform="translate(277.177916 392.076875) scale(0.2 -0.2)">
       <defs>
        <path id="DejaVuSans-35" d="M 691 4666 
L 3169 4666 
L 3169 4134 
L 1269 4134 
L 1269 2991 
Q 1406 3038 1543 3061 
Q 1681 3084 1819 3084 
Q 2600 3084 3056 2656 
Q 3513 2228 3513 1497 
Q 3513 744 3044 326 
Q 2575 -91 1722 -91 
Q 1428 -91 1123 -41 
Q 819 9 494 109 
L 494 744 
Q 775 591 1075 516 
Q 1375 441 1709 441 
Q 2250 441 2565 725 
Q 2881 1009 2881 1497 
Q 2881 1984 2565 2268 
Q 2250 2553 1709 2553 
Q 1456 2553 1204 2497 
Q 953 2441 691 2322 
L 691 4666 
z
" transform="scale(0.015625)"/>
       </defs>
       <use xlink:href="#DejaVuSans-32"/>
       <use xlink:href="#DejaVuSans-35" transform="translate(63.623047 0)"/>
      </g>
     </g>
    </g>
    <g id="xtick_4">
     <g id="line2d_4">
      <g>
       <use xlink:href="#m92f5fc6cc1" x="343.506333" y="369.88" style="stroke: #000000; stroke-width: 0.8"/>
      </g>
     </g>
     <g id="text_4">
      <!-- 26 -->
      <g transform="translate(330.781333 392.076875) scale(0.2 -0.2)">
       <defs>
        <path id="DejaVuSans-36" d="M 2113 2584 
Q 1688 2584 1439 2293 
Q 1191 2003 1191 1497 
Q 1191 994 1439 701 
Q 1688 409 2113 409 
Q 2538 409 2786 701 
Q 3034 994 3034 1497 
Q 3034 2003 2786 2293 
Q 2538 2584 2113 2584 
z
M 3366 4563 
L 3366 3988 
Q 3128 4100 2886 4159 
Q 2644 4219 2406 4219 
Q 1781 4219 1451 3797 
Q 1122 3375 1075 2522 
Q 1259 2794 1537 2939 
Q 1816 3084 2150 3084 
Q 2853 3084 3261 2657 
Q 3669 2231 3669 1497 
Q 3669 778 3244 343 
Q 2819 -91 2113 -91 
Q 1303 -91 875 529 
Q 447 1150 447 2328 
Q 447 3434 972 4092 
Q 1497 4750 2381 4750 
Q 2619 4750 2861 4703 
Q 3103 4656 3366 4563 
z
" transform="scale(0.015625)"/>
       </defs>
       <use xlink:href="#DejaVuSans-32"/>
       <use xlink:href="#DejaVuSans-36" transform="translate(63.623047 0)"/>
      </g>
     </g>
    </g>
    <g id="xtick_5">
     <g id="line2d_5">
      <g>
       <use xlink:href="#m92f5fc6cc1" x="397.10975" y="369.88" style="stroke: #000000; stroke-width: 0.8"/>
      </g>
     </g>
     <g id="text_5">
      <!-- 27 -->
      <g transform="translate(384.38475 392.076875) scale(0.2 -0.2)">
       <defs>
        <path id="DejaVuSans-37" d="M 525 4666 
L 3525 4666 
L 3525 4397 
L 1831 0 
L 1172 0 
L 2766 4134 
L 525 4134 
L 525 4666 
z
" transform="scale(0.015625)"/>
       </defs>
       <use xlink:href="#DejaVuSans-32"/>
       <use xlink:href="#DejaVuSans-37" transform="translate(63.623047 0)"/>
      </g>
     </g>
    </g>
    <g id="xtick_6">
     <g id="line2d_6">
      <g>
       <use xlink:href="#m92f5fc6cc1" x="450.713167" y="369.88" style="stroke: #000000; stroke-width: 0.8"/>
      </g>
     </g>
     <g id="text_6">
      <!-- 28 -->
      <g transform="translate(437.988167 392.076875) scale(0.2 -0.2)">
       <defs>
        <path id="DejaVuSans-38" d="M 2034 2216 
Q 1584 2216 1326 1975 
Q 1069 1734 1069 1313 
Q 1069 891 1326 650 
Q 1584 409 2034 409 
Q 2484 409 2743 651 
Q 3003 894 3003 1313 
Q 3003 1734 2745 1975 
Q 2488 2216 2034 2216 
z
M 1403 2484 
Q 997 2584 770 2862 
Q 544 3141 544 3541 
Q 544 4100 942 4425 
Q 1341 4750 2034 4750 
Q 2731 4750 3128 4425 
Q 3525 4100 3525 3541 
Q 3525 3141 3298 2862 
Q 3072 2584 2669 2484 
Q 3125 2378 3379 2068 
Q 3634 1759 3634 1313 
Q 3634 634 3220 271 
Q 2806 -91 2034 -91 
Q 1263 -91 848 271 
Q 434 634 434 1313 
Q 434 1759 690 2068 
Q 947 2378 1403 2484 
z
M 1172 3481 
Q 1172 3119 1398 2916 
Q 1625 2713 2034 2713 
Q 2441 2713 2670 2916 
Q 2900 3119 2900 3481 
Q 2900 3844 2670 4047 
Q 2441 4250 2034 4250 
Q 1625 4250 1398 4047 
Q 1172 3844 1172 3481 
z
" transform="scale(0.015625)"/>
       </defs>
       <use xlink:href="#DejaVuSans-32"/>
       <use xlink:href="#DejaVuSans-38" transform="translate(63.623047 0)"/>
      </g>
     </g>
    </g>
    <g id="xtick_7">
     <g id="line2d_7">
      <g>
       <use xlink:href="#m92f5fc6cc1" x="504.316583" y="369.88" style="stroke: #000000; stroke-width: 0.8"/>
      </g>
     </g>
     <g id="text_7">
      <!-- 29 -->
      <g transform="translate(491.591583 392.076875) scale(0.2 -0.2)">
       <defs>
        <path id="DejaVuSans-39" d="M 703 97 
L 703 672 
Q 941 559 1184 500 
Q 1428 441 1663 441 
Q 2288 441 2617 861 
Q 2947 1281 2994 2138 
Q 2813 1869 2534 1725 
Q 2256 1581 1919 1581 
Q 1219 1581 811 2004 
Q 403 2428 403 3163 
Q 403 3881 828 4315 
Q 1253 4750 1959 4750 
Q 2769 4750 3195 4129 
Q 3622 3509 3622 2328 
Q 3622 1225 3098 567 
Q 2575 -91 1691 -91 
Q 1453 -91 1209 -44 
Q 966 3 703 97 
z
M 1959 2075 
Q 2384 2075 2632 2365 
Q 2881 2656 2881 3163 
Q 2881 3666 2632 3958 
Q 2384 4250 1959 4250 
Q 1534 4250 1286 3958 
Q 1038 3666 1038 3163 
Q 1038 2656 1286 2365 
Q 1534 2075 1959 2075 
z
" transform="scale(0.015625)"/>
       </defs>
       <use xlink:href="#DejaVuSans-32"/>
       <use xlink:href="#DejaVuSans-39" transform="translate(63.623047 0)"/>
      </g>
     </g>
    </g>
    <g id="xtick_8">
     <g id="line2d_8">
      <g>
       <use xlink:href="#m92f5fc6cc1" x="557.92" y="369.88" style="stroke: #000000; stroke-width: 0.8"/>
      </g>
     </g>
     <g id="text_8">
      <!-- 30 -->
      <g transform="translate(545.195 392.076875) scale(0.2 -0.2)">
       <defs>
        <path id="DejaVuSans-30" d="M 2034 4250 
Q 1547 4250 1301 3770 
Q 1056 3291 1056 2328 
Q 1056 1369 1301 889 
Q 1547 409 2034 409 
Q 2525 409 2770 889 
Q 3016 1369 3016 2328 
Q 3016 3291 2770 3770 
Q 2525 4250 2034 4250 
z
M 2034 4750 
Q 2819 4750 3233 4129 
Q 3647 3509 3647 2328 
Q 3647 1150 3233 529 
Q 2819 -91 2034 -91 
Q 1250 -91 836 529 
Q 422 1150 422 2328 
Q 422 3509 836 4129 
Q 1250 4750 2034 4750 
z
" transform="scale(0.015625)"/>
       </defs>
       <use xlink:href="#DejaVuSans-33"/>
       <use xlink:href="#DejaVuSans-30" transform="translate(63.623047 0)"/>
      </g>
     </g>
    </g>
    <g id="xtick_9">
     <g id="line2d_9">
      <g>
       <use xlink:href="#m92f5fc6cc1" x="611.523417" y="369.88" style="stroke: #000000; stroke-width: 0.8"/>
      </g>
     </g>
     <g id="text_9">
      <!-- 31 -->
      <g transform="translate(598.798417 392.076875) scale(0.2 -0.2)">
       <defs>
        <path id="DejaVuSans-31" d="M 794 531 
L 1825 531 
L 1825 4091 
L 703 3866 
L 703 4441 
L 1819 4666 
L 2450 4666 
L 2450 531 
L 3481 531 
L 3481 0 
L 794 0 
L 794 531 
z
" transform="scale(0.015625)"/>
       </defs>
       <use xlink:href="#DejaVuSans-33"/>
       <use xlink:href="#DejaVuSans-31" transform="translate(63.623047 0)"/>
      </g>
     </g>
    </g>
    <g id="xtick_10">
     <g id="line2d_10">
      <g>
       <use xlink:href="#m92f5fc6cc1" x="665.126833" y="369.88" style="stroke: #000000; stroke-width: 0.8"/>
      </g>
     </g>
     <g id="text_10">
      <!-- 32 -->
      <g transform="translate(652.401833 392.076875) scale(0.2 -0.2)">
       <use xlink:href="#DejaVuSans-33"/>
       <use xlink:href="#DejaVuSans-32" transform="translate(63.623047 0)"/>
      </g>
     </g>
    </g>
    <g id="xtick_11">
     <g id="line2d_11">
      <g>
       <use xlink:href="#m92f5fc6cc1" x="718.73025" y="369.88" style="stroke: #000000; stroke-width: 0.8"/>
      </g>
     </g>
     <g id="text_11">
      <!-- 33 -->
      <g transform="translate(706.00525 392.076875) scale(0.2 -0.2)">
       <use xlink:href="#DejaVuSans-33"/>
       <use xlink:href="#DejaVuSans-33" transform="translate(63.623047 0)"/>
      </g>
     </g>
    </g>
    <g id="xtick_12">
     <g id="line2d_12">
      <g>
       <use xlink:href="#m92f5fc6cc1" x="772.333667" y="369.88" style="stroke: #000000; stroke-width: 0.8"/>
      </g>
     </g>
     <g id="text_12">
      <!-- 34 -->
      <g transform="translate(759.608667 392.076875) scale(0.2 -0.2)">
       <use xlink:href="#DejaVuSans-33"/>
       <use xlink:href="#DejaVuSans-34" transform="translate(63.623047 0)"/>
      </g>
     </g>
    </g>
    <g id="xtick_13">
     <g id="line2d_13">
      <g>
       <use xlink:href="#m92f5fc6cc1" x="825.937084" y="369.88" style="stroke: #000000; stroke-width: 0.8"/>
      </g>
     </g>
     <g id="text_13">
      <!-- 35 -->
      <g transform="translate(813.212084 392.076875) scale(0.2 -0.2)">
       <use xlink:href="#DejaVuSans-33"/>
       <use xlink:href="#DejaVuSans-35" transform="translate(63.623047 0)"/>
      </g>
     </g>
    </g>
    <g id="xtick_14">
     <g id="line2d_14">
      <g>
       <use xlink:href="#m92f5fc6cc1" x="879.5405" y="369.88" style="stroke: #000000; stroke-width: 0.8"/>
      </g>
     </g>
     <g id="text_14">
      <!-- 36 -->
      <g transform="translate(866.8155 392.076875) scale(0.2 -0.2)">
       <use xlink:href="#DejaVuSans-33"/>
       <use xlink:href="#DejaVuSans-36" transform="translate(63.623047 0)"/>
      </g>
     </g>
    </g>
    <g id="xtick_15">
     <g id="line2d_15">
      <g>
       <use xlink:href="#m92f5fc6cc1" x="933.143917" y="369.88" style="stroke: #000000; stroke-width: 0.8"/>
      </g>
     </g>
     <g id="text_15">
      <!-- 37 -->
      <g transform="translate(920.418917 392.076875) scale(0.2 -0.2)">
       <use xlink:href="#DejaVuSans-33"/>
       <use xlink:href="#DejaVuSans-37" transform="translate(63.623047 0)"/>
      </g>
     </g>
    </g>
    <g id="text_16">
     <!-- Scenario Number -->
     <g transform="translate(466.755391 416.192969) scale(0.21 -0.21)">
      <defs>
       <path id="DejaVuSans-53" d="M 3425 4513 
L 3425 3897 
Q 3066 4069 2747 4153 
Q 2428 4238 2131 4238 
Q 1616 4238 1336 4038 
Q 1056 3838 1056 3469 
Q 1056 3159 1242 3001 
Q 1428 2844 1947 2747 
L 2328 2669 
Q 3034 2534 3370 2195 
Q 3706 1856 3706 1288 
Q 3706 609 3251 259 
Q 2797 -91 1919 -91 
Q 1588 -91 1214 -16 
Q 841 59 441 206 
L 441 856 
Q 825 641 1194 531 
Q 1563 422 1919 422 
Q 2459 422 2753 634 
Q 3047 847 3047 1241 
Q 3047 1584 2836 1778 
Q 2625 1972 2144 2069 
L 1759 2144 
Q 1053 2284 737 2584 
Q 422 2884 422 3419 
Q 422 4038 858 4394 
Q 1294 4750 2059 4750 
Q 2388 4750 2728 4690 
Q 3069 4631 3425 4513 
z
" transform="scale(0.015625)"/>
       <path id="DejaVuSans-63" d="M 3122 3366 
L 3122 2828 
Q 2878 2963 2633 3030 
Q 2388 3097 2138 3097 
Q 1578 3097 1268 2742 
Q 959 2388 959 1747 
Q 959 1106 1268 751 
Q 1578 397 2138 397 
Q 2388 397 2633 464 
Q 2878 531 3122 666 
L 3122 134 
Q 2881 22 2623 -34 
Q 2366 -91 2075 -91 
Q 1284 -91 818 406 
Q 353 903 353 1747 
Q 353 2603 823 3093 
Q 1294 3584 2113 3584 
Q 2378 3584 2631 3529 
Q 2884 3475 3122 3366 
z
" transform="scale(0.015625)"/>
       <path id="DejaVuSans-65" d="M 3597 1894 
L 3597 1613 
L 953 1613 
Q 991 1019 1311 708 
Q 1631 397 2203 397 
Q 2534 397 2845 478 
Q 3156 559 3463 722 
L 3463 178 
Q 3153 47 2828 -22 
Q 2503 -91 2169 -91 
Q 1331 -91 842 396 
Q 353 884 353 1716 
Q 353 2575 817 3079 
Q 1281 3584 2069 3584 
Q 2775 3584 3186 3129 
Q 3597 2675 3597 1894 
z
M 3022 2063 
Q 3016 2534 2758 2815 
Q 2500 3097 2075 3097 
Q 1594 3097 1305 2825 
Q 1016 2553 972 2059 
L 3022 2063 
z
" transform="scale(0.015625)"/>
       <path id="DejaVuSans-6e" d="M 3513 2113 
L 3513 0 
L 2938 0 
L 2938 2094 
Q 2938 2591 2744 2837 
Q 2550 3084 2163 3084 
Q 1697 3084 1428 2787 
Q 1159 2491 1159 1978 
L 1159 0 
L 581 0 
L 581 3500 
L 1159 3500 
L 1159 2956 
Q 1366 3272 1645 3428 
Q 1925 3584 2291 3584 
Q 2894 3584 3203 3211 
Q 3513 2838 3513 2113 
z
" transform="scale(0.015625)"/>
       <path id="DejaVuSans-61" d="M 2194 1759 
Q 1497 1759 1228 1600 
Q 959 1441 959 1056 
Q 959 750 1161 570 
Q 1363 391 1709 391 
Q 2188 391 2477 730 
Q 2766 1069 2766 1631 
L 2766 1759 
L 2194 1759 
z
M 3341 1997 
L 3341 0 
L 2766 0 
L 2766 531 
Q 2569 213 2275 61 
Q 1981 -91 1556 -91 
Q 1019 -91 701 211 
Q 384 513 384 1019 
Q 384 1609 779 1909 
Q 1175 2209 1959 2209 
L 2766 2209 
L 2766 2266 
Q 2766 2663 2505 2880 
Q 2244 3097 1772 3097 
Q 1472 3097 1187 3025 
Q 903 2953 641 2809 
L 641 3341 
Q 956 3463 1253 3523 
Q 1550 3584 1831 3584 
Q 2591 3584 2966 3190 
Q 3341 2797 3341 1997 
z
" transform="scale(0.015625)"/>
       <path id="DejaVuSans-72" d="M 2631 2963 
Q 2534 3019 2420 3045 
Q 2306 3072 2169 3072 
Q 1681 3072 1420 2755 
Q 1159 2438 1159 1844 
L 1159 0 
L 581 0 
L 581 3500 
L 1159 3500 
L 1159 2956 
Q 1341 3275 1631 3429 
Q 1922 3584 2338 3584 
Q 2397 3584 2469 3576 
Q 2541 3569 2628 3553 
L 2631 2963 
z
" transform="scale(0.015625)"/>
       <path id="DejaVuSans-69" d="M 603 3500 
L 1178 3500 
L 1178 0 
L 603 0 
L 603 3500 
z
M 603 4863 
L 1178 4863 
L 1178 4134 
L 603 4134 
L 603 4863 
z
" transform="scale(0.015625)"/>
       <path id="DejaVuSans-6f" d="M 1959 3097 
Q 1497 3097 1228 2736 
Q 959 2375 959 1747 
Q 959 1119 1226 758 
Q 1494 397 1959 397 
Q 2419 397 2687 759 
Q 2956 1122 2956 1747 
Q 2956 2369 2687 2733 
Q 2419 3097 1959 3097 
z
M 1959 3584 
Q 2709 3584 3137 3096 
Q 3566 2609 3566 1747 
Q 3566 888 3137 398 
Q 2709 -91 1959 -91 
Q 1206 -91 779 398 
Q 353 888 353 1747 
Q 353 2609 779 3096 
Q 1206 3584 1959 3584 
z
" transform="scale(0.015625)"/>
       <path id="DejaVuSans-20" transform="scale(0.015625)"/>
       <path id="DejaVuSans-4e" d="M 628 4666 
L 1478 4666 
L 3547 763 
L 3547 4666 
L 4159 4666 
L 4159 0 
L 3309 0 
L 1241 3903 
L 1241 0 
L 628 0 
L 628 4666 
z
" transform="scale(0.015625)"/>
       <path id="DejaVuSans-75" d="M 544 1381 
L 544 3500 
L 1119 3500 
L 1119 1403 
Q 1119 906 1312 657 
Q 1506 409 1894 409 
Q 2359 409 2629 706 
Q 2900 1003 2900 1516 
L 2900 3500 
L 3475 3500 
L 3475 0 
L 2900 0 
L 2900 538 
Q 2691 219 2414 64 
Q 2138 -91 1772 -91 
Q 1169 -91 856 284 
Q 544 659 544 1381 
z
M 1991 3584 
L 1991 3584 
z
" transform="scale(0.015625)"/>
       <path id="DejaVuSans-6d" d="M 3328 2828 
Q 3544 3216 3844 3400 
Q 4144 3584 4550 3584 
Q 5097 3584 5394 3201 
Q 5691 2819 5691 2113 
L 5691 0 
L 5113 0 
L 5113 2094 
Q 5113 2597 4934 2840 
Q 4756 3084 4391 3084 
Q 3944 3084 3684 2787 
Q 3425 2491 3425 1978 
L 3425 0 
L 2847 0 
L 2847 2094 
Q 2847 2600 2669 2842 
Q 2491 3084 2119 3084 
Q 1678 3084 1418 2786 
Q 1159 2488 1159 1978 
L 1159 0 
L 581 0 
L 581 3500 
L 1159 3500 
L 1159 2956 
Q 1356 3278 1631 3431 
Q 1906 3584 2284 3584 
Q 2666 3584 2933 3390 
Q 3200 3197 3328 2828 
z
" transform="scale(0.015625)"/>
       <path id="DejaVuSans-62" d="M 3116 1747 
Q 3116 2381 2855 2742 
Q 2594 3103 2138 3103 
Q 1681 3103 1420 2742 
Q 1159 2381 1159 1747 
Q 1159 1113 1420 752 
Q 1681 391 2138 391 
Q 2594 391 2855 752 
Q 3116 1113 3116 1747 
z
M 1159 2969 
Q 1341 3281 1617 3432 
Q 1894 3584 2278 3584 
Q 2916 3584 3314 3078 
Q 3713 2572 3713 1747 
Q 3713 922 3314 415 
Q 2916 -91 2278 -91 
Q 1894 -91 1617 61 
Q 1341 213 1159 525 
L 1159 0 
L 581 0 
L 581 4863 
L 1159 4863 
L 1159 2969 
z
" transform="scale(0.015625)"/>
      </defs>
      <use xlink:href="#DejaVuSans-53"/>
      <use xlink:href="#DejaVuSans-63" transform="translate(63.476562 0)"/>
      <use xlink:href="#DejaVuSans-65" transform="translate(118.457031 0)"/>
      <use xlink:href="#DejaVuSans-6e" transform="translate(179.980469 0)"/>
      <use xlink:href="#DejaVuSans-61" transform="translate(243.359375 0)"/>
      <use xlink:href="#DejaVuSans-72" transform="translate(304.638672 0)"/>
      <use xlink:href="#DejaVuSans-69" transform="translate(345.751953 0)"/>
      <use xlink:href="#DejaVuSans-6f" transform="translate(373.535156 0)"/>
      <use xlink:href="#DejaVuSans-20" transform="translate(434.716797 0)"/>
      <use xlink:href="#DejaVuSans-4e" transform="translate(466.503906 0)"/>
      <use xlink:href="#DejaVuSans-75" transform="translate(541.308594 0)"/>
      <use xlink:href="#DejaVuSans-6d" transform="translate(604.6875 0)"/>
      <use xlink:href="#DejaVuSans-62" transform="translate(702.099609 0)"/>
      <use xlink:href="#DejaVuSans-65" transform="translate(765.576172 0)"/>
      <use xlink:href="#DejaVuSans-72" transform="translate(827.099609 0)"/>
     </g>
    </g>
   </g>
   <g id="matplotlib.axis_2">
    <g id="ytick_1">
     <g id="line2d_16">
      <defs>
       <path id="m2d54a59772" d="M 0 0 
L -3.5 0 
" style="stroke: #000000; stroke-width: 0.8"/>
      </defs>
      <g>
       <use xlink:href="#m2d54a59772" x="118.64" y="369.88" style="stroke: #000000; stroke-width: 0.8"/>
      </g>
     </g>
     <g id="text_17">
      <!-- 0 -->
      <g transform="translate(98.915 377.478437) scale(0.2 -0.2)">
       <use xlink:href="#DejaVuSans-30"/>
      </g>
     </g>
    </g>
    <g id="ytick_2">
     <g id="line2d_17">
      <g>
       <use xlink:href="#m2d54a59772" x="118.64" y="329.126923" style="stroke: #000000; stroke-width: 0.8"/>
      </g>
     </g>
     <g id="text_18">
      <!-- 50000 -->
      <g transform="translate(48.015 336.725361) scale(0.2 -0.2)">
       <use xlink:href="#DejaVuSans-35"/>
       <use xlink:href="#DejaVuSans-30" transform="translate(63.623047 0)"/>
       <use xlink:href="#DejaVuSans-30" transform="translate(127.246094 0)"/>
       <use xlink:href="#DejaVuSans-30" transform="translate(190.869141 0)"/>
       <use xlink:href="#DejaVuSans-30" transform="translate(254.492188 0)"/>
      </g>
     </g>
    </g>
    <g id="ytick_3">
     <g id="line2d_18">
      <g>
       <use xlink:href="#m2d54a59772" x="118.64" y="288.373846" style="stroke: #000000; stroke-width: 0.8"/>
      </g>
     </g>
     <g id="text_19">
      <!-- 100000 -->
      <g transform="translate(35.29 295.972284) scale(0.2 -0.2)">
       <use xlink:href="#DejaVuSans-31"/>
       <use xlink:href="#DejaVuSans-30" transform="translate(63.623047 0)"/>
       <use xlink:href="#DejaVuSans-30" transform="translate(127.246094 0)"/>
       <use xlink:href="#DejaVuSans-30" transform="translate(190.869141 0)"/>
       <use xlink:href="#DejaVuSans-30" transform="translate(254.492188 0)"/>
       <use xlink:href="#DejaVuSans-30" transform="translate(318.115234 0)"/>
      </g>
     </g>
    </g>
    <g id="ytick_4">
     <g id="line2d_19">
      <g>
       <use xlink:href="#m2d54a59772" x="118.64" y="247.620769" style="stroke: #000000; stroke-width: 0.8"/>
      </g>
     </g>
     <g id="text_20">
      <!-- 150000 -->
      <g transform="translate(35.29 255.219207) scale(0.2 -0.2)">
       <use xlink:href="#DejaVuSans-31"/>
       <use xlink:href="#DejaVuSans-35" transform="translate(63.623047 0)"/>
       <use xlink:href="#DejaVuSans-30" transform="translate(127.246094 0)"/>
       <use xlink:href="#DejaVuSans-30" transform="translate(190.869141 0)"/>
       <use xlink:href="#DejaVuSans-30" transform="translate(254.492188 0)"/>
       <use xlink:href="#DejaVuSans-30" transform="translate(318.115234 0)"/>
      </g>
     </g>
    </g>
    <g id="ytick_5">
     <g id="line2d_20">
      <g>
       <use xlink:href="#m2d54a59772" x="118.64" y="206.867692" style="stroke: #000000; stroke-width: 0.8"/>
      </g>
     </g>
     <g id="text_21">
      <!-- 200000 -->
      <g transform="translate(35.29 214.46613) scale(0.2 -0.2)">
       <use xlink:href="#DejaVuSans-32"/>
       <use xlink:href="#DejaVuSans-30" transform="translate(63.623047 0)"/>
       <use xlink:href="#DejaVuSans-30" transform="translate(127.246094 0)"/>
       <use xlink:href="#DejaVuSans-30" transform="translate(190.869141 0)"/>
       <use xlink:href="#DejaVuSans-30" transform="translate(254.492188 0)"/>
       <use xlink:href="#DejaVuSans-30" transform="translate(318.115234 0)"/>
      </g>
     </g>
    </g>
    <g id="ytick_6">
     <g id="line2d_21">
      <g>
       <use xlink:href="#m2d54a59772" x="118.64" y="166.114615" style="stroke: #000000; stroke-width: 0.8"/>
      </g>
     </g>
     <g id="text_22">
      <!-- 250000 -->
      <g transform="translate(35.29 173.713053) scale(0.2 -0.2)">
       <use xlink:href="#DejaVuSans-32"/>
       <use xlink:href="#DejaVuSans-35" transform="translate(63.623047 0)"/>
       <use xlink:href="#DejaVuSans-30" transform="translate(127.246094 0)"/>
       <use xlink:href="#DejaVuSans-30" transform="translate(190.869141 0)"/>
       <use xlink:href="#DejaVuSans-30" transform="translate(254.492188 0)"/>
       <use xlink:href="#DejaVuSans-30" transform="translate(318.115234 0)"/>
      </g>
     </g>
    </g>
    <g id="ytick_7">
     <g id="line2d_22">
      <g>
       <use xlink:href="#m2d54a59772" x="118.64" y="125.361538" style="stroke: #000000; stroke-width: 0.8"/>
      </g>
     </g>
     <g id="text_23">
      <!-- 300000 -->
      <g transform="translate(35.29 132.959976) scale(0.2 -0.2)">
       <use xlink:href="#DejaVuSans-33"/>
       <use xlink:href="#DejaVuSans-30" transform="translate(63.623047 0)"/>
       <use xlink:href="#DejaVuSans-30" transform="translate(127.246094 0)"/>
       <use xlink:href="#DejaVuSans-30" transform="translate(190.869141 0)"/>
       <use xlink:href="#DejaVuSans-30" transform="translate(254.492188 0)"/>
       <use xlink:href="#DejaVuSans-30" transform="translate(318.115234 0)"/>
      </g>
     </g>
    </g>
    <g id="ytick_8">
     <g id="line2d_23">
      <g>
       <use xlink:href="#m2d54a59772" x="118.64" y="84.608461" style="stroke: #000000; stroke-width: 0.8"/>
      </g>
     </g>
     <g id="text_24">
      <!-- 350000 -->
      <g transform="translate(35.29 92.206899) scale(0.2 -0.2)">
       <use xlink:href="#DejaVuSans-33"/>
       <use xlink:href="#DejaVuSans-35" transform="translate(63.623047 0)"/>
       <use xlink:href="#DejaVuSans-30" transform="translate(127.246094 0)"/>
       <use xlink:href="#DejaVuSans-30" transform="translate(190.869141 0)"/>
       <use xlink:href="#DejaVuSans-30" transform="translate(254.492188 0)"/>
       <use xlink:href="#DejaVuSans-30" transform="translate(318.115234 0)"/>
      </g>
     </g>
    </g>
    <g id="ytick_9">
     <g id="line2d_24">
      <g>
       <use xlink:href="#m2d54a59772" x="118.64" y="43.855384" style="stroke: #000000; stroke-width: 0.8"/>
      </g>
     </g>
     <g id="text_25">
      <!-- 400000 -->
      <g transform="translate(35.29 51.453822) scale(0.2 -0.2)">
       <use xlink:href="#DejaVuSans-34"/>
       <use xlink:href="#DejaVuSans-30" transform="translate(63.623047 0)"/>
       <use xlink:href="#DejaVuSans-30" transform="translate(127.246094 0)"/>
       <use xlink:href="#DejaVuSans-30" transform="translate(190.869141 0)"/>
       <use xlink:href="#DejaVuSans-30" transform="translate(254.492188 0)"/>
       <use xlink:href="#DejaVuSans-30" transform="translate(318.115234 0)"/>
      </g>
     </g>
    </g>
    <g id="text_26">
     <!-- Vertices -->
     <g transform="translate(26.922656 243.503516) rotate(-90) scale(0.21 -0.21)">
      <defs>
       <path id="DejaVuSans-56" d="M 1831 0 
L 50 4666 
L 709 4666 
L 2188 738 
L 3669 4666 
L 4325 4666 
L 2547 0 
L 1831 0 
z
" transform="scale(0.015625)"/>
       <path id="DejaVuSans-74" d="M 1172 4494 
L 1172 3500 
L 2356 3500 
L 2356 3053 
L 1172 3053 
L 1172 1153 
Q 1172 725 1289 603 
Q 1406 481 1766 481 
L 2356 481 
L 2356 0 
L 1766 0 
Q 1100 0 847 248 
Q 594 497 594 1153 
L 594 3053 
L 172 3053 
L 172 3500 
L 594 3500 
L 594 4494 
L 1172 4494 
z
" transform="scale(0.015625)"/>
       <path id="DejaVuSans-73" d="M 2834 3397 
L 2834 2853 
Q 2591 2978 2328 3040 
Q 2066 3103 1784 3103 
Q 1356 3103 1142 2972 
Q 928 2841 928 2578 
Q 928 2378 1081 2264 
Q 1234 2150 1697 2047 
L 1894 2003 
Q 2506 1872 2764 1633 
Q 3022 1394 3022 966 
Q 3022 478 2636 193 
Q 2250 -91 1575 -91 
Q 1294 -91 989 -36 
Q 684 19 347 128 
L 347 722 
Q 666 556 975 473 
Q 1284 391 1588 391 
Q 1994 391 2212 530 
Q 2431 669 2431 922 
Q 2431 1156 2273 1281 
Q 2116 1406 1581 1522 
L 1381 1569 
Q 847 1681 609 1914 
Q 372 2147 372 2553 
Q 372 3047 722 3315 
Q 1072 3584 1716 3584 
Q 2034 3584 2315 3537 
Q 2597 3491 2834 3397 
z
" transform="scale(0.015625)"/>
      </defs>
      <use xlink:href="#DejaVuSans-56"/>
      <use xlink:href="#DejaVuSans-65" transform="translate(60.658203 0)"/>
      <use xlink:href="#DejaVuSans-72" transform="translate(122.181641 0)"/>
      <use xlink:href="#DejaVuSans-74" transform="translate(163.294922 0)"/>
      <use xlink:href="#DejaVuSans-69" transform="translate(202.503906 0)"/>
      <use xlink:href="#DejaVuSans-63" transform="translate(230.287109 0)"/>
      <use xlink:href="#DejaVuSans-65" transform="translate(285.267578 0)"/>
      <use xlink:href="#DejaVuSans-73" transform="translate(346.791016 0)"/>
     </g>
    </g>
   </g>
   <g id="patch_48">
    <path d="M 118.64 369.88 
L 118.64 33.36 
" style="fill: none; stroke: #000000; stroke-width: 0.8; stroke-linejoin: miter; stroke-linecap: square"/>
   </g>
   <g id="patch_49">
    <path d="M 997.2 369.88 
L 997.2 33.36 
" style="fill: none; stroke: #000000; stroke-width: 0.8; stroke-linejoin: miter; stroke-linecap: square"/>
   </g>
   <g id="patch_50">
    <path d="M 118.64 369.88 
L 997.2 369.88 
" style="fill: none; stroke: #000000; stroke-width: 0.8; stroke-linejoin: miter; stroke-linecap: square"/>
   </g>
   <g id="patch_51">
    <path d="M 118.64 33.36 
L 997.2 33.36 
" style="fill: none; stroke: #000000; stroke-width: 0.8; stroke-linejoin: miter; stroke-linecap: square"/>
   </g>
   <g id="text_27">
    <!-- 393216 -->
    <g transform="translate(155.162558 48.136949) scale(0.06 -0.06)">
     <use xlink:href="#DejaVuSans-33"/>
     <use xlink:href="#DejaVuSans-39" transform="translate(63.623047 0)"/>
     <use xlink:href="#DejaVuSans-33" transform="translate(127.246094 0)"/>
     <use xlink:href="#DejaVuSans-32" transform="translate(190.869141 0)"/>
     <use xlink:href="#DejaVuSans-31" transform="translate(254.492188 0)"/>
     <use xlink:href="#DejaVuSans-36" transform="translate(318.115234 0)"/>
    </g>
   </g>
   <g id="text_28">
    <!-- 196608 -->
    <g transform="translate(208.765975 208.384568) scale(0.06 -0.06)">
     <use xlink:href="#DejaVuSans-31"/>
     <use xlink:href="#DejaVuSans-39" transform="translate(63.623047 0)"/>
     <use xlink:href="#DejaVuSans-36" transform="translate(127.246094 0)"/>
     <use xlink:href="#DejaVuSans-36" transform="translate(190.869141 0)"/>
     <use xlink:href="#DejaVuSans-30" transform="translate(254.492188 0)"/>
     <use xlink:href="#DejaVuSans-38" transform="translate(318.115234 0)"/>
    </g>
   </g>
   <g id="text_29">
    <!-- 98304 -->
    <g transform="translate(264.278141 288.508378) scale(0.06 -0.06)">
     <use xlink:href="#DejaVuSans-39"/>
     <use xlink:href="#DejaVuSans-38" transform="translate(63.623047 0)"/>
     <use xlink:href="#DejaVuSans-33" transform="translate(127.246094 0)"/>
     <use xlink:href="#DejaVuSans-30" transform="translate(190.869141 0)"/>
     <use xlink:href="#DejaVuSans-34" transform="translate(254.492188 0)"/>
    </g>
   </g>
   <g id="text_30">
    <!-- 73728 -->
    <g transform="translate(317.881558 308.53933) scale(0.06 -0.06)">
     <use xlink:href="#DejaVuSans-37"/>
     <use xlink:href="#DejaVuSans-33" transform="translate(63.623047 0)"/>
     <use xlink:href="#DejaVuSans-37" transform="translate(127.246094 0)"/>
     <use xlink:href="#DejaVuSans-32" transform="translate(190.869141 0)"/>
     <use xlink:href="#DejaVuSans-38" transform="translate(254.492188 0)"/>
    </g>
   </g>
   <g id="text_31">
    <!-- 49152 -->
    <g transform="translate(371.484975 328.570283) scale(0.06 -0.06)">
     <use xlink:href="#DejaVuSans-34"/>
     <use xlink:href="#DejaVuSans-39" transform="translate(63.623047 0)"/>
     <use xlink:href="#DejaVuSans-31" transform="translate(127.246094 0)"/>
     <use xlink:href="#DejaVuSans-35" transform="translate(190.869141 0)"/>
     <use xlink:href="#DejaVuSans-32" transform="translate(254.492188 0)"/>
    </g>
   </g>
   <g id="text_32">
    <!-- 12288 -->
    <g transform="translate(425.088392 358.616711) scale(0.06 -0.06)">
     <use xlink:href="#DejaVuSans-31"/>
     <use xlink:href="#DejaVuSans-32" transform="translate(63.623047 0)"/>
     <use xlink:href="#DejaVuSans-32" transform="translate(127.246094 0)"/>
     <use xlink:href="#DejaVuSans-38" transform="translate(190.869141 0)"/>
     <use xlink:href="#DejaVuSans-38" transform="translate(254.492188 0)"/>
    </g>
   </g>
   <g id="text_33">
    <!-- 11264 -->
    <g transform="translate(478.691808 359.451334) scale(0.06 -0.06)">
     <use xlink:href="#DejaVuSans-31"/>
     <use xlink:href="#DejaVuSans-31" transform="translate(63.623047 0)"/>
     <use xlink:href="#DejaVuSans-32" transform="translate(127.246094 0)"/>
     <use xlink:href="#DejaVuSans-36" transform="translate(190.869141 0)"/>
     <use xlink:href="#DejaVuSans-34" transform="translate(254.492188 0)"/>
    </g>
   </g>
   <g id="text_34">
    <!-- 10752 -->
    <g transform="translate(532.295225 359.868646) scale(0.06 -0.06)">
     <use xlink:href="#DejaVuSans-31"/>
     <use xlink:href="#DejaVuSans-30" transform="translate(63.623047 0)"/>
     <use xlink:href="#DejaVuSans-37" transform="translate(127.246094 0)"/>
     <use xlink:href="#DejaVuSans-35" transform="translate(190.869141 0)"/>
     <use xlink:href="#DejaVuSans-32" transform="translate(254.492188 0)"/>
    </g>
   </g>
   <g id="text_35">
    <!-- 11904 -->
    <g transform="translate(585.898642 358.929695) scale(0.06 -0.06)">
     <use xlink:href="#DejaVuSans-31"/>
     <use xlink:href="#DejaVuSans-31" transform="translate(63.623047 0)"/>
     <use xlink:href="#DejaVuSans-39" transform="translate(127.246094 0)"/>
     <use xlink:href="#DejaVuSans-30" transform="translate(190.869141 0)"/>
     <use xlink:href="#DejaVuSans-34" transform="translate(254.492188 0)"/>
    </g>
   </g>
   <g id="text_36">
    <!-- 13696 -->
    <g transform="translate(639.502058 357.469105) scale(0.06 -0.06)">
     <use xlink:href="#DejaVuSans-31"/>
     <use xlink:href="#DejaVuSans-33" transform="translate(63.623047 0)"/>
     <use xlink:href="#DejaVuSans-36" transform="translate(127.246094 0)"/>
     <use xlink:href="#DejaVuSans-39" transform="translate(190.869141 0)"/>
     <use xlink:href="#DejaVuSans-36" transform="translate(254.492188 0)"/>
    </g>
   </g>
   <g id="text_37">
    <!-- 10304 -->
    <g transform="translate(693.105475 360.233793) scale(0.06 -0.06)">
     <use xlink:href="#DejaVuSans-31"/>
     <use xlink:href="#DejaVuSans-30" transform="translate(63.623047 0)"/>
     <use xlink:href="#DejaVuSans-33" transform="translate(127.246094 0)"/>
     <use xlink:href="#DejaVuSans-30" transform="translate(190.869141 0)"/>
     <use xlink:href="#DejaVuSans-34" transform="translate(254.492188 0)"/>
    </g>
   </g>
   <g id="text_38">
    <!-- 9280 -->
    <g transform="translate(748.617642 361.068416) scale(0.06 -0.06)">
     <use xlink:href="#DejaVuSans-39"/>
     <use xlink:href="#DejaVuSans-32" transform="translate(63.623047 0)"/>
     <use xlink:href="#DejaVuSans-38" transform="translate(127.246094 0)"/>
     <use xlink:href="#DejaVuSans-30" transform="translate(190.869141 0)"/>
    </g>
   </g>
   <g id="text_39">
    <!-- 8768 -->
    <g transform="translate(802.221059 361.485728) scale(0.06 -0.06)">
     <use xlink:href="#DejaVuSans-38"/>
     <use xlink:href="#DejaVuSans-37" transform="translate(63.623047 0)"/>
     <use xlink:href="#DejaVuSans-36" transform="translate(127.246094 0)"/>
     <use xlink:href="#DejaVuSans-38" transform="translate(190.869141 0)"/>
    </g>
   </g>
   <g id="text_40">
    <!-- 9672 -->
    <g transform="translate(855.824475 360.748912) scale(0.06 -0.06)">
     <use xlink:href="#DejaVuSans-39"/>
     <use xlink:href="#DejaVuSans-36" transform="translate(63.623047 0)"/>
     <use xlink:href="#DejaVuSans-37" transform="translate(127.246094 0)"/>
     <use xlink:href="#DejaVuSans-32" transform="translate(190.869141 0)"/>
    </g>
   </g>
   <g id="text_41">
    <!-- 11092 -->
    <g transform="translate(907.519142 359.591525) scale(0.06 -0.06)">
     <use xlink:href="#DejaVuSans-31"/>
     <use xlink:href="#DejaVuSans-31" transform="translate(63.623047 0)"/>
     <use xlink:href="#DejaVuSans-30" transform="translate(127.246094 0)"/>
     <use xlink:href="#DejaVuSans-39" transform="translate(190.869141 0)"/>
     <use xlink:href="#DejaVuSans-32" transform="translate(254.492188 0)"/>
    </g>
   </g>
   <g id="text_42">
    <!-- 135060 -->
    <g transform="translate(171.243583 258.549976) scale(0.06 -0.06)">
     <use xlink:href="#DejaVuSans-31"/>
     <use xlink:href="#DejaVuSans-33" transform="translate(63.623047 0)"/>
     <use xlink:href="#DejaVuSans-35" transform="translate(127.246094 0)"/>
     <use xlink:href="#DejaVuSans-30" transform="translate(190.869141 0)"/>
     <use xlink:href="#DejaVuSans-36" transform="translate(254.492188 0)"/>
     <use xlink:href="#DejaVuSans-30" transform="translate(318.115234 0)"/>
    </g>
   </g>
   <g id="text_43">
    <!-- 69524 -->
    <g transform="translate(226.75575 311.965849) scale(0.06 -0.06)">
     <use xlink:href="#DejaVuSans-36"/>
     <use xlink:href="#DejaVuSans-39" transform="translate(63.623047 0)"/>
     <use xlink:href="#DejaVuSans-35" transform="translate(127.246094 0)"/>
     <use xlink:href="#DejaVuSans-32" transform="translate(190.869141 0)"/>
     <use xlink:href="#DejaVuSans-34" transform="translate(254.492188 0)"/>
    </g>
   </g>
   <g id="text_44">
    <!-- 36760 -->
    <g transform="translate(280.359166 338.670525) scale(0.06 -0.06)">
     <use xlink:href="#DejaVuSans-33"/>
     <use xlink:href="#DejaVuSans-36" transform="translate(63.623047 0)"/>
     <use xlink:href="#DejaVuSans-37" transform="translate(127.246094 0)"/>
     <use xlink:href="#DejaVuSans-36" transform="translate(190.869141 0)"/>
     <use xlink:href="#DejaVuSans-30" transform="translate(254.492188 0)"/>
    </g>
   </g>
   <g id="text_45">
    <!-- 29080 -->
    <g transform="translate(333.962583 344.930198) scale(0.06 -0.06)">
     <use xlink:href="#DejaVuSans-32"/>
     <use xlink:href="#DejaVuSans-39" transform="translate(63.623047 0)"/>
     <use xlink:href="#DejaVuSans-30" transform="translate(127.246094 0)"/>
     <use xlink:href="#DejaVuSans-38" transform="translate(190.869141 0)"/>
     <use xlink:href="#DejaVuSans-30" transform="translate(254.492188 0)"/>
    </g>
   </g>
   <g id="text_46">
    <!-- 16478 -->
    <g transform="translate(387.566 355.201603) scale(0.06 -0.06)">
     <use xlink:href="#DejaVuSans-31"/>
     <use xlink:href="#DejaVuSans-36" transform="translate(63.623047 0)"/>
     <use xlink:href="#DejaVuSans-34" transform="translate(127.246094 0)"/>
     <use xlink:href="#DejaVuSans-37" transform="translate(190.869141 0)"/>
     <use xlink:href="#DejaVuSans-38" transform="translate(254.492188 0)"/>
    </g>
   </g>
   <g id="text_47">
    <!-- 134896 -->
    <g transform="translate(439.260667 258.683646) scale(0.06 -0.06)">
     <use xlink:href="#DejaVuSans-31"/>
     <use xlink:href="#DejaVuSans-33" transform="translate(63.623047 0)"/>
     <use xlink:href="#DejaVuSans-34" transform="translate(127.246094 0)"/>
     <use xlink:href="#DejaVuSans-38" transform="translate(190.869141 0)"/>
     <use xlink:href="#DejaVuSans-39" transform="translate(254.492188 0)"/>
     <use xlink:href="#DejaVuSans-36" transform="translate(318.115234 0)"/>
    </g>
   </g>
   <g id="text_48">
    <!-- 69360 -->
    <g transform="translate(494.772833 312.099519) scale(0.06 -0.06)">
     <use xlink:href="#DejaVuSans-36"/>
     <use xlink:href="#DejaVuSans-39" transform="translate(63.623047 0)"/>
     <use xlink:href="#DejaVuSans-33" transform="translate(127.246094 0)"/>
     <use xlink:href="#DejaVuSans-36" transform="translate(190.869141 0)"/>
     <use xlink:href="#DejaVuSans-30" transform="translate(254.492188 0)"/>
    </g>
   </g>
   <g id="text_49">
    <!-- 36592 -->
    <g transform="translate(548.37625 338.807456) scale(0.06 -0.06)">
     <use xlink:href="#DejaVuSans-33"/>
     <use xlink:href="#DejaVuSans-36" transform="translate(63.623047 0)"/>
     <use xlink:href="#DejaVuSans-35" transform="translate(127.246094 0)"/>
     <use xlink:href="#DejaVuSans-39" transform="translate(190.869141 0)"/>
     <use xlink:href="#DejaVuSans-32" transform="translate(254.492188 0)"/>
    </g>
   </g>
   <g id="text_50">
    <!-- 16762 -->
    <g transform="translate(601.979667 354.970126) scale(0.06 -0.06)">
     <use xlink:href="#DejaVuSans-31"/>
     <use xlink:href="#DejaVuSans-36" transform="translate(63.623047 0)"/>
     <use xlink:href="#DejaVuSans-37" transform="translate(127.246094 0)"/>
     <use xlink:href="#DejaVuSans-36" transform="translate(190.869141 0)"/>
     <use xlink:href="#DejaVuSans-32" transform="translate(254.492188 0)"/>
    </g>
   </g>
   <g id="text_51">
    <!-- 17098 -->
    <g transform="translate(655.583083 354.696265) scale(0.06 -0.06)">
     <use xlink:href="#DejaVuSans-31"/>
     <use xlink:href="#DejaVuSans-37" transform="translate(63.623047 0)"/>
     <use xlink:href="#DejaVuSans-30" transform="translate(127.246094 0)"/>
     <use xlink:href="#DejaVuSans-39" transform="translate(190.869141 0)"/>
     <use xlink:href="#DejaVuSans-38" transform="translate(254.492188 0)"/>
    </g>
   </g>
   <g id="text_52">
    <!-- 134795 -->
    <g transform="translate(707.27775 258.765967) scale(0.06 -0.06)">
     <use xlink:href="#DejaVuSans-31"/>
     <use xlink:href="#DejaVuSans-33" transform="translate(63.623047 0)"/>
     <use xlink:href="#DejaVuSans-34" transform="translate(127.246094 0)"/>
     <use xlink:href="#DejaVuSans-37" transform="translate(190.869141 0)"/>
     <use xlink:href="#DejaVuSans-39" transform="translate(254.492188 0)"/>
     <use xlink:href="#DejaVuSans-35" transform="translate(318.115234 0)"/>
    </g>
   </g>
   <g id="text_53">
    <!-- 69275 -->
    <g transform="translate(762.789917 312.168799) scale(0.06 -0.06)">
     <use xlink:href="#DejaVuSans-36"/>
     <use xlink:href="#DejaVuSans-39" transform="translate(63.623047 0)"/>
     <use xlink:href="#DejaVuSans-32" transform="translate(127.246094 0)"/>
     <use xlink:href="#DejaVuSans-37" transform="translate(190.869141 0)"/>
     <use xlink:href="#DejaVuSans-35" transform="translate(254.492188 0)"/>
    </g>
   </g>
   <g id="text_54">
    <!-- 36495 -->
    <g transform="translate(816.393334 338.886517) scale(0.06 -0.06)">
     <use xlink:href="#DejaVuSans-33"/>
     <use xlink:href="#DejaVuSans-36" transform="translate(63.623047 0)"/>
     <use xlink:href="#DejaVuSans-34" transform="translate(127.246094 0)"/>
     <use xlink:href="#DejaVuSans-39" transform="translate(190.869141 0)"/>
     <use xlink:href="#DejaVuSans-35" transform="translate(254.492188 0)"/>
    </g>
   </g>
   <g id="text_55">
    <!-- 28787 -->
    <g transform="translate(869.99675 345.169011) scale(0.06 -0.06)">
     <use xlink:href="#DejaVuSans-32"/>
     <use xlink:href="#DejaVuSans-38" transform="translate(63.623047 0)"/>
     <use xlink:href="#DejaVuSans-37" transform="translate(127.246094 0)"/>
     <use xlink:href="#DejaVuSans-38" transform="translate(190.869141 0)"/>
     <use xlink:href="#DejaVuSans-37" transform="translate(254.492188 0)"/>
    </g>
   </g>
   <g id="text_56">
    <!-- 17167 -->
    <g transform="translate(923.600167 354.640026) scale(0.06 -0.06)">
     <use xlink:href="#DejaVuSans-31"/>
     <use xlink:href="#DejaVuSans-37" transform="translate(63.623047 0)"/>
     <use xlink:href="#DejaVuSans-31" transform="translate(127.246094 0)"/>
     <use xlink:href="#DejaVuSans-36" transform="translate(190.869141 0)"/>
     <use xlink:href="#DejaVuSans-37" transform="translate(254.492188 0)"/>
    </g>
   </g>
   <g id="text_57">
    <!-- 256 -->
    <g transform="translate(193.050858 368.423532) scale(0.06 -0.06)">
     <use xlink:href="#DejaVuSans-32"/>
     <use xlink:href="#DejaVuSans-35" transform="translate(63.623047 0)"/>
     <use xlink:href="#DejaVuSans-36" transform="translate(127.246094 0)"/>
    </g>
   </g>
   <g id="text_58">
    <!-- 128 -->
    <g transform="translate(246.654275 368.52786) scale(0.06 -0.06)">
     <use xlink:href="#DejaVuSans-31"/>
     <use xlink:href="#DejaVuSans-32" transform="translate(63.623047 0)"/>
     <use xlink:href="#DejaVuSans-38" transform="translate(127.246094 0)"/>
    </g>
   </g>
   <g id="text_59">
    <!-- 64 -->
    <g transform="translate(302.166441 368.580024) scale(0.06 -0.06)">
     <use xlink:href="#DejaVuSans-36"/>
     <use xlink:href="#DejaVuSans-34" transform="translate(63.623047 0)"/>
    </g>
   </g>
   <g id="text_60">
    <!-- 48 -->
    <g transform="translate(355.769858 368.593065) scale(0.06 -0.06)">
     <use xlink:href="#DejaVuSans-34"/>
     <use xlink:href="#DejaVuSans-38" transform="translate(63.623047 0)"/>
    </g>
   </g>
   <g id="text_61">
    <!-- 28 -->
    <g transform="translate(409.373275 368.609366) scale(0.06 -0.06)">
     <use xlink:href="#DejaVuSans-32"/>
     <use xlink:href="#DejaVuSans-38" transform="translate(63.623047 0)"/>
    </g>
   </g>
   <g id="text_62">
    <!-- 256 -->
    <g transform="translate(461.067942 368.423532) scale(0.06 -0.06)">
     <use xlink:href="#DejaVuSans-32"/>
     <use xlink:href="#DejaVuSans-35" transform="translate(63.623047 0)"/>
     <use xlink:href="#DejaVuSans-36" transform="translate(127.246094 0)"/>
    </g>
   </g>
   <g id="text_63">
    <!-- 128 -->
    <g transform="translate(514.671358 368.52786) scale(0.06 -0.06)">
     <use xlink:href="#DejaVuSans-31"/>
     <use xlink:href="#DejaVuSans-32" transform="translate(63.623047 0)"/>
     <use xlink:href="#DejaVuSans-38" transform="translate(127.246094 0)"/>
    </g>
   </g>
   <g id="text_64">
    <!-- 64 -->
    <g transform="translate(570.183525 368.580024) scale(0.06 -0.06)">
     <use xlink:href="#DejaVuSans-36"/>
     <use xlink:href="#DejaVuSans-34" transform="translate(63.623047 0)"/>
    </g>
   </g>
   <g id="text_65">
    <!-- 48 -->
    <g transform="translate(623.786942 368.593065) scale(0.06 -0.06)">
     <use xlink:href="#DejaVuSans-34"/>
     <use xlink:href="#DejaVuSans-38" transform="translate(63.623047 0)"/>
    </g>
   </g>
   <g id="text_66">
    <!-- 28 -->
    <g transform="translate(677.390358 368.609366) scale(0.06 -0.06)">
     <use xlink:href="#DejaVuSans-32"/>
     <use xlink:href="#DejaVuSans-38" transform="translate(63.623047 0)"/>
    </g>
   </g>
   <g id="text_67">
    <!-- 256 -->
    <g transform="translate(729.085025 368.423532) scale(0.06 -0.06)">
     <use xlink:href="#DejaVuSans-32"/>
     <use xlink:href="#DejaVuSans-35" transform="translate(63.623047 0)"/>
     <use xlink:href="#DejaVuSans-36" transform="translate(127.246094 0)"/>
    </g>
   </g>
   <g id="text_68">
    <!-- 128 -->
    <g transform="translate(782.688442 368.52786) scale(0.06 -0.06)">
     <use xlink:href="#DejaVuSans-31"/>
     <use xlink:href="#DejaVuSans-32" transform="translate(63.623047 0)"/>
     <use xlink:href="#DejaVuSans-38" transform="translate(127.246094 0)"/>
    </g>
   </g>
   <g id="text_69">
    <!-- 64 -->
    <g transform="translate(838.200609 368.580024) scale(0.06 -0.06)">
     <use xlink:href="#DejaVuSans-36"/>
     <use xlink:href="#DejaVuSans-34" transform="translate(63.623047 0)"/>
    </g>
   </g>
   <g id="text_70">
    <!-- 48 -->
    <g transform="translate(891.804025 368.593065) scale(0.06 -0.06)">
     <use xlink:href="#DejaVuSans-34"/>
     <use xlink:href="#DejaVuSans-38" transform="translate(63.623047 0)"/>
    </g>
   </g>
   <g id="text_71">
    <!-- 28 -->
    <g transform="translate(945.407442 368.609366) scale(0.06 -0.06)">
     <use xlink:href="#DejaVuSans-32"/>
     <use xlink:href="#DejaVuSans-38" transform="translate(63.623047 0)"/>
    </g>
   </g>
   <g id="text_72">
    <!-- Vertices in Group 3 -->
    <g transform="translate(453.045313 27.36) scale(0.22 -0.22)">
     <defs>
      <path id="DejaVuSans-47" d="M 3809 666 
L 3809 1919 
L 2778 1919 
L 2778 2438 
L 4434 2438 
L 4434 434 
Q 4069 175 3628 42 
Q 3188 -91 2688 -91 
Q 1594 -91 976 548 
Q 359 1188 359 2328 
Q 359 3472 976 4111 
Q 1594 4750 2688 4750 
Q 3144 4750 3555 4637 
Q 3966 4525 4313 4306 
L 4313 3634 
Q 3963 3931 3569 4081 
Q 3175 4231 2741 4231 
Q 1884 4231 1454 3753 
Q 1025 3275 1025 2328 
Q 1025 1384 1454 906 
Q 1884 428 2741 428 
Q 3075 428 3337 486 
Q 3600 544 3809 666 
z
" transform="scale(0.015625)"/>
      <path id="DejaVuSans-70" d="M 1159 525 
L 1159 -1331 
L 581 -1331 
L 581 3500 
L 1159 3500 
L 1159 2969 
Q 1341 3281 1617 3432 
Q 1894 3584 2278 3584 
Q 2916 3584 3314 3078 
Q 3713 2572 3713 1747 
Q 3713 922 3314 415 
Q 2916 -91 2278 -91 
Q 1894 -91 1617 61 
Q 1341 213 1159 525 
z
M 3116 1747 
Q 3116 2381 2855 2742 
Q 2594 3103 2138 3103 
Q 1681 3103 1420 2742 
Q 1159 2381 1159 1747 
Q 1159 1113 1420 752 
Q 1681 391 2138 391 
Q 2594 391 2855 752 
Q 3116 1113 3116 1747 
z
" transform="scale(0.015625)"/>
     </defs>
     <use xlink:href="#DejaVuSans-56"/>
     <use xlink:href="#DejaVuSans-65" transform="translate(60.658203 0)"/>
     <use xlink:href="#DejaVuSans-72" transform="translate(122.181641 0)"/>
     <use xlink:href="#DejaVuSans-74" transform="translate(163.294922 0)"/>
     <use xlink:href="#DejaVuSans-69" transform="translate(202.503906 0)"/>
     <use xlink:href="#DejaVuSans-63" transform="translate(230.287109 0)"/>
     <use xlink:href="#DejaVuSans-65" transform="translate(285.267578 0)"/>
     <use xlink:href="#DejaVuSans-73" transform="translate(346.791016 0)"/>
     <use xlink:href="#DejaVuSans-20" transform="translate(398.890625 0)"/>
     <use xlink:href="#DejaVuSans-69" transform="translate(430.677734 0)"/>
     <use xlink:href="#DejaVuSans-6e" transform="translate(458.460938 0)"/>
     <use xlink:href="#DejaVuSans-20" transform="translate(521.839844 0)"/>
     <use xlink:href="#DejaVuSans-47" transform="translate(553.626953 0)"/>
     <use xlink:href="#DejaVuSans-72" transform="translate(631.117188 0)"/>
     <use xlink:href="#DejaVuSans-6f" transform="translate(669.980469 0)"/>
     <use xlink:href="#DejaVuSans-75" transform="translate(731.162109 0)"/>
     <use xlink:href="#DejaVuSans-70" transform="translate(794.541016 0)"/>
     <use xlink:href="#DejaVuSans-20" transform="translate(858.017578 0)"/>
     <use xlink:href="#DejaVuSans-33" transform="translate(889.804688 0)"/>
    </g>
   </g>
   <g id="legend_1">
    <g id="patch_52">
     <path d="M 756.728125 137.42875 
L 983.2 137.42875 
Q 987.2 137.42875 987.2 133.42875 
L 987.2 47.36 
Q 987.2 43.36 983.2 43.36 
L 756.728125 43.36 
Q 752.728125 43.36 752.728125 47.36 
L 752.728125 133.42875 
Q 752.728125 137.42875 756.728125 137.42875 
z
" style="fill: #ffffff; opacity: 0.8; stroke: #cccccc; stroke-linejoin: miter"/>
    </g>
    <g id="patch_53">
     <path d="M 760.728125 66.556875 
L 800.728125 66.556875 
L 800.728125 52.556875 
L 760.728125 52.556875 
z
" style="fill: #1f77b4"/>
    </g>
    <g id="text_73">
     <!-- RLE-based RDM -->
     <g transform="translate(816.728125 66.556875) scale(0.2 -0.2)">
      <defs>
       <path id="DejaVuSans-52" d="M 2841 2188 
Q 3044 2119 3236 1894 
Q 3428 1669 3622 1275 
L 4263 0 
L 3584 0 
L 2988 1197 
Q 2756 1666 2539 1819 
Q 2322 1972 1947 1972 
L 1259 1972 
L 1259 0 
L 628 0 
L 628 4666 
L 2053 4666 
Q 2853 4666 3247 4331 
Q 3641 3997 3641 3322 
Q 3641 2881 3436 2590 
Q 3231 2300 2841 2188 
z
M 1259 4147 
L 1259 2491 
L 2053 2491 
Q 2509 2491 2742 2702 
Q 2975 2913 2975 3322 
Q 2975 3731 2742 3939 
Q 2509 4147 2053 4147 
L 1259 4147 
z
" transform="scale(0.015625)"/>
       <path id="DejaVuSans-4c" d="M 628 4666 
L 1259 4666 
L 1259 531 
L 3531 531 
L 3531 0 
L 628 0 
L 628 4666 
z
" transform="scale(0.015625)"/>
       <path id="DejaVuSans-45" d="M 628 4666 
L 3578 4666 
L 3578 4134 
L 1259 4134 
L 1259 2753 
L 3481 2753 
L 3481 2222 
L 1259 2222 
L 1259 531 
L 3634 531 
L 3634 0 
L 628 0 
L 628 4666 
z
" transform="scale(0.015625)"/>
       <path id="DejaVuSans-2d" d="M 313 2009 
L 1997 2009 
L 1997 1497 
L 313 1497 
L 313 2009 
z
" transform="scale(0.015625)"/>
       <path id="DejaVuSans-64" d="M 2906 2969 
L 2906 4863 
L 3481 4863 
L 3481 0 
L 2906 0 
L 2906 525 
Q 2725 213 2448 61 
Q 2172 -91 1784 -91 
Q 1150 -91 751 415 
Q 353 922 353 1747 
Q 353 2572 751 3078 
Q 1150 3584 1784 3584 
Q 2172 3584 2448 3432 
Q 2725 3281 2906 2969 
z
M 947 1747 
Q 947 1113 1208 752 
Q 1469 391 1925 391 
Q 2381 391 2643 752 
Q 2906 1113 2906 1747 
Q 2906 2381 2643 2742 
Q 2381 3103 1925 3103 
Q 1469 3103 1208 2742 
Q 947 2381 947 1747 
z
" transform="scale(0.015625)"/>
       <path id="DejaVuSans-44" d="M 1259 4147 
L 1259 519 
L 2022 519 
Q 2988 519 3436 956 
Q 3884 1394 3884 2338 
Q 3884 3275 3436 3711 
Q 2988 4147 2022 4147 
L 1259 4147 
z
M 628 4666 
L 1925 4666 
Q 3281 4666 3915 4102 
Q 4550 3538 4550 2338 
Q 4550 1131 3912 565 
Q 3275 0 1925 0 
L 628 0 
L 628 4666 
z
" transform="scale(0.015625)"/>
       <path id="DejaVuSans-4d" d="M 628 4666 
L 1569 4666 
L 2759 1491 
L 3956 4666 
L 4897 4666 
L 4897 0 
L 4281 0 
L 4281 4097 
L 3078 897 
L 2444 897 
L 1241 4097 
L 1241 0 
L 628 0 
L 628 4666 
z
" transform="scale(0.015625)"/>
      </defs>
      <use xlink:href="#DejaVuSans-52"/>
      <use xlink:href="#DejaVuSans-4c" transform="translate(69.482422 0)"/>
      <use xlink:href="#DejaVuSans-45" transform="translate(125.195312 0)"/>
      <use xlink:href="#DejaVuSans-2d" transform="translate(188.378906 0)"/>
      <use xlink:href="#DejaVuSans-62" transform="translate(224.462891 0)"/>
      <use xlink:href="#DejaVuSans-61" transform="translate(287.939453 0)"/>
      <use xlink:href="#DejaVuSans-73" transform="translate(349.21875 0)"/>
      <use xlink:href="#DejaVuSans-65" transform="translate(401.318359 0)"/>
      <use xlink:href="#DejaVuSans-64" transform="translate(462.841797 0)"/>
      <use xlink:href="#DejaVuSans-20" transform="translate(526.318359 0)"/>
      <use xlink:href="#DejaVuSans-52" transform="translate(558.105469 0)"/>
      <use xlink:href="#DejaVuSans-44" transform="translate(627.587891 0)"/>
      <use xlink:href="#DejaVuSans-4d" transform="translate(704.589844 0)"/>
     </g>
    </g>
    <g id="patch_54">
     <path d="M 760.728125 95.913125 
L 800.728125 95.913125 
L 800.728125 81.913125 
L 760.728125 81.913125 
z
" style="fill: #ff7f0e"/>
    </g>
    <g id="text_74">
     <!-- Voxel Plugin -->
     <g transform="translate(816.728125 95.913125) scale(0.2 -0.2)">
      <defs>
       <path id="DejaVuSans-78" d="M 3513 3500 
L 2247 1797 
L 3578 0 
L 2900 0 
L 1881 1375 
L 863 0 
L 184 0 
L 1544 1831 
L 300 3500 
L 978 3500 
L 1906 2253 
L 2834 3500 
L 3513 3500 
z
" transform="scale(0.015625)"/>
       <path id="DejaVuSans-6c" d="M 603 4863 
L 1178 4863 
L 1178 0 
L 603 0 
L 603 4863 
z
" transform="scale(0.015625)"/>
       <path id="DejaVuSans-50" d="M 1259 4147 
L 1259 2394 
L 2053 2394 
Q 2494 2394 2734 2622 
Q 2975 2850 2975 3272 
Q 2975 3691 2734 3919 
Q 2494 4147 2053 4147 
L 1259 4147 
z
M 628 4666 
L 2053 4666 
Q 2838 4666 3239 4311 
Q 3641 3956 3641 3272 
Q 3641 2581 3239 2228 
Q 2838 1875 2053 1875 
L 1259 1875 
L 1259 0 
L 628 0 
L 628 4666 
z
" transform="scale(0.015625)"/>
       <path id="DejaVuSans-67" d="M 2906 1791 
Q 2906 2416 2648 2759 
Q 2391 3103 1925 3103 
Q 1463 3103 1205 2759 
Q 947 2416 947 1791 
Q 947 1169 1205 825 
Q 1463 481 1925 481 
Q 2391 481 2648 825 
Q 2906 1169 2906 1791 
z
M 3481 434 
Q 3481 -459 3084 -895 
Q 2688 -1331 1869 -1331 
Q 1566 -1331 1297 -1286 
Q 1028 -1241 775 -1147 
L 775 -588 
Q 1028 -725 1275 -790 
Q 1522 -856 1778 -856 
Q 2344 -856 2625 -561 
Q 2906 -266 2906 331 
L 2906 616 
Q 2728 306 2450 153 
Q 2172 0 1784 0 
Q 1141 0 747 490 
Q 353 981 353 1791 
Q 353 2603 747 3093 
Q 1141 3584 1784 3584 
Q 2172 3584 2450 3431 
Q 2728 3278 2906 2969 
L 2906 3500 
L 3481 3500 
L 3481 434 
z
" transform="scale(0.015625)"/>
      </defs>
      <use xlink:href="#DejaVuSans-56"/>
      <use xlink:href="#DejaVuSans-6f" transform="translate(60.658203 0)"/>
      <use xlink:href="#DejaVuSans-78" transform="translate(118.714844 0)"/>
      <use xlink:href="#DejaVuSans-65" transform="translate(174.769531 0)"/>
      <use xlink:href="#DejaVuSans-6c" transform="translate(236.292969 0)"/>
      <use xlink:href="#DejaVuSans-20" transform="translate(264.076172 0)"/>
      <use xlink:href="#DejaVuSans-50" transform="translate(295.863281 0)"/>
      <use xlink:href="#DejaVuSans-6c" transform="translate(356.166016 0)"/>
      <use xlink:href="#DejaVuSans-75" transform="translate(383.949219 0)"/>
      <use xlink:href="#DejaVuSans-67" transform="translate(447.328125 0)"/>
      <use xlink:href="#DejaVuSans-69" transform="translate(510.804688 0)"/>
      <use xlink:href="#DejaVuSans-6e" transform="translate(538.587891 0)"/>
     </g>
    </g>
    <g id="patch_55">
     <path d="M 760.728125 125.269375 
L 800.728125 125.269375 
L 800.728125 111.269375 
L 760.728125 111.269375 
z
" style="fill: #2ca02c"/>
    </g>
    <g id="text_75">
     <!-- Grid-based RDM -->
     <g transform="translate(816.728125 125.269375) scale(0.2 -0.2)">
      <use xlink:href="#DejaVuSans-47"/>
      <use xlink:href="#DejaVuSans-72" transform="translate(77.490234 0)"/>
      <use xlink:href="#DejaVuSans-69" transform="translate(118.603516 0)"/>
      <use xlink:href="#DejaVuSans-64" transform="translate(146.386719 0)"/>
      <use xlink:href="#DejaVuSans-2d" transform="translate(209.863281 0)"/>
      <use xlink:href="#DejaVuSans-62" transform="translate(245.947266 0)"/>
      <use xlink:href="#DejaVuSans-61" transform="translate(309.423828 0)"/>
      <use xlink:href="#DejaVuSans-73" transform="translate(370.703125 0)"/>
      <use xlink:href="#DejaVuSans-65" transform="translate(422.802734 0)"/>
      <use xlink:href="#DejaVuSans-64" transform="translate(484.326172 0)"/>
      <use xlink:href="#DejaVuSans-20" transform="translate(547.802734 0)"/>
      <use xlink:href="#DejaVuSans-52" transform="translate(579.589844 0)"/>
      <use xlink:href="#DejaVuSans-44" transform="translate(649.072266 0)"/>
      <use xlink:href="#DejaVuSans-4d" transform="translate(726.074219 0)"/>
     </g>
    </g>
   </g>
  </g>
 </g>
 <defs>
  <clipPath id="p7ba311e00a">
   <rect x="118.64" y="33.36" width="878.56" height="336.52"/>
  </clipPath>
 </defs>
</svg>
